<?xml version="1.0" standalone="no"?>
<!DOCTYPE svg PUBLIC "-//W3C//DTD SVG 1.1//EN" "http://www.w3.org/Graphics/SVG/1.1/DTD/svg11.dtd" >
<svg xmlns="http://www.w3.org/2000/svg" xmlns:xlink="http://www.w3.org/1999/xlink" version="1.1">
<metadata></metadata>
<defs>
<font id="boonmedium_italic" horiz-adv-x="0" >
<font-face units-per-em="1200" ascent="960" descent="-240" />
<missing-glyph horiz-adv-x="330" />
<glyph unicode="&#xeab;&#xe99;" horiz-adv-x="1120" d="M493 52q79 8 90 81l47 294q5 35 5 52q0 47 -32 47q-35 0 -72 -48q-8 -21 -37.5 -63.5t-34.5 -74.5l-32 -199q-10 -67 -63.5 -111t-140.5 -44q-80 0 -122 36t-42 94q0 9 2 25l24 149q9 56 80 121h-6q-42 0 -67.5 22t-25.5 59q0 6 2 18q7 45 41.5 72t80.5 27q42 0 68 -22 t26 -59q0 -6 -2 -18q-8 -46 -47.5 -110.5t-46.5 -109.5l-24 -152q-2 -14 -2 -19q0 -61 72 -61q89 0 101 80l29 182q7 46 52 91q-42 0 -67.5 22t-25.5 59q0 6 2 18q7 45 41.5 72t80.5 27q36 0 60.5 -16.5t31.5 -45.5q60 62 114 62q87 0 87 -109q0 -24 -5 -59l-37 -231 q34 -145 119 -145q31 0 55.5 26.5t33.5 85.5l67 423h107l-66 -416q-13 -85 -59.5 -141.5t-123.5 -56.5q-107 0 -155 112q-23 -55 -73.5 -82t-97.5 -30zM424 464q20 0 35 13t18 33q0 2 0.5 4t0.5 4q0 17 -10.5 27.5t-28.5 10.5q-20 0 -34.5 -13t-17.5 -33q0 -2 -0.5 -5 t-0.5 -4q0 -17 10 -27t28 -10zM167 464q20 0 35 13t18 33q0 2 0.5 4t0.5 4q0 17 -10.5 27.5t-28.5 10.5q-20 0 -34.5 -13t-17.5 -33q0 -2 -0.5 -5t-0.5 -4q0 -17 10 -27t28 -10z" />
<glyph unicode="&#xeab;&#xea1;" horiz-adv-x="1120" d="M602 136q-20 0 -35 -13t-18 -33q0 -2 -0.5 -4.5t-0.5 -3.5q0 -17 10.5 -27.5t28.5 -10.5q20 0 34.5 13t17.5 33q0 2 0.5 5t0.5 4q0 17 -10 27t-28 10zM424 464q20 0 35 13t18 33q0 2 0.5 4t0.5 4q0 17 -10.5 27.5t-28.5 10.5q-20 0 -34.5 -13t-17.5 -33q0 -2 -0.5 -5 t-0.5 -4q0 -17 10 -27t28 -10zM167 464q20 0 35 13t18 33q0 2 0.5 4t0.5 4q0 17 -10.5 27.5t-28.5 10.5q-20 0 -34.5 -13t-17.5 -33q0 -2 -0.5 -5t-0.5 -4q0 -17 10 -27t28 -10zM159 411q-42 0 -67.5 22t-25.5 59q0 6 2 18q7 45 41.5 72t80.5 27q42 0 68 -22t26 -59 q0 -6 -2 -18q-8 -46 -47.5 -110.5t-46.5 -109.5l-24 -152q-2 -14 -2 -19q0 -61 72 -61q89 0 101 80l29 182q7 46 52 91q-42 0 -67.5 22t-25.5 59q0 6 2 18q7 45 41.5 72t80.5 27q36 0 60.5 -16.5t31.5 -45.5q60 62 114 62q87 0 87 -109q0 -24 -5 -59l-37 -231q-2 -16 -2 -22 q0 -9 2 -25q6 -6 32 -38t47 -46t49 -14q33 0 52 28t29 91l66 416h107l-66 -416q-13 -87 -56.5 -142.5t-119.5 -55.5q-35 0 -64 15.5t-43.5 33t-31.5 44.5q-10 -40 -43.5 -64t-76.5 -24q-42 0 -68 22t-26 59q0 6 2 18q7 43 40.5 70t77.5 29q-6 15 -6 35q0 10 1 16l30 187 q5 35 5 52q0 47 -32 47q-35 0 -72 -48q-8 -21 -37.5 -63.5t-34.5 -74.5l-32 -199q-10 -67 -63.5 -111t-140.5 -44q-80 0 -122 36t-42 94q0 9 2 25l24 149q9 56 80 121h-6z" />
<glyph unicode="&#x2e;&#x200d;&#x2e;&#x200d;&#x2e;" horiz-adv-x="870" d="M128 144q31 0 50 -16.5t19 -44.5q0 -9 -1 -13q-5 -34 -31 -54t-61 -20q-31 0 -50 16.5t-19 44.5q0 9 1 13q5 34 31 54t61 20zM398 144q31 0 50 -16.5t19 -44.5q0 -9 -1 -13q-5 -34 -31 -54t-61 -20q-31 0 -50 16.5t-19 44.5q0 9 1 13q5 34 31 54t61 20zM668 144 q31 0 50 -16.5t19 -44.5q0 -9 -1 -13q-5 -34 -31 -54t-61 -20q-31 0 -50 16.5t-19 44.5q0 9 1 13q5 34 31 54t61 20z" />
<glyph unicode="&#xe4f;&#x200d;&#x2e;&#x200d;&#x2e;" horiz-adv-x="660" d="M325 346q-20 0 -34.5 -13t-17.5 -33q0 -2 -0.5 -5t-0.5 -4q0 -17 10 -27t28 -10q20 0 35 13t18 33q0 2 0.5 4t0.5 4q0 17 -10.5 27.5t-28.5 10.5zM333 399q42 0 68 -22t26 -59q0 -6 -2 -18q-7 -44 -42 -71.5t-81 -27.5q-42 0 -67.5 22t-25.5 59q0 6 2 18q7 45 41.5 72 t80.5 27zM278 52q-105 0 -164.5 57t-59.5 147q0 14 4 44q17 107 99 177.5t200 70.5q105 0 165 -57t60 -147q0 -14 -4 -44q-17 -106 -99 -177t-201 -71zM288 111q84 0 143.5 51t73.5 138q3 19 3 38q0 70 -43.5 110.5t-117.5 40.5q-84 0 -143 -51t-73 -138q-3 -21 -3 -39 q0 -70 43 -110t117 -40zM461 890h87l-56 -260h-58zM274 890h87l-55 -260h-58z" />
<glyph unicode="&#xe24;&#x200d;&#xe45;" horiz-adv-x="950" d="M158 136q-20 0 -35 -13t-18 -33q0 -2 -0.5 -4.5t-0.5 -3.5q0 -17 10.5 -27.5t28.5 -10.5q20 0 34.5 13t17.5 33q0 2 0.5 5t0.5 4q0 17 -10 27t-28 10zM553 537q65 76 164 76q79 0 121.5 -41t42.5 -105q0 -20 -2 -30l-102 -647h-106l102 647q2 18 2 24q0 38 -20 55.5 t-53 17.5q-78 0 -116 -98q0 -18 -3 -37l-96 -609h-107l96 609q2 10 2 29q0 55 -36.5 83.5t-100.5 28.5q-116 0 -166 -100l138 -30l-18 -44q-1 0 -6.5 1t-13 1.5t-12.5 0.5q-57 0 -67 -65l-10 -64q-4 -28 -19 -51q42 0 67 -22t25 -59q0 -6 -2 -18q-7 -45 -41.5 -72t-80.5 -27 q-42 0 -68 22t-26 59q0 6 2 18q4 23 16 60.5t15 59.5l14 84q12 76 84 98l-116 24q25 85 103.5 144t193.5 59q139 0 200 -82z" />
<glyph unicode="&#xe26;&#x200d;&#xe45;" horiz-adv-x="960" d="M109 136q-20 0 -35 -13t-18 -33q0 -2 -0.5 -4.5t-0.5 -3.5q0 -17 10.5 -27.5t28.5 -10.5q20 0 34.5 13t17.5 33q0 2 0.5 5t0.5 4q0 17 -10 27t-28 10zM563 537q65 76 164 76q79 0 121.5 -41t42.5 -105q0 -20 -2 -30l-102 -647h-106l102 647q2 18 2 24q0 38 -20 55.5 t-53 17.5q-78 0 -116 -98q0 -18 -3 -37l-96 -609h-107l96 609q2 10 2 29q0 55 -36.5 83.5t-100.5 28.5q-117 0 -166 -99l158 -31l-18 -44q-1 0 -6.5 1t-13 1.5t-12.5 0.5q-57 0 -67 -65l-15 -94q-2 -12 -2 -33q0 -9 0.5 -26t0.5 -27q0 -22 -2 -34q-7 -45 -41.5 -72 t-80.5 -27q-42 0 -68 22t-26 59q0 6 2 18q7 43 40.5 70t78.5 29q-5 17 -5 33q0 12 1 18l9 54q12 74 83 98l-135 24q25 85 103.5 144t193.5 59q139 0 200 -82z" />
<glyph unicode="[FontUni]" horiz-adv-x="840" d="M0 40v760q0 16 12 28t28 12h760q16 0 28 -12t12 -28v-760q0 -16 -12 -28t-28 -12h-128v420q0 106 -73 179t-179 73t-179 -73t-73 -179t73 -179t179 -73q25 0 52 5v-173h-432q-16 0 -28 12t-12 28zM315 420q0 44 30.5 74.5t74.5 30.5t74.5 -30.5t30.5 -74.5t-30.5 -74.5 t-74.5 -30.5t-74.5 30.5t-30.5 74.5z" />
<glyph />
<glyph />
<glyph unicode="&#x9;" horiz-adv-x="330" />
<glyph unicode=" "  horiz-adv-x="330" />
<glyph unicode="&#x09;" horiz-adv-x="330" />
<glyph unicode="&#xa0;" horiz-adv-x="330" />
<glyph unicode="!" horiz-adv-x="330" d="M128 144q31 0 50 -16.5t19 -44.5q0 -9 -1 -13q-5 -34 -31 -54t-61 -20q-31 0 -50 16.5t-19 44.5q0 9 1 13q5 34 31 54t61 20zM164 810h138l-114 -540h-80z" />
<glyph unicode="&#x22;" horiz-adv-x="540" d="M188 900h110l-75 -360h-73zM408 900h110l-75 -360h-73z" />
<glyph unicode="#" horiz-adv-x="810" d="M23 206l12 78h136l92 212h-134l12 78h155l88 206h93l-88 -206h194l88 206h93l-88 -206h115l-12 -78h-136l-92 -212h134l-12 -78h-155l-88 -206h-93l88 206h-194l-88 -206h-93l88 206h-115zM356 496l-92 -212h194l92 212h-194z" />
<glyph unicode="$" horiz-adv-x="660" d="M29 185l118 7q0 -51 36 -85.5t99 -34.5q72 0 117.5 33t55.5 98q2 16 2 23q0 69 -73 97q-52 17 -164 65q-113 50 -113 159q0 16 3 34q13 82 78.5 141.5t168.5 69.5l18 108h86l-18 -109q48 -7 84 -28.5t55 -50.5t27.5 -57t8.5 -55l-118 -9q0 51 -30.5 84t-86.5 33 q-59 0 -102.5 -32.5t-53.5 -94.5q-2 -12 -2 -18q0 -59 78 -92q116 -49 154 -62q118 -41 118 -164q0 -19 -3 -42q-13 -83 -80 -143.5t-176 -71.5l-17 -108h-86l17 108q-54 6 -95 27t-63 50.5t-32.5 59t-10.5 58.5v2z" />
<glyph unicode="%" horiz-adv-x="780" d="M15 0l1 6l679 774h74l-1 -6l-679 -774h-74zM57 576l3 18q6 36 16.5 67t29.5 62t51 49t73 18q113 0 113 -136q0 -28 -5 -60l-3 -18q-6 -36 -16.5 -67t-29.5 -62t-51 -49t-73 -18q-113 0 -113 136q0 28 5 60zM173 432q30 0 54.5 37.5t35.5 106.5l3 18q5 35 5 57 q0 87 -49 87q-30 0 -54.5 -37.5t-35.5 -106.5l-3 -18q-5 -35 -5 -57q0 -87 49 -87zM445 186l3 18q6 36 16.5 67t29.5 62t51 49t73 18q113 0 113 -136q0 -28 -5 -60l-3 -18q-6 -36 -16.5 -67t-29.5 -62t-51 -49t-73 -18q-113 0 -113 136q0 28 5 60zM562 42q30 0 54 37t35 107 l3 18q5 35 5 57q0 87 -49 87q-30 0 -54.5 -37.5t-35.5 -106.5l-3 -18q-5 -35 -5 -55q0 -43 13.5 -66t36.5 -23z" />
<glyph unicode="&#x26;" horiz-adv-x="810" d="M612 153l119 -147l-1 -6h-133q-26 33 -63 81q-131 -100 -284 -100q-109 0 -164.5 45t-55.5 116q0 19 2 29q12 76 76 136.5t163 118.5q-52 85 -52 166q0 20 2 30q13 83 70.5 130t138.5 47q76 0 114 -37t38 -91q0 -8 -2 -24q-21 -133 -178 -232q27 -35 157 -196 q59 78 88 191l98 -14q-33 -132 -133 -243zM486 143q-165 215 -170 221q-153 -98 -167 -193q-2 -14 -2 -20q0 -40 30.5 -61.5t86.5 -21.5q126 0 222 75zM417 722q-39 0 -63 -29t-31 -74q-2 -14 -2 -21q0 -56 38 -120q106 75 121 169q1 6 1 16q0 28 -17 43.5t-47 15.5z" />
<glyph unicode="'" horiz-adv-x="330" d="M193 900h110l-75 -360h-73z" />
<glyph unicode="(" horiz-adv-x="390" d="M67 390q49 309 266 521l68 -29q-181 -185 -230 -492q-13 -82 -13 -162q0 -199 87 -330l-77 -29q-113 160 -113 378q0 68 12 143z" />
<glyph unicode=")" horiz-adv-x="390" d="M327 390q-49 -308 -267 -521l-67 29q181 185 230 492q13 82 13 162q0 199 -87 330l76 29q113 -160 113 -380q0 -74 -11 -141z" />
<glyph unicode="*" horiz-adv-x="570" d="M95 690l45 95l168 -80l10 195h100l-52 -195l191 80l16 -95l-198 -40l109 -146l-90 -58l-71 170l-126 -170l-71 58l154 146z" />
<glyph unicode="+" horiz-adv-x="600" d="M81 320l12 80h156l26 160h107l-26 -160h157l-12 -80h-157l-26 -160h-107l26 160h-156z" />
<glyph unicode="," horiz-adv-x="330" d="M36 68q5 34 30.5 56t61.5 22q40 0 59.5 -24.5t19.5 -62.5q0 -9 -2 -27q-12 -76 -62 -135t-115 -97l-27 47q92 53 121 151q-12 -2 -21 -2q-30 0 -48 16t-18 43q0 9 1 13z" />
<glyph unicode="-" horiz-adv-x="600" d="M94 403h420l-14 -86h-420z" />
<glyph unicode="." horiz-adv-x="330" d="M128 144q31 0 50 -16.5t19 -44.5q0 -9 -1 -13q-5 -34 -31 -54t-61 -20q-31 0 -50 16.5t-19 44.5q0 9 1 13q5 34 31 54t61 20z" />
<glyph unicode="/" horiz-adv-x="510" d="M-20 0l1 6l451 774h102l-1 -6l-450 -774h-103z" />
<glyph unicode="0" horiz-adv-x="660" d="M59 373l5 34q9 57 24 108t42 104.5t62 92t88 63t117 24.5q218 0 218 -267q0 -52 -11 -125l-5 -34q-9 -57 -23.5 -108t-41.5 -104.5t-62 -92t-88 -63t-117 -24.5q-62 0 -106 21.5t-68 60.5t-34.5 84.5t-10.5 101.5q0 51 11 124zM281 68q70 0 123.5 81t76.5 224l5 34 q10 60 10 115q0 91 -29.5 140.5t-83.5 49.5q-70 0 -124 -81t-77 -224l-5 -34q-10 -60 -10 -114q0 -91 30 -141t84 -50z" />
<glyph unicode="1" horiz-adv-x="660" d="M135 630l287 156l82 -9l-108 -684h149l-15 -93h-455l15 93h190l89 563l-198 -111z" />
<glyph unicode="2" horiz-adv-x="660" d="M17 44q8 50 32.5 97.5t53 81t73.5 69t75.5 55.5t76.5 48q78 47 120 87t51 95q3 15 3 30q0 46 -27 75.5t-90 29.5q-52 0 -94 -34t-58 -79l-119 11q24 68 98 128.5t185 60.5q66 0 112 -18t68 -48.5t31 -59.5t9 -61q0 -20 -3 -35q-7 -45 -30.5 -85.5t-60 -73.5t-65.5 -53.5 t-69 -44.5q-99 -60 -155 -109.5t-78 -117.5h389l-15 -93h-514q-1 7 -1 18q0 16 2 26z" />
<glyph unicode="3" horiz-adv-x="660" d="M1 131l119 22q6 -33 36.5 -59.5t97.5 -26.5q89 0 132.5 44t52.5 104q2 18 2 27q0 47 -31.5 76t-102.5 29h-105l14 86h93q58 0 105.5 39.5t57.5 104.5q3 15 3 30q0 46 -27 75.5t-90 29.5q-52 0 -94 -34t-58 -79l-118 11q24 68 97.5 128.5t184.5 60.5q66 0 112.5 -18.5 t68.5 -48.5t31 -59.5t9 -61.5q0 -4 -3 -34q-18 -112 -132 -175q56 -21 81 -62.5t25 -89.5q0 -11 -2 -29q-5 -28 -15 -56t-34.5 -62.5t-58 -60.5t-89 -43.5t-123.5 -17.5q-63 0 -111 16.5t-73.5 42.5t-38 48t-16.5 43z" />
<glyph unicode="4" horiz-adv-x="660" d="M362 197h-352v56l461 533l97 -9l-78 -494h125l-14 -86h-125l-31 -197h-114zM380 283l54 343l-292 -343h238z" />
<glyph unicode="5" horiz-adv-x="660" d="M21 131l120 22q17 -86 133 -86q47 0 82.5 15t56 41t32 53t16.5 58q4 30 4 46q0 122 -121 122q-48 0 -94.5 -28t-77.5 -66l-1 2l-1 -2l-80 46l82 426h450l-14 -86h-340l-49 -258q77 48 160 48q49 0 87 -13.5t60 -33.5t36 -48t19 -53.5t5 -52.5q0 -24 -3 -42 q-5 -29 -15.5 -59.5t-35 -68t-58.5 -65.5t-90 -47.5t-124 -19.5q-63 0 -111 16.5t-73.5 42.5t-38 48t-16.5 43z" />
<glyph unicode="6" horiz-adv-x="660" d="M67 297l22 139q7 46 17.5 87t35 94.5t57.5 91t88 64t123 26.5q50 0 89 -13t61 -30.5t37.5 -41.5t21 -41.5t7.5 -33.5l-118 -19q-15 92 -112 92q-147 0 -190 -276l-2 -11q73 58 172 58q107 0 158.5 -58.5t51.5 -144.5q0 -17 -4 -47q-17 -107 -97.5 -179.5t-204.5 -72.5 q-110 0 -165 60t-55 170q0 43 7 86zM181 269q-3 -30 -3 -55q0 -146 116 -146q64 0 111 41.5t60 123.5q3 21 3 40q0 59 -31 93.5t-93 34.5q-55 0 -99 -35t-64 -97z" />
<glyph unicode="7" horiz-adv-x="660" d="M114 687l15 93h511l-2 -65q-111 -124 -213 -312.5t-128 -352.5l-8 -50h-124l8 50q23 149 115.5 322t205.5 315h-380z" />
<glyph unicode="8" horiz-adv-x="660" d="M267 -19q-115 0 -181 53t-66 136q0 20 2 31q23 145 191 200q-99 47 -99 145q0 17 3 35q15 91 92.5 154.5t187.5 63.5q99 0 156 -52.5t57 -131.5q0 -16 -3 -34q-20 -126 -152 -180q130 -49 130 -164q0 -17 -3 -36q-15 -94 -101.5 -157t-213.5 -63zM280 66q74 0 123 35.5 t59 99.5q2 10 2 29q0 85 -89 113q-20 7 -48 17q-30 -9 -54 -17q-114 -33 -131 -142q-2 -18 -2 -26q0 -52 37 -80.5t103 -28.5zM383 713q-54 0 -96.5 -34t-52.5 -98q-2 -18 -2 -26q0 -41 21 -67.5t52 -35.5q6 -2 17.5 -6t17.5 -6q8 2 21 6.5t18 5.5q39 11 71 43.5t40 85.5 q2 10 2 28q0 51 -30.5 77.5t-78.5 26.5z" />
<glyph unicode="9" horiz-adv-x="660" d="M596 483l-22 -139q-58 -363 -320 -363q-50 0 -89 13t-61.5 31t-38 41.5t-21 41t-7.5 33.5l118 19q15 -92 113 -92q146 0 189 276l2 11q-72 -58 -172 -58q-106 0 -157.5 58.5t-51.5 144.5q0 26 4 47q17 107 97.5 179.5t204.5 72.5q110 0 164.5 -59.5t54.5 -169.5 q0 -44 -7 -87zM483 511q3 30 3 55q0 146 -116 146q-64 0 -111 -41.5t-60 -123.5q-3 -21 -3 -40q0 -59 31 -93.5t93 -34.5q55 0 99 35t64 97z" />
<glyph unicode=":" horiz-adv-x="330" d="M128 144q31 0 50 -16.5t19 -44.5q0 -9 -1 -13q-5 -34 -31 -54t-61 -20q-31 0 -50 16.5t-19 44.5q0 9 1 13q5 34 31 54t61 20zM194 564q31 0 50.5 -16.5t19.5 -44.5q0 -9 -1 -13q-5 -34 -31 -54t-61 -20q-31 0 -50 16.5t-19 44.5q0 9 1 13q5 34 30.5 54t60.5 20z" />
<glyph unicode=";" horiz-adv-x="330" d="M194 564q31 0 50.5 -16.5t19.5 -44.5q0 -9 -1 -13q-5 -34 -31 -54t-61 -20q-31 0 -50 16.5t-19 44.5q0 9 1 13q5 34 30.5 54t60.5 20zM36 68q5 34 30.5 56t61.5 22q40 0 59.5 -24.5t19.5 -62.5q0 -9 -2 -27q-12 -76 -62 -135t-115 -97l-27 47q92 53 121 151 q-12 -2 -21 -2q-30 0 -48 16t-18 43q0 9 1 13z" />
<glyph unicode="&#x3c;" horiz-adv-x="600" d="M82 328l5 32l5 32l436 240l8 -89l-342 -183l284 -183l-36 -89z" />
<glyph unicode="=" horiz-adv-x="600" d="M97 421l13 83h420l-13 -83h-420zM64 216l13 83h420l-13 -83h-420z" />
<glyph unicode="&#x3e;" horiz-adv-x="600" d="M512 392l-5 -32l-5 -32l-436 -240l-8 89l342 183l-284 183l36 89z" />
<glyph unicode="?" horiz-adv-x="570" d="M248 144q31 0 50 -16.5t19 -44.5q0 -9 -1 -13q-5 -34 -31 -54t-61 -20q-31 0 -50 16.5t-19 44.5q0 9 1 13q5 34 31 54t61 20zM97 647q12 79 83 130.5t176 51.5q90 0 141 -42.5t51 -116.5q0 -18 -3 -36q-7 -45 -34 -84t-60.5 -66.5t-67 -52.5t-58.5 -54.5t-30 -60.5 q-2 -14 -2 -21q0 -15 5 -33l-94 -11q-10 28 -10 51q0 7 2 21q7 43 31 78.5t54.5 61t60.5 49t53.5 54t28.5 65.5q2 20 2 26q0 44 -25 64t-63 20q-48 0 -81 -24t-40 -70q-2 -16 -2 -25q0 -21 5 -35l-118 -29q-8 27 -8 54q0 17 3 35z" />
<glyph unicode="@" horiz-adv-x="1020" d="M58 237q15 97 62.5 192.5t118.5 174t171.5 127.5t211.5 49q161 0 244 -87.5t83 -223.5q0 -36 -6 -72q-13 -84 -55 -165.5t-107.5 -138t-135.5 -56.5q-75 0 -81 70q-70 -75 -147 -75q-81 0 -118 45t-37 113q0 20 3 40q9 53 36.5 109.5t70.5 107.5t106 83.5t134 32.5 q57 0 83.5 -30t26.5 -73q0 -9 -2 -23q-7 -44 -45 -141q-32 -92 -40 -142q-3 -16 -3 -29q0 -30 22 -30q60 0 132.5 93.5t90.5 208.5q6 34 6 68q0 116 -68.5 186t-202.5 70q-91 0 -176.5 -42t-148.5 -110.5t-106 -155t-57 -176.5q-6 -41 -6 -78q0 -130 75 -210t228 -80 q45 0 100 17.5t85 33.5l29 -48q-38 -22 -100.5 -42t-122.5 -20q-93 0 -164 27.5t-113 76t-63 109t-21 131.5q0 34 7 83zM427 97q99 0 171 210q37 100 42 130q2 12 2 18q0 43 -40 43q-81 0 -157.5 -83.5t-92.5 -184.5q-3 -20 -3 -36q0 -46 21.5 -71.5t56.5 -25.5z" />
<glyph unicode="A" horiz-adv-x="750" d="M675 0h-136l-33 167h-330l-85 -167h-136l1 8l433 772h100l187 -772zM490 253l-74 385l-196 -385h270z" />
<glyph unicode="B" horiz-adv-x="745" d="M519 433q150 -44 150 -171q0 -18 -3 -36q-18 -110 -116 -172.5t-241 -62.5q-117 0 -279 9l124 780q144 9 251 9q108 0 177 -44t69 -123q0 -19 -2 -29q-18 -108 -130 -160zM381 450q55 6 97.5 40t51.5 93q2 16 2 21q0 100 -154 100q-14 0 -124 -5l-40 -253q98 4 167 4z M156 81q74 -4 152 -4q98 0 162.5 35.5t77.5 113.5q2 9 2 27q0 118 -195 118q-80 0 -154 -4z" />
<glyph unicode="C" horiz-adv-x="755" d="M64 406q9 58 28 111.5t52.5 106t79 90.5t111 61.5t144.5 23.5q71 0 125.5 -21t84 -54t44 -67.5t15.5 -67.5l-125 -12q-2 50 -42.5 90.5t-116.5 40.5q-111 0 -181.5 -80.5t-92.5 -221.5l-5 -32q-7 -43 -7 -87q0 -102 46.5 -158.5t138.5 -56.5q76 0 130 40.5t71 90.5 l121 -12q-11 -33 -37 -67.5t-66 -67.5t-101 -54t-132 -21q-82 0 -141.5 24.5t-92.5 68.5t-48 95t-15 113q0 50 7 92z" />
<glyph unicode="D" horiz-adv-x="770" d="M163 80q54 -2 82 -2q297 0 345 298l4 28q6 39 6 75q0 223 -256 223q-29 0 -83 -2zM154 780q111 9 204 9q79 0 141.5 -17t103.5 -45.5t67.5 -68.5t38 -84.5t11.5 -94.5q0 -37 -6 -75l-4 -28q-9 -59 -30.5 -112.5t-60.5 -104t-91.5 -87.5t-128.5 -59t-167 -22 q-41 0 -91.5 2t-80.5 5l-30 2z" />
<glyph unicode="E" horiz-adv-x="675" d="M30 0l124 780h515l-15 -93h-395l-41 -259h359l-14 -86h-359l-39 -249h410l-15 -93h-530z" />
<glyph unicode="F" horiz-adv-x="640" d="M30 0l124 780h505l-15 -93h-383l-41 -256h347l-14 -92h-347l-54 -339h-122z" />
<glyph unicode="G" horiz-adv-x="770" d="M407 302l13 86h291l-39 -251q-40 -61 -123 -108.5t-200 -47.5q-82 0 -141.5 24.5t-92.5 68.5t-48 95t-15 113q0 50 7 92l5 32q9 58 28 111.5t52.5 106t79 90.5t111 61.5t144.5 23.5q71 0 125.5 -21t84 -54t44 -67.5t15.5 -67.5l-124 -12q-2 50 -42.5 91t-117.5 41 q-113 0 -184 -80.5t-93 -222.5l-5 -32q-7 -43 -7 -87q0 -103 47 -159.5t141 -56.5q131 0 201 80l24 151h-181z" />
<glyph unicode="H" horiz-adv-x="790" d="M30 0l124 780h120l-55 -344h370l55 344h120l-124 -780h-120l54 344h-370l-54 -344h-120z" />
<glyph unicode="I" horiz-adv-x="320" d="M40 0l124 780h120l-124 -780h-120z" />
<glyph unicode="J" horiz-adv-x="520" d="M-18 138l122 9v-3q0 -38 19.5 -57.5t52.5 -19.5q83 0 99 97l98 616h121l-98 -616q-13 -77 -76 -130t-158 -53q-90 0 -135 46.5t-45 108.5v2z" />
<glyph unicode="K" horiz-adv-x="715" d="M30 0l124 780h116l-59 -372l387 372l132 -9l-1 -6l-351 -315l273 -444l-1 -6h-141l-220 369l-98 -88l-45 -281h-116z" />
<glyph unicode="L" horiz-adv-x="570" d="M30 0l124 780h122l-109 -687h333l-15 -93h-455z" />
<glyph unicode="M" horiz-adv-x="880" d="M730 0h-119l88 554l-259 -359h-58l-145 359l-88 -554h-119l122 769l102 11l176 -462l324 462l98 -11z" />
<glyph unicode="N" horiz-adv-x="790" d="M30 0l122 769l105 11l297 -587l93 587h117l-124 -780h-103l-297 587l-93 -587h-117z" />
<glyph unicode="O" horiz-adv-x="820" d="M59 372l6 36q9 58 27.5 111t52 105t78 90t110 61.5t144.5 23.5q82 0 141.5 -24.5t92 -68t47.5 -94.5t15 -112q0 -44 -8 -92l-6 -36q-9 -58 -27.5 -111t-52 -105t-78 -90t-110 -61.5t-144.5 -23.5q-82 0 -141.5 24.5t-92 68t-47.5 94.5t-15 112q0 44 8 92zM361 71 q112 0 182.5 80t92.5 221l6 36q7 43 7 87q0 102 -47 158t-140 56q-112 0 -182 -80t-92 -221l-6 -36q-7 -43 -7 -88q0 -102 46.5 -157.5t139.5 -55.5z" />
<glyph unicode="P" horiz-adv-x="710" d="M214 410q64 -4 126 -4q215 0 239 148q2 9 2 27q0 122 -194 122q-63 0 -127 -4zM200 323l-51 -323h-119l52 329l72 451q162 9 261 9q130 0 208 -52.5t78 -145.5q0 -17 -3 -37q-18 -110 -116 -172t-241 -62q-78 0 -141 3z" />
<glyph unicode="Q" horiz-adv-x="820" d="M59 372l6 36q9 58 27.5 111t52 105t78 90t110 61.5t144.5 23.5q82 0 141.5 -24.5t92 -68t47.5 -94.5t15 -112q0 -44 -8 -92l-6 -36q-25 -154 -106 -253l93 -83l-62 -68l-95 88q-99 -75 -242 -75q-82 0 -141.5 24.5t-92 68t-47.5 94.5t-15 112q0 44 8 92zM367 263l56 62 l150 -134q46 71 63 181l6 36q7 43 7 87q0 102 -47 158t-140 56q-112 0 -182 -80t-92 -221l-6 -36q-7 -43 -7 -88q0 -102 46.5 -157.5t139.5 -55.5q91 0 155 53z" />
<glyph unicode="R" horiz-adv-x="730" d="M295 320q-66 2 -95 3l-51 -323h-119l52 329l72 451q162 9 261 9q130 0 208 -52.5t78 -145.5q0 -17 -3 -37q-15 -93 -88 -152t-184 -76l215 -320l-1 -6h-136zM214 410q64 -4 126 -4q215 0 239 148q2 9 2 27q0 122 -194 122q-63 0 -127 -4z" />
<glyph unicode="S" horiz-adv-x="710" d="M23 179l122 17q1 -50 42 -89t119 -39q89 0 141.5 35t62.5 97q2 16 2 22q0 70 -81 95q-109 32 -192 64q-136 54 -136 168q0 20 2 30q15 96 103.5 158t213.5 62q63 0 113 -19t78 -49t42.5 -62.5t15.5 -63.5l-122 -17q-2 49 -38.5 86.5t-102.5 37.5q-76 0 -126.5 -35 t-59.5 -93q-1 -6 -1 -16q0 -34 23 -54t63 -36q44 -17 182 -62q60 -19 101 -61.5t41 -111.5q0 -17 -3 -37q-15 -98 -107 -161.5t-229 -63.5q-69 0 -123 19.5t-84 50t-45.5 63.5t-16.5 65z" />
<glyph unicode="T" horiz-adv-x="620" d="M79 691l15 89h560l-15 -89h-220l-109 -691h-120l109 691h-220z" />
<glyph unicode="U" horiz-adv-x="770" d="M58 240l86 540h122l-86 -540q-3 -18 -3 -35q0 -66 43 -100t116 -34q83 0 140 43.5t70 125.5l86 540h122l-86 -540q-18 -112 -113.5 -185t-232.5 -73q-124 0 -195.5 60.5t-71.5 157.5q0 19 3 40z" />
<glyph unicode="V" horiz-adv-x="750" d="M81 761l1 8l143 11l113 -632l315 632l139 -11l-1 -8l-426 -761h-100z" />
<glyph unicode="W" horiz-adv-x="1060" d="M1096 761l-349 -761h-104l-80 590l-266 -590h-104l-107 761l1 8l133 11l61 -612l259 592h100l73 -592l255 612l129 -11z" />
<glyph unicode="X" horiz-adv-x="740" d="M116 761l1 7l135 12l136 -290l228 290l131 -12l-1 -7l-302 -346l232 -409l-1 -6h-139l-175 319l-277 -319h-139l1 6l362 409z" />
<glyph unicode="Y" horiz-adv-x="670" d="M71 761l1 8l137 11l131 -368l249 368l133 -11l-1 -8l-339 -466l-47 -295h-120l47 295z" />
<glyph unicode="Z" horiz-adv-x="670" d="M-14 69l527 618h-403l15 93h555l-2 -69l-526 -618h438l-15 -93h-591z" />
<glyph unicode="[" horiz-adv-x="435" d="M41 -120l162 1020h225l-11 -69h-128l-140 -882h126l-11 -69h-223z" />
<glyph unicode="\" horiz-adv-x="510" d="M410 0h-103l-204 774l1 6h102l205 -774z" />
<glyph unicode="]" horiz-adv-x="435" d="M398 900l-162 -1020h-225l11 69h128l140 882h-126l11 69h223z" />
<glyph unicode="^" horiz-adv-x="630" d="M63 589l311 300h44l215 -300l-64 -40l-192 219l-262 -219z" />
<glyph unicode="_" horiz-adv-x="600" d="M-60 0h600l-14 -86h-600z" />
<glyph unicode="`" horiz-adv-x="390" d="M71 824l96 64l226 -299l-64 -40z" />
<glyph unicode="a" horiz-adv-x="625" d="M22 173q10 62 68 106t153 44q81 0 177 -10l16 106q2 18 2 25q0 47 -30.5 70t-82.5 23t-90.5 -29.5t-54.5 -83.5l-111 9q23 77 93 131.5t176 54.5q98 0 154.5 -46t56.5 -122q0 -15 -3 -32l-43 -276q-3 -17 -3 -30q0 -25 12.5 -37t42.5 -16l-40 -74q-98 12 -110 89 q-78 -89 -194 -89q-90 0 -141 40.5t-51 112.5q0 16 3 34zM415 245q-86 12 -176 12q-39 0 -70 -22.5t-37 -63.5q-2 -16 -2 -24q0 -47 30 -69.5t76 -22.5q123 0 173 155z" />
<glyph unicode="b" horiz-adv-x="675" d="M609 311l-3 -22q-9 -55 -30.5 -106t-57 -96.5t-90.5 -73t-122 -27.5q-111 0 -161 106l-24 -92h-96l128 810h110l-46 -292q84 96 188 96q109 0 159.5 -67t50.5 -168q0 -35 -6 -68zM194 374l-23 -148q6 -68 39 -112.5t96 -44.5q73 0 122 57t65 163l3 22q6 37 6 68 q0 74 -31.5 113t-91.5 39q-63 0 -110 -44.5t-75 -112.5z" />
<glyph unicode="c" horiz-adv-x="605" d="M40 287l5 26q7 44 21 85t40 82t61 71t87 49t115 19q57 0 100 -17t66.5 -43.5t35 -53.5t11.5 -53l-116 -10q-1 36 -30 65t-80 29q-76 0 -127 -59t-68 -164l-5 -26q-5 -29 -5 -64q0 -76 33.5 -117.5t96.5 -41.5q51 0 89 29t51 65l112 -10q-12 -36 -41.5 -71.5t-89.5 -65.5 t-134 -30q-125 0 -179.5 66.5t-54.5 167.5q0 37 6 72z" />
<glyph unicode="d" horiz-adv-x="680" d="M41 289l3 22q9 55 30.5 106t57 96.5t90.5 73t122 27.5q108 0 158 -99l46 295h110l-105 -667q-3 -17 -3 -30q0 -25 12.5 -37t42.5 -16l-40 -74q-112 15 -112 108q0 11 1 16q-90 -124 -209 -124q-109 0 -159.5 67t-50.5 168q0 35 6 68zM479 374q-6 68 -39 112.5t-96 44.5 q-73 0 -122 -57t-65 -163l-3 -22q-6 -37 -6 -68q0 -74 31.5 -113t91.5 -39q63 0 110 44.5t75 112.5z" />
<glyph unicode="e" horiz-adv-x="640" d="M40 286l5 28q9 56 30.5 106.5t58 97t96.5 74t135 27.5q108 0 164.5 -60t56.5 -152q0 -26 -4 -47q-5 -32 -21 -81h-411q-4 -28 -4 -58q0 -76 33.5 -118t97.5 -42q55 0 95 30t52 67l107 -10q-20 -60 -90 -113.5t-177 -53.5q-123 0 -176.5 65.5t-53.5 166.5q0 37 6 73z M163 351h312q0 1 0.5 5t0.5 5q4 21 4 45q0 66 -34.5 99.5t-93.5 33.5q-70 0 -119 -49.5t-70 -138.5z" />
<glyph unicode="f" horiz-adv-x="400" d="M54 528l11 72h90l12 77q9 56 55.5 104t131.5 48t135 -46l-58 -61q-37 28 -81 28q-29 0 -48.5 -20t-24.5 -53l-12 -77h150l-11 -72h-147l-84 -528h-113l84 528h-90z" />
<glyph unicode="g" horiz-adv-x="670" d="M45 315q8 53 29.5 103.5t57 95.5t90.5 72.5t122 27.5q110 0 161 -108l24 94h96l-99 -626q-14 -89 -89.5 -146t-184.5 -57q-98 0 -155 37t-65 78l110 29q4 -23 35 -44.5t87 -21.5q63 0 104.5 31.5t51.5 93.5l23 148q-84 -106 -193 -106q-57 0 -99 20t-65.5 54t-34.5 74.5 t-11 86.5q0 29 5 64zM479 372q-6 68 -39 113.5t-96 45.5q-72 0 -120.5 -57t-65.5 -159q-6 -35 -6 -65q0 -72 32 -111.5t92 -39.5q63 0 110 45.5t75 113.5z" />
<glyph unicode="h" horiz-adv-x="665" d="M25 0l128 810h110l-57 -362q108 166 253 166q73 0 109 -43.5t36 -111.5q0 -21 -3 -43l-66 -416h-113l65 412q3 16 3 31q0 81 -75 81q-69 0 -136 -69.5t-94 -156.5l-47 -298h-113z" />
<glyph unicode="i" horiz-adv-x="300" d="M33 0l95 600h114l-95 -600h-114zM225 854q31 0 50.5 -16.5t19.5 -44.5q0 -9 -1 -13q-5 -34 -31 -54t-61 -20q-31 0 -50 16.5t-19 44.5q0 9 1 13q5 34 30.5 54t60.5 20z" />
<glyph unicode="j" horiz-adv-x="310" d="M-89 -151q57 18 89 48.5t41 88.5l97 614h114l-98 -621q-13 -79 -73.5 -130t-144.5 -73zM235 854q31 0 50.5 -16.5t19.5 -44.5q0 -9 -1 -13q-5 -34 -31 -54t-61 -20q-31 0 -50 16.5t-19 44.5q0 9 1 13q5 34 30.5 54t60.5 20z" />
<glyph unicode="k" horiz-adv-x="605" d="M35 0l128 810h108l-76 -481l286 271l123 -7l-1 -5l-276 -244l214 -339l-1 -5h-130l-165 271l-69 -60l-33 -211h-108z" />
<glyph unicode="l" horiz-adv-x="315" d="M50 128l108 682h113l-106 -672q-1 -6 -1 -16q0 -30 22.5 -44t68.5 -18l-34 -74q-173 14 -173 118q0 8 2 24z" />
<glyph unicode="m" horiz-adv-x="945" d="M109 594l105 9l-6 -124q81 131 201 131q64 0 98 -35.5t39 -94.5q81 130 201 130q69 0 103.5 -41.5t34.5 -108.5q0 -14 -4 -44l-66 -416h-113l65 412q3 19 3 34q0 75 -67 75q-55 0 -101.5 -58t-73.5 -141l-51 -322h-114l65 412q3 19 3 35q0 74 -66 74q-55 0 -102 -58.5 t-74 -141.5l-51 -321h-113l67 420z" />
<glyph unicode="n" horiz-adv-x="655" d="M25 0l67 420l17 174l105 9l-8 -150q102 161 244 161q72 0 108 -43t36 -112q0 -22 -3 -43l-66 -416h-113l65 412q3 16 3 31q0 42 -20.5 61.5t-53.5 19.5q-67 0 -131 -69t-90 -156l-47 -299h-113z" />
<glyph unicode="o" horiz-adv-x="660" d="M40 286l5 28q9 56 30 106.5t57.5 97t97.5 74t138 27.5q65 0 112 -19.5t72.5 -53.5t37 -73.5t11.5 -86.5q0 -38 -6 -72l-5 -28q-9 -56 -30 -106.5t-57.5 -97t-97.5 -74t-138 -27.5q-65 0 -112 19.5t-72.5 53.5t-37 73.5t-11.5 86.5q0 38 6 72zM280 63q78 0 129 58.5 t68 164.5l5 28q6 35 6 66q0 76 -34 116.5t-99 40.5q-78 0 -129 -58.5t-68 -164.5l-5 -28q-6 -34 -6 -66q0 -76 34 -116.5t99 -40.5z" />
<glyph unicode="p" horiz-adv-x="675" d="M609 311l-3 -22q-9 -55 -30.5 -106t-57 -96.5t-90.5 -73t-122 -27.5q-104 0 -155 94l-46 -290h-113l100 630l17 174l105 9l-6 -95q86 106 197 106q109 0 159.5 -67t50.5 -168q0 -35 -6 -68zM172 215q7 -64 40.5 -105t93.5 -41q73 0 122 57t65 163l3 22q6 37 6 68 q0 74 -31.5 113t-91.5 39t-106.5 -41t-73.5 -105z" />
<glyph unicode="q" horiz-adv-x="675" d="M41 289l3 22q9 55 30.5 106t57 96.5t90.5 73t122 27.5q111 0 161 -106l24 92h96l-128 -810h-110l46 292q-84 -96 -188 -96q-109 0 -159.5 67t-50.5 168q0 35 6 68zM456 226l23 148q-6 68 -39 112.5t-96 44.5q-73 0 -122 -57t-65 -163l-3 -22q-6 -37 -6 -68 q0 -74 31.5 -113t91.5 -39q63 0 110 44.5t75 112.5z" />
<glyph unicode="r" horiz-adv-x="435" d="M104 592l97 11l12 -138q71 149 188 149q37 0 69 -15l-58 -94q-21 12 -44 12q-52 0 -94.5 -58t-65.5 -141l-50 -318h-113l69 435z" />
<glyph unicode="s" horiz-adv-x="570" d="M7 139l112 14q0 -37 31 -64.5t89 -27.5q61 0 98.5 26t44.5 69q1 5 1 15q0 51 -60 70q-105 32 -144 47q-110 43 -110 131q0 7 2 25q12 76 81.5 125.5t170.5 49.5q99 0 149 -48.5t51 -105.5l-113 -15q0 37 -25 63t-75 26q-53 0 -88 -24.5t-42 -66.5q-1 -4 -1 -11 q0 -45 62 -67q23 -8 138 -44q113 -36 113 -135q0 -20 -2 -31q-12 -78 -85.5 -128.5t-182.5 -50.5q-107 0 -160 49.5t-55 108.5z" />
<glyph unicode="t" horiz-adv-x="415" d="M54 528l11 72h94l20 126l108 9l-21 -135h149l-11 -72h-147l-61 -384q-3 -18 -3 -31q0 -26 11 -36t35 -10q57 0 99 25l15 -74q-64 -32 -141 -32q-135 0 -135 109q0 15 3 33l64 400h-90z" />
<glyph unicode="u" horiz-adv-x="620" d="M35 187l65 413h113l-65 -413q-2 -10 -2 -27q0 -48 31 -72.5t83 -24.5q59 0 100.5 31t51.5 93l65 413h113l-65 -413q-14 -88 -90.5 -147t-187.5 -59q-100 0 -157.5 48.5t-57.5 125.5q0 15 3 32z" />
<glyph unicode="v" horiz-adv-x="600" d="M48 585l1 6l124 9l88 -467l236 467l122 -9l-1 -6l-332 -585h-92z" />
<glyph unicode="w" horiz-adv-x="830" d="M843 585l-268 -585h-97l-55 428l-191 -428h-97l-82 585l1 6l122 9l41 -441l186 426h90l50 -426l181 441l120 -9z" />
<glyph unicode="x" horiz-adv-x="600" d="M83 585l1 6l121 9l97 -206l163 206l119 -9l-1 -6l-230 -262l178 -318l-1 -5h-127l-126 234l-200 -234h-127l1 5l278 318z" />
<glyph unicode="y" horiz-adv-x="600" d="M48 585l1 6l124 9l88 -468l236 468l122 -9l-1 -6l-342 -609q-3 -5 -17 -28t-18 -29.5t-17.5 -27t-20.5 -28t-20.5 -24t-23 -23.5t-24.5 -18t-28 -15.5t-30 -8t-34 -3.5q-62 0 -108 42l66 68l6 -6l6.5 -6.5t6 -5.5t7.5 -5.5l7 -3.5t8 -3t9 -1q31 0 61 35.5t76 111.5l5 9z " />
<glyph unicode="z" horiz-adv-x="530" d="M-21 57l389 464h-293l12 79h435l-2 -57l-388 -464h321l-13 -79h-463z" />
<glyph unicode="{" horiz-adv-x="390" d="M44 370l3 20l3 20q41 8 74.5 39t42.5 89q1 6 1 20q0 16 -3.5 63t-3.5 71t3 43q12 72 61 118.5t123 46.5h50l-10 -59h-37q-70 0 -88 -113q-2 -11 -2 -40q0 -18 1.5 -60t1.5 -60q0 -29 -2 -40q-17 -103 -108 -138q67 -29 67 -107q0 -15 -3 -31q-4 -26 -31 -100.5t-31 -99.5 q-3 -22 -3 -40q0 -73 55 -73h37l-9 -59h-50q-64 0 -99 36t-35 95q0 16 3 34q5 32 33.5 106t31.5 91q2 10 2 28q0 45 -22.5 69t-55.5 31z" />
<glyph unicode="|" horiz-adv-x="360" d="M51 -120l162 1020h100l-162 -1020h-100z" />
<glyph unicode="}" horiz-adv-x="390" d="M350 410l-3 -20l-3 -20q-41 -8 -75 -39t-43 -89q-1 -6 -1 -20q0 -16 3.5 -63t3.5 -71t-3 -43q-12 -72 -60.5 -118.5t-122.5 -46.5h-50l9 59h37q70 0 88 113q3 18 3 43q0 17 -2 56.5t-2 57.5q0 25 3 43q17 103 108 138q-67 29 -67 107q0 15 3 31q4 26 30.5 100.5 t30.5 99.5q3 22 3 40q0 73 -55 73h-37l10 59h50q64 0 98.5 -36t34.5 -95q0 -16 -3 -34q-5 -32 -33.5 -106t-31.5 -91q-2 -10 -2 -27q0 -45 23 -69.5t56 -31.5z" />
<glyph unicode="~" horiz-adv-x="600" d="M36 324q18 35 32.5 58.5t37.5 51t51.5 41.5t61.5 14q28 0 54 -13.5t36.5 -24t28.5 -31.5q39 -47 63 -47q27 0 53 30.5t44 74.5l69 -22q-17 -34 -32.5 -58.5t-38 -51.5t-51 -41t-61.5 -14q-28 0 -54 13.5t-36 24t-28 31.5q-39 47 -64 47q-50 0 -96 -105z" />
<glyph unicode="&#xa1;" horiz-adv-x="330" d="M141 -210h-138l114 540h80zM177 456q-31 0 -50 16.5t-19 44.5q0 9 1 13q5 34 31 54t61 20q31 0 50 -16.5t19 -44.5q0 -9 -1 -13q-5 -34 -31 -54t-61 -20z" />
<glyph unicode="&#xa2;" horiz-adv-x="605" d="M45 318l4 26q8 52 27 99.5t51.5 92.5t85.5 75t120 37l21 133h86l-22 -134q85 -12 126 -61.5t42 -102.5l-115 -10q-1 36 -30 65t-80 29q-76 0 -128 -59t-68 -164l-4 -26q-5 -29 -5 -64q0 -76 33.5 -117.5t96.5 -41.5q51 0 89 29t51 65l112 -10q-18 -53 -74.5 -102.5 t-145.5 -61.5l-21 -134h-86l21 133q-103 11 -148 75.5t-45 157.5q0 37 6 71z" />
<glyph unicode="&#xa3;" horiz-adv-x="660" d="M72 357l10 66h98l21 130q3 22 8.5 44.5t23 61.5t42 67.5t69.5 50.5t102 22q45 0 79 -13.5t52 -32t29.5 -43.5t15 -41t4.5 -32l-114 -13q-6 93 -79 93q-35 0 -61 -27.5t-38.5 -61.5t-18.5 -75l-21 -130h218l-10 -66h-218l-10 -59q-22 -140 -97 -216h381l-13 -82h-519v69 q57 40 88.5 91t45.5 138l10 59h-98z" />
<glyph unicode="&#xa4;" horiz-adv-x="720" d="M624 150l-71 -60l-83 99q-65 -37 -146 -37q-82 0 -134 37l-115 -99l-51 60l113 98q-26 43 -26 102q0 19 3 40q12 78 68 142l-82 98l70 60l84 -99q65 37 145 37q83 0 135 -37l114 99l52 -60l-114 -98q27 -46 27 -104q0 -18 -3 -38q-12 -77 -69 -142zM338 238 q63 0 108.5 40.5t56.5 111.5q3 18 3 33q0 56 -32.5 87.5t-87.5 31.5q-63 0 -108.5 -40.5t-56.5 -111.5q-3 -18 -3 -33q0 -56 32.5 -87.5t87.5 -31.5z" />
<glyph unicode="&#xa5;" horiz-adv-x="660" d="M89 312l11 66h130l-144 383l1 8l137 11l111 -368l229 368l133 -11l-1 -8l-266 -383h130l-11 -66h-165l-6 -10l-12 -74h170l-10 -66h-170l-26 -162h-120l26 162h-170l10 66h170l12 74l-4 10h-165z" />
<glyph unicode="&#xa6;" horiz-adv-x="360" d="M141 450l72 450h100l-72 -450h-100zM51 -120l71 450h100l-71 -450h-100z" />
<glyph unicode="&#xa7;" horiz-adv-x="660" d="M139 615q15 91 89 152.5t184 61.5q56 0 98 -19t64.5 -49.5t33.5 -62t11 -62.5v-2l-110 -9q0 52 -27.5 88.5t-81.5 36.5q-59 0 -100 -35.5t-51 -99.5q-2 -16 -2 -22q0 -59 69 -93q85 -40 145 -61q49 -18 81.5 -59.5t32.5 -104.5q0 -18 -3 -39q-12 -75 -81 -135 q15 -32 15 -73q0 -18 -3 -39q-15 -93 -92 -155.5t-196 -62.5q-49 0 -89 13.5t-64.5 34t-41.5 47.5t-23.5 53t-6.5 51l112 9v-3q0 -52 31 -89t94 -37q143 0 166 139q2 10 2 29q0 69 -67 95q-71 29 -150 66q-45 21 -77.5 61.5t-32.5 98.5q0 20 2 30q13 82 87 135 q-20 37 -20 80q0 20 2 31zM435 169q20 26 27 67q2 10 2 29q0 70 -64 95q-95 39 -153 66q-17 9 -32 18q-29 -34 -35 -75q-2 -14 -2 -20q0 -26 13.5 -46.5t26.5 -29t35 -19.5q114 -53 138 -62q29 -12 44 -23z" />
<glyph unicode="&#xa8;" horiz-adv-x="510" d="M124 780q5 31 28.5 49.5t55.5 18.5q29 0 47 -15t18 -41q0 -8 -1 -12q-5 -31 -29 -49.5t-56 -18.5q-29 0 -46.5 15t-17.5 41q0 8 1 12zM367 780q5 31 28.5 49.5t55.5 18.5q29 0 46.5 -15t17.5 -41q0 -8 -1 -12q-5 -31 -28.5 -49.5t-55.5 -18.5q-29 0 -46.5 15t-17.5 41 q0 8 1 12z" />
<glyph unicode="&#xa9;" horiz-adv-x="1020" d="M342 411q6 36 20 69t38 63t63.5 47.5t89.5 17.5q69 0 102.5 -34t35.5 -73l-76 -7q-1 23 -18.5 41t-51.5 18q-50 0 -83 -37t-44 -105l-2 -16q-4 -30 -4 -42q0 -100 85 -100q34 0 57.5 18t31.5 41l74 -7q-13 -38 -58 -72.5t-114 -34.5q-81 0 -116.5 43t-35.5 109q0 15 4 45 zM449 -9q-169 0 -266.5 94t-97.5 246q0 35 6 74q28 180 163 297t326 117q169 0 266 -93.5t97 -245.5q0 -36 -6 -75q-28 -180 -162.5 -297t-325.5 -117zM458 49q161 0 274 98t139 258q6 36 6 70q0 131 -82 208.5t-224 77.5q-161 0 -274.5 -98t-139.5 -258q-6 -36 -6 -69 q0 -131 82.5 -209t224.5 -78z" />
<glyph unicode="&#xaa;" horiz-adv-x="313" d="M57 596q5 31 35 54t80 23q35 0 81 -4l8 49q1 4 1 12q0 41 -51 41q-47 0 -63 -51l-68 5q11 38 47.5 66.5t91.5 28.5q51 0 80 -24t29 -62q0 -11 -1 -16l-22 -134q-1 -6 -1 -15q0 -11 5.5 -16.5t19.5 -6.5l-23 -44q-49 5 -57 40q-38 -40 -94 -40q-47 0 -73 21t-26 57 q0 10 1 16zM249 628q-66 6 -80 6q-16 0 -29.5 -9.5t-16.5 -28.5q-1 -4 -1 -11q0 -41 47 -41q55 0 78 68z" />
<glyph unicode="&#xab;" horiz-adv-x="780" d="M69 338l7 44l341 263l31 -57l-256 -228l184 -228l-49 -57zM359 338l7 44l341 263l31 -57l-256 -228l184 -228l-49 -57z" />
<glyph unicode="&#xac;" horiz-adv-x="600" d="M80 317l14 86h420l-34 -213h-107l20 127h-313z" />
<glyph unicode="&#xad;" horiz-adv-x="450" d="M79 403h300l-14 -86h-300z" />
<glyph unicode="&#xae;" horiz-adv-x="870" d="M417 266q-137 0 -215.5 76t-78.5 198q0 25 5 60q23 144 132 239t263 95q137 0 215.5 -76t78.5 -198q0 -25 -5 -60q-23 -144 -132 -239t-263 -95zM424 312q130 0 222 79t112 209q5 32 5 56q0 106 -66 169t-181 63q-130 0 -222 -79t-112 -209q-5 -32 -5 -56q0 -106 66 -169 t181 -63zM434 555q-6 0 -17 0.5t-16 0.5l-25 -156h-72l26 160l36 230q1 0 9.5 0.5t22 1t29.5 1t36 1t38 0.5q68 0 107.5 -27t39.5 -74q0 -6 -2 -18q-7 -45 -42.5 -75.5t-90.5 -40.5l104 -155l-1 -4h-82zM409 608q28 -2 54 -2q100 0 111 69q1 4 1 12q0 56 -90 56 q-27 0 -55 -2z" />
<glyph unicode="&#xaf;" horiz-adv-x="510" d="M118 744l11 72h390l-11 -72h-390z" />
<glyph unicode="&#xb0;" horiz-adv-x="330" d="M209 657q-53 0 -82.5 29.5t-29.5 73.5q0 6 2 20q8 51 49 87t100 36q53 0 83 -30t30 -74q0 -5 -2 -19q-8 -50 -49.5 -86.5t-100.5 -36.5zM217 710q28 0 49.5 18.5t26.5 51.5q1 5 1 15q0 26 -15 40.5t-39 14.5q-28 0 -49 -18.5t-26 -51.5q-1 -5 -1 -15q0 -26 14.5 -40.5 t38.5 -14.5z" />
<glyph unicode="&#xb1;" horiz-adv-x="600" d="M59 183l13 80h420l-13 -80h-420zM102 457l13 80h160l18 115h100l-18 -115h160l-13 -80h-160l-18 -115h-100l18 115h-160z" />
<glyph unicode="&#xb2;" horiz-adv-x="330" d="M56 536q5 31 21 58.5t41 50t45.5 36.5t48.5 31q37 22 56.5 41t23.5 44q1 5 1 15q0 46 -51 46q-22 0 -41 -15.5t-26 -36.5l-72 8q13 35 50.5 65.5t95.5 30.5q65 0 89.5 -29.5t24.5 -66.5q0 -12 -1 -17q-11 -69 -113 -129q-45 -27 -71 -50t-38 -52h188l-9 -56h-263 q-2 11 0 26z" />
<glyph unicode="&#xb3;" horiz-adv-x="330" d="M47 577l72 13q11 -38 60 -38q73 0 83 66q1 4 1 13q0 47 -60 47h-56l9 52h48q29 0 50.5 18t25.5 48q1 5 1 14q0 48 -52 48q-22 0 -41 -15.5t-26 -36.5l-71 7q13 35 50 66t95 31q64 0 89 -29.5t25 -67.5q0 -12 -1 -17q-9 -54 -62 -85q49 -19 49 -74q0 -10 -1 -14 q-3 -18 -11.5 -36.5t-26 -39.5t-50 -34t-76.5 -13q-60 0 -89 25.5t-35 51.5z" />
<glyph unicode="&#xb4;" horiz-adv-x="390" d="M461 824l-346 -275l-52 40l322 299z" />
<glyph unicode="&#xb5;" horiz-adv-x="665" d="M120 600h113l-47 -298q0 -87 44.5 -156.5t113.5 -69.5q40 0 69.5 26.5t38.5 85.5l65 412h113l-66 -416q-13 -84 -66 -141t-138 -57q-79 0 -128 46.5t-73 119.5l-57 -362h-110z" />
<glyph unicode="&#xb6;" horiz-adv-x="725" d="M320 410l46 289q-155 -22 -174 -145q-2 -18 -2 -26q0 -99 130 -118zM576 698q-8 0 -27.5 1.5t-41 2.5t-41.5 1l-144 -913h-100l84 532q-110 10 -173 61t-63 135q0 18 3 36q18 110 116 172.5t241 62.5q97 0 259 -9l-157 -990h-100z" />
<glyph unicode="&#xb7;" horiz-adv-x="330" d="M174 434q31 0 50 -16.5t19 -44.5q0 -9 -1 -13q-5 -34 -31 -54t-61 -20q-31 0 -50 16.5t-19 44.5q0 9 1 13q5 34 31 54t61 20z" />
<glyph unicode="&#xb8;" horiz-adv-x="330" d="M-54 -278q153 35 163 103v5q0 33 -63 33q-18 0 -45 -5l-28 34l87 123h64l-71 -100h14q55 0 85.5 -19.5t30.5 -55.5q0 -10 -1 -15q-17 -106 -219 -153q-5 -1 -7 -2z" />
<glyph unicode="&#xb9;" horiz-adv-x="330" d="M115 825l144 78l49 -5l-52 -332h73l-9 -56h-235l9 56h92l41 259l-90 -51z" />
<glyph unicode="&#xba;" horiz-adv-x="330" d="M68 654l1 12q10 62 50 108t116 46q64 0 91.5 -33.5t27.5 -84.5q0 -18 -3 -36l-1 -12q-10 -62 -50 -108t-116 -46q-64 0 -91.5 33.5t-27.5 84.5q0 18 3 36zM192 549q34 0 58 27.5t32 77.5l1 12q3 18 3 32q0 35 -15.5 54t-43.5 19q-34 0 -58 -27.5t-32 -77.5l-1 -12 q-3 -18 -3 -32q0 -35 15.5 -54t43.5 -19z" />
<glyph unicode="&#xbb;" horiz-adv-x="780" d="M706 382l-7 -44l-342 -263l-31 57l256 228l-184 228l49 57zM416 382l-7 -44l-342 -263l-31 57l256 228l-184 228l49 57z" />
<glyph unicode="&#xbc;" horiz-adv-x="780" d="M15 0l1 6l679 774h74l-1 -6l-679 -774h-74zM96 705l144 78l49 -5l-52 -332h73l-9 -56h-235l9 56h92l41 259l-90 -51zM593 94h-172l1 34l227 265l58 -5l-38 -242h63l-8 -52h-63l-15 -94h-68zM603 146l24 150l-127 -150h103z" />
<glyph unicode="&#xbd;" horiz-adv-x="780" d="M96 705l144 78l49 -5l-52 -332h73l-9 -56h-235l9 56h92l41 259l-90 -51zM15 0l1 6l679 774h74l-1 -6l-679 -774h-74zM425 26q5 31 21 58.5t41 50t45.5 36.5t48.5 31q37 22 56.5 41t23.5 44q1 5 1 15q0 46 -51 46q-22 0 -41 -15.5t-26 -36.5l-72 8q13 35 50.5 65.5 t95.5 30.5q65 0 89.5 -29.5t24.5 -66.5q0 -12 -1 -17q-11 -69 -113 -129q-45 -27 -71 -50t-38 -52h188l-9 -56h-263q-2 11 0 26z" />
<glyph unicode="&#xbe;" horiz-adv-x="780" d="M593 94h-172l1 34l227 265l58 -5l-38 -242h63l-8 -52h-63l-15 -94h-68zM603 146l24 150l-127 -150h103zM15 0l1 6l679 774h74l-1 -6l-679 -774h-74zM28 457l72 13q11 -38 60 -38q73 0 83 66q1 4 1 13q0 47 -60 47h-56l9 52h48q29 0 50.5 18t25.5 48q1 5 1 14q0 48 -52 48 q-22 0 -41 -15.5t-26 -36.5l-71 7q13 35 50 66t95 31q64 0 89 -29.5t25 -67.5q0 -12 -1 -17q-9 -54 -62 -85q49 -19 49 -74q0 -10 -1 -14q-3 -18 -11.5 -36.5t-26 -39.5t-50 -34t-76.5 -13q-60 0 -89 25.5t-35 51.5z" />
<glyph unicode="&#xbf;" horiz-adv-x="570" d="M448 -47q-12 -79 -83 -130.5t-176 -51.5q-90 0 -141 42.5t-51 116.5q0 18 3 36q7 45 34 84t60.5 66.5t67 52.5t58.5 54.5t30 60.5q2 14 2 21q0 15 -5 33l94 11q10 -28 10 -51q0 -7 -2 -21q-7 -43 -31 -78.5t-54.5 -61t-60.5 -49t-53.5 -54t-28.5 -65.5q-2 -20 -2 -26 q0 -44 25 -64t63 -20q48 0 81 24t40 70q2 16 2 25q0 21 -5 35l118 29q8 -27 8 -54q0 -17 -3 -35zM297 456q-31 0 -50 16.5t-19 44.5q0 9 1 13q5 34 31 54t61 20q31 0 50 -16.5t19 -44.5q0 -9 -1 -13q-5 -34 -31 -54t-61 -20z" />
<glyph unicode="&#xc0;" horiz-adv-x="750" d="M315 978l61 77l190 -165l-38 -45zM675 0h-136l-33 167h-330l-85 -167h-136l1 8l433 772h100l187 -772zM490 253l-74 385l-196 -385h270z" />
<glyph unicode="&#xc1;" horiz-adv-x="750" d="M625 978l-255 -133l-24 45l242 165zM675 0h-136l-33 167h-330l-85 -167h-136l1 8l433 772h100l187 -772zM490 253l-74 385l-196 -385h270z" />
<glyph unicode="&#xc2;" horiz-adv-x="750" d="M258 867l203 148h30l157 -148l-40 -37l-146 97l-176 -97zM675 0h-136l-33 167h-330l-85 -167h-136l1 8l433 772h100l187 -772zM490 253l-74 385l-196 -385h270z" />
<glyph unicode="&#xc3;" horiz-adv-x="750" d="M261 888q15 26 26 43.5t28.5 37.5t38.5 30.5t45 10.5t45.5 -10.5t28 -17l23.5 -23.5q3 -4 9 -11t9.5 -10.5t8 -7.5t8.5 -6t9 -2t10 2t10 6t9 7.5t9 10.5t8 11t8 12.5t6.5 11.5l5.5 11l5 9l55 -21q-29 -55 -61.5 -88.5t-77.5 -33.5q-10 0 -19 1.5t-15.5 3.5t-14.5 6.5 t-11.5 6.5t-11 8.5t-9 8t-8.5 9.5l-7 7q-3 3 -9.5 10.5t-9.5 11t-8 8t-9 6t-9 1.5q-9 0 -17.5 -5.5t-16.5 -17t-13.5 -19t-13.5 -22.5t-9 -17zM675 0h-136l-33 167h-330l-85 -167h-136l1 8l433 772h100l187 -772zM490 253l-74 385l-196 -385h270z" />
<glyph unicode="&#xc4;" horiz-adv-x="750" d="M268 930q5 31 28.5 49.5t55.5 18.5q29 0 47 -15t18 -41q0 -8 -1 -12q-5 -31 -29 -49.5t-56 -18.5q-29 0 -46.5 15t-17.5 41q0 8 1 12zM511 930q5 31 28.5 49.5t55.5 18.5q29 0 46.5 -15t17.5 -41q0 -8 -1 -12q-5 -31 -28.5 -49.5t-55.5 -18.5q-29 0 -46.5 15t-17.5 41 q0 8 1 12zM675 0h-136l-33 167h-330l-85 -167h-136l1 8l433 772h100l187 -772zM490 253l-74 385l-196 -385h270z" />
<glyph unicode="&#xc5;" horiz-adv-x="750" d="M442 803q-47 0 -75.5 25t-28.5 67q0 6 2 20q8 50 47 81t91 31q47 0 75.5 -25t28.5 -67q0 -6 -2 -20q-8 -50 -47 -81t-91 -31zM451 855q27 0 46 16.5t24 43.5q1 4 1 12q0 22 -14 35t-38 13q-27 0 -46.5 -16.5t-24.5 -43.5q-1 -4 -1 -12q0 -22 14 -35t39 -13zM675 0h-136 l-33 167h-330l-85 -167h-136l1 8l433 772h100l187 -772zM490 253l-74 385l-196 -385h270z" />
<glyph unicode="&#xc6;" horiz-adv-x="980" d="M-40 0l1 8l509 772h49h52h403l-15 -93h-335l-41 -259h299l-14 -86h-299l-39 -249h350l-15 -93h-470l26 167h-225l-101 -167h-135zM500 665l-251 -412h186z" />
<glyph unicode="&#xc7;" horiz-adv-x="755" d="M213 -278q153 35 163 103v5q0 33 -63 33q-17 0 -45 -5l-28 34l64 91q-134 13 -193.5 95t-59.5 203q0 43 8 93l5 32q9 58 28 111.5t52.5 106t79 90.5t111 61.5t144.5 23.5q71 0 125.5 -21t84 -54t44 -67.5t15.5 -67.5l-125 -12q-2 50 -42.5 90.5t-116.5 40.5 q-111 0 -181.5 -80.5t-92.5 -221.5l-5 -32q-7 -43 -7 -87q0 -102 46.5 -158.5t138.5 -56.5q76 0 130 40.5t71 90.5l121 -12q-11 -32 -35.5 -65.5t-62.5 -66t-95.5 -54t-124.5 -24.5l-47 -66h14q55 0 85.5 -19.5t30.5 -55.5q0 -10 -1 -15q-17 -106 -219 -153q-5 -1 -7 -2z " />
<glyph unicode="&#xc8;" horiz-adv-x="675" d="M290 978l61 77l190 -165l-38 -45zM30 0l124 780h515l-15 -93h-395l-41 -259h359l-14 -86h-359l-39 -249h410l-15 -93h-530z" />
<glyph unicode="&#xc9;" horiz-adv-x="675" d="M600 978l-255 -133l-24 45l242 165zM30 0l124 780h515l-15 -93h-395l-41 -259h359l-14 -86h-359l-39 -249h410l-15 -93h-530z" />
<glyph unicode="&#xca;" horiz-adv-x="675" d="M233 867l203 148h30l157 -148l-40 -37l-146 97l-176 -97zM30 0l124 780h515l-15 -93h-395l-41 -259h359l-14 -86h-359l-39 -249h410l-15 -93h-530z" />
<glyph unicode="&#xcb;" horiz-adv-x="675" d="M243 930q5 31 28.5 49.5t55.5 18.5q29 0 47 -15t18 -41q0 -8 -1 -12q-5 -31 -29 -49.5t-56 -18.5q-29 0 -46.5 15t-17.5 41q0 8 1 12zM486 930q5 31 28.5 49.5t55.5 18.5q29 0 46.5 -15t17.5 -41q0 -8 -1 -12q-5 -31 -28.5 -49.5t-55.5 -18.5q-29 0 -46.5 15t-17.5 41 q0 8 1 12zM30 0l124 780h515l-15 -93h-395l-41 -259h359l-14 -86h-359l-39 -249h410l-15 -93h-530z" />
<glyph unicode="&#xcc;" horiz-adv-x="320" d="M100 978l61 77l190 -165l-38 -45zM40 0l124 780h120l-124 -780h-120z" />
<glyph unicode="&#xcd;" horiz-adv-x="320" d="M410 978l-255 -133l-24 45l242 165zM40 0l124 780h120l-124 -780h-120z" />
<glyph unicode="&#xce;" horiz-adv-x="320" d="M43 867l203 148h30l157 -148l-40 -37l-146 97l-176 -97zM40 0l124 780h120l-124 -780h-120z" />
<glyph unicode="&#xcf;" horiz-adv-x="320" d="M53 930q5 31 28.5 49.5t55.5 18.5q29 0 47 -15t18 -41q0 -8 -1 -12q-5 -31 -29 -49.5t-56 -18.5q-29 0 -46.5 15t-17.5 41q0 8 1 12zM296 930q5 31 28.5 49.5t55.5 18.5q29 0 46.5 -15t17.5 -41q0 -8 -1 -12q-5 -31 -28.5 -49.5t-55.5 -18.5q-29 0 -46.5 15t-17.5 41 q0 8 1 12zM40 0l124 780h120l-124 -780h-120z" />
<glyph unicode="&#xd0;" horiz-adv-x="770" d="M7 357l10 66h80l57 357q111 9 204 9q79 0 141.5 -17t103.5 -45.5t67.5 -68.5t38 -84.5t11.5 -94.5q0 -37 -6 -75l-4 -28q-9 -59 -30.5 -112.5t-60.5 -104t-91.5 -87.5t-128.5 -59t-167 -22q-41 0 -91.5 2t-80.5 5l-30 2l57 357h-80zM163 80q54 -2 82 -2q297 0 345 298 l4 28q6 39 6 75q0 223 -256 223q-29 0 -83 -2l-44 -277h200l-10 -66h-200z" />
<glyph unicode="&#xd1;" horiz-adv-x="790" d="M281 888q15 26 26 43.5t28.5 37.5t38.5 30.5t45 10.5t45.5 -10.5t28 -17l23.5 -23.5q3 -4 9 -11t9.5 -10.5t8 -7.5t8.5 -6t9 -2t10 2t10 6t9 7.5t9 10.5t8 11t8 12.5t6.5 11.5l5.5 11l5 9l55 -21q-29 -55 -61.5 -88.5t-77.5 -33.5q-10 0 -19 1.5t-15.5 3.5t-14.5 6.5 t-11.5 6.5t-11 8.5t-9 8t-8.5 9.5l-7 7q-3 3 -9.5 10.5t-9.5 11t-8 8t-9 6t-9 1.5q-9 0 -17.5 -5.5t-16.5 -17t-13.5 -19t-13.5 -22.5t-9 -17zM30 0l122 769l105 11l297 -587l93 587h117l-124 -780h-103l-297 587l-93 -587h-117z" />
<glyph unicode="&#xd2;" horiz-adv-x="820" d="M350 978l61 77l190 -165l-38 -45zM59 372l6 36q9 58 27.5 111t52 105t78 90t110 61.5t144.5 23.5q82 0 141.5 -24.5t92 -68t47.5 -94.5t15 -112q0 -44 -8 -92l-6 -36q-9 -58 -27.5 -111t-52 -105t-78 -90t-110 -61.5t-144.5 -23.5q-82 0 -141.5 24.5t-92 68t-47.5 94.5 t-15 112q0 44 8 92zM361 71q112 0 182.5 80t92.5 221l6 36q7 43 7 87q0 102 -47 158t-140 56q-112 0 -182 -80t-92 -221l-6 -36q-7 -43 -7 -88q0 -102 46.5 -157.5t139.5 -55.5z" />
<glyph unicode="&#xd3;" horiz-adv-x="820" d="M660 978l-255 -133l-24 45l242 165zM59 372l6 36q9 58 27.5 111t52 105t78 90t110 61.5t144.5 23.5q82 0 141.5 -24.5t92 -68t47.5 -94.5t15 -112q0 -44 -8 -92l-6 -36q-9 -58 -27.5 -111t-52 -105t-78 -90t-110 -61.5t-144.5 -23.5q-82 0 -141.5 24.5t-92 68t-47.5 94.5 t-15 112q0 44 8 92zM361 71q112 0 182.5 80t92.5 221l6 36q7 43 7 87q0 102 -47 158t-140 56q-112 0 -182 -80t-92 -221l-6 -36q-7 -43 -7 -88q0 -102 46.5 -157.5t139.5 -55.5z" />
<glyph unicode="&#xd4;" horiz-adv-x="820" d="M293 867l203 148h30l157 -148l-40 -37l-146 97l-176 -97zM59 372l6 36q9 58 27.5 111t52 105t78 90t110 61.5t144.5 23.5q82 0 141.5 -24.5t92 -68t47.5 -94.5t15 -112q0 -44 -8 -92l-6 -36q-9 -58 -27.5 -111t-52 -105t-78 -90t-110 -61.5t-144.5 -23.5 q-82 0 -141.5 24.5t-92 68t-47.5 94.5t-15 112q0 44 8 92zM361 71q112 0 182.5 80t92.5 221l6 36q7 43 7 87q0 102 -47 158t-140 56q-112 0 -182 -80t-92 -221l-6 -36q-7 -43 -7 -88q0 -102 46.5 -157.5t139.5 -55.5z" />
<glyph unicode="&#xd5;" horiz-adv-x="820" d="M296 888q15 26 26 43.5t28.5 37.5t38.5 30.5t45 10.5t45.5 -10.5t28 -17l23.5 -23.5q3 -4 9 -11t9.5 -10.5t8 -7.5t8.5 -6t9 -2t10 2t10 6t9 7.5t9 10.5t8 11t8 12.5t6.5 11.5t6.5 11l4 9l55 -21q-29 -55 -61.5 -88.5t-77.5 -33.5q-10 0 -19 1.5t-15.5 3.5t-14.5 6.5 t-11.5 6.5t-11 8.5t-9 8t-8.5 9.5l-7 7q-3 3 -9.5 10.5t-9.5 11t-8 8t-9 6t-9 1.5q-9 0 -17.5 -5.5t-16.5 -17t-13.5 -19t-13.5 -22.5t-9 -17zM59 372l6 36q9 58 27.5 111t52 105t78 90t110 61.5t144.5 23.5q82 0 141.5 -24.5t92 -68t47.5 -94.5t15 -112q0 -44 -8 -92 l-6 -36q-9 -58 -27.5 -111t-52 -105t-78 -90t-110 -61.5t-144.5 -23.5q-82 0 -141.5 24.5t-92 68t-47.5 94.5t-15 112q0 44 8 92zM361 71q112 0 182.5 80t92.5 221l6 36q7 43 7 87q0 102 -47 158t-140 56q-112 0 -182 -80t-92 -221l-6 -36q-7 -43 -7 -88q0 -102 46.5 -157.5 t139.5 -55.5z" />
<glyph unicode="&#xd6;" horiz-adv-x="820" d="M303 930q5 31 28.5 49.5t55.5 18.5q29 0 47 -15t18 -41q0 -8 -1 -12q-5 -31 -29 -49.5t-56 -18.5q-29 0 -46.5 15t-17.5 41q0 8 1 12zM546 930q5 31 28.5 49.5t55.5 18.5q29 0 46.5 -15t17.5 -41q0 -8 -1 -12q-5 -31 -28.5 -49.5t-55.5 -18.5q-29 0 -46.5 15t-17.5 41 q0 8 1 12zM59 372l6 36q9 58 27.5 111t52 105t78 90t110 61.5t144.5 23.5q82 0 141.5 -24.5t92 -68t47.5 -94.5t15 -112q0 -44 -8 -92l-6 -36q-9 -58 -27.5 -111t-52 -105t-78 -90t-110 -61.5t-144.5 -23.5q-82 0 -141.5 24.5t-92 68t-47.5 94.5t-15 112q0 44 8 92zM361 71 q112 0 182.5 80t92.5 221l6 36q7 43 7 87q0 102 -47 158t-140 56q-112 0 -182 -80t-92 -221l-6 -36q-7 -43 -7 -88q0 -102 46.5 -157.5t139.5 -55.5z" />
<glyph unicode="&#xd7;" horiz-adv-x="600" d="M117 501l70 61l120 -142l164 142l50 -61l-163 -141l119 -141l-71 -61l-119 141l-163 -141l-51 61l163 141z" />
<glyph unicode="&#xd8;" horiz-adv-x="820" d="M59 372l6 36q9 58 27.5 111t52 105t78 90t110 61.5t144.5 23.5q138 0 214 -73l74 77l46 -37l-82 -86q44 -74 44 -180q0 -44 -8 -92l-6 -36q-9 -58 -27.5 -111t-52 -105t-78 -90t-110 -61.5t-144.5 -23.5q-140 0 -218 76l-69 -72l-47 37l79 82q-41 72 -41 174q0 44 8 94z M611 642q-47 67 -149 67q-112 0 -182 -80t-92 -221l-6 -36q-8 -50 -8 -86q0 -47 11 -86zM638 585l-428 -443q47 -71 151 -71q112 0 182.5 80t92.5 221l6 36q7 43 7 87q0 54 -11 90z" />
<glyph unicode="&#xd9;" horiz-adv-x="770" d="M325 978l61 77l190 -165l-38 -45zM58 240l86 540h122l-86 -540q-3 -18 -3 -35q0 -66 43 -100t116 -34q83 0 140 43.5t70 125.5l86 540h122l-86 -540q-18 -112 -113.5 -185t-232.5 -73q-124 0 -195.5 60.5t-71.5 157.5q0 19 3 40z" />
<glyph unicode="&#xda;" horiz-adv-x="770" d="M635 978l-255 -133l-24 45l242 165zM58 240l86 540h122l-86 -540q-3 -18 -3 -35q0 -66 43 -100t116 -34q83 0 140 43.5t70 125.5l86 540h122l-86 -540q-18 -112 -113.5 -185t-232.5 -73q-124 0 -195.5 60.5t-71.5 157.5q0 19 3 40z" />
<glyph unicode="&#xdb;" horiz-adv-x="770" d="M268 867l203 148h30l157 -148l-40 -37l-146 97l-176 -97zM58 240l86 540h122l-86 -540q-3 -18 -3 -35q0 -66 43 -100t116 -34q83 0 140 43.5t70 125.5l86 540h122l-86 -540q-18 -112 -113.5 -185t-232.5 -73q-124 0 -195.5 60.5t-71.5 157.5q0 19 3 40z" />
<glyph unicode="&#xdc;" horiz-adv-x="770" d="M278 930q5 31 28.5 49.5t55.5 18.5q29 0 47 -15t18 -41q0 -8 -1 -12q-5 -31 -29 -49.5t-56 -18.5q-29 0 -46.5 15t-17.5 41q0 8 1 12zM521 930q5 31 28.5 49.5t55.5 18.5q29 0 46.5 -15t17.5 -41q0 -8 -1 -12q-5 -31 -28.5 -49.5t-55.5 -18.5q-29 0 -46.5 15t-17.5 41 q0 8 1 12zM58 240l86 540h122l-86 -540q-3 -18 -3 -35q0 -66 43 -100t116 -34q83 0 140 43.5t70 125.5l86 540h122l-86 -540q-18 -112 -113.5 -185t-232.5 -73q-124 0 -195.5 60.5t-71.5 157.5q0 19 3 40z" />
<glyph unicode="&#xdd;" horiz-adv-x="670" d="M585 978l-255 -133l-24 45l242 165zM71 761l1 8l137 11l131 -368l249 368l133 -11l-1 -8l-339 -466l-47 -295h-120l47 295z" />
<glyph unicode="&#xde;" horiz-adv-x="725" d="M192 270q64 -4 126 -4q215 0 239 148q2 9 2 27q0 122 -194 122q-63 0 -127 -4zM251 646q63 3 142 3q130 0 208 -52.5t78 -145.5q0 -17 -3 -37q-18 -110 -116 -172t-241 -62q-78 0 -141 3l-29 -183h-119l30 189l71 451l23 140h119z" />
<glyph unicode="&#xdf;" horiz-adv-x="780" d="M289 140l108 8q0 -37 23 -61.5t64 -24.5q46 0 76 23t37 69q1 5 1 14q0 52 -52 72q-15 6 -107 48q-91 40 -91 127q0 18 2 27q11 72 67.5 117t141.5 45q11 0 17 -1q-4 74 -49 109.5t-111 35.5t-116.5 -39t-65.5 -133l-91 -576h-113l91 576q18 118 103.5 185.5t204.5 67.5 q115 0 179.5 -66t64.5 -169q0 -18 -1 -28l-62 -47q-21 13 -59 13q-36 0 -61.5 -20t-31.5 -60q-1 -6 -1 -16q0 -46 52 -71q91 -41 104 -47q93 -40 93 -134q0 -19 -2 -30q-11 -73 -73.5 -123t-159.5 -50q-50 0 -87.5 16t-57 41t-28.5 50t-9 50v2z" />
<glyph unicode="&#xe0;" horiz-adv-x="625" d="M226 828l61 77l190 -165l-38 -45zM22 173q10 62 68 106t153 44q81 0 177 -10l16 106q2 18 2 25q0 47 -30.5 70t-82.5 23t-90.5 -29.5t-54.5 -83.5l-111 9q23 77 93 131.5t176 54.5q98 0 154.5 -46t56.5 -122q0 -15 -3 -32l-43 -276q-3 -17 -3 -30q0 -25 12.5 -37 t42.5 -16l-40 -74q-98 12 -110 89q-78 -89 -194 -89q-90 0 -141 40.5t-51 112.5q0 16 3 34zM415 245q-86 12 -176 12q-39 0 -70 -22.5t-37 -63.5q-2 -16 -2 -24q0 -47 30 -69.5t76 -22.5q123 0 173 155z" />
<glyph unicode="&#xe1;" horiz-adv-x="625" d="M536 828l-255 -133l-24 45l242 165zM22 173q10 62 68 106t153 44q81 0 177 -10l16 106q2 18 2 25q0 47 -30.5 70t-82.5 23t-90.5 -29.5t-54.5 -83.5l-111 9q23 77 93 131.5t176 54.5q98 0 154.5 -46t56.5 -122q0 -15 -3 -32l-43 -276q-3 -17 -3 -30q0 -25 12.5 -37 t42.5 -16l-40 -74q-98 12 -110 89q-78 -89 -194 -89q-90 0 -141 40.5t-51 112.5q0 16 3 34zM415 245q-86 12 -176 12q-39 0 -70 -22.5t-37 -63.5q-2 -16 -2 -24q0 -47 30 -69.5t76 -22.5q123 0 173 155z" />
<glyph unicode="&#xe2;" horiz-adv-x="625" d="M169 717l203 148h30l157 -148l-40 -37l-146 97l-176 -97zM22 173q10 62 68 106t153 44q81 0 177 -10l16 106q2 18 2 25q0 47 -30.5 70t-82.5 23t-90.5 -29.5t-54.5 -83.5l-111 9q23 77 93 131.5t176 54.5q98 0 154.5 -46t56.5 -122q0 -15 -3 -32l-43 -276q-3 -17 -3 -30 q0 -25 12.5 -37t42.5 -16l-40 -74q-98 12 -110 89q-78 -89 -194 -89q-90 0 -141 40.5t-51 112.5q0 16 3 34zM415 245q-86 12 -176 12q-39 0 -70 -22.5t-37 -63.5q-2 -16 -2 -24q0 -47 30 -69.5t76 -22.5q123 0 173 155z" />
<glyph unicode="&#xe3;" horiz-adv-x="625" d="M172 738q15 26 26 43.5t28.5 37.5t38.5 30.5t45 10.5t45.5 -10.5t28 -17l23.5 -23.5q3 -4 9 -11t9.5 -10.5t8 -7.5t8.5 -6t9 -2t10 2t10 6t9 7.5t9 10.5t8 11t8 12.5t6.5 11.5t6.5 11l4 9l55 -21q-29 -55 -61.5 -88.5t-77.5 -33.5q-10 0 -19 1.5t-15.5 3.5t-14.5 6.5 t-11.5 6.5t-11 8.5t-9 8t-8.5 9.5l-7 7q-3 3 -9.5 10.5t-9.5 11t-8 8t-9 6t-9 1.5q-9 0 -17.5 -5.5t-16.5 -17t-13.5 -19t-13.5 -22.5t-9 -17zM22 173q10 62 68 106t153 44q81 0 177 -10l16 106q2 18 2 25q0 47 -30.5 70t-82.5 23t-90.5 -29.5t-54.5 -83.5l-111 9 q23 77 93 131.5t176 54.5q98 0 154.5 -46t56.5 -122q0 -15 -3 -32l-43 -276q-3 -17 -3 -30q0 -25 12.5 -37t42.5 -16l-40 -74q-98 12 -110 89q-78 -89 -194 -89q-90 0 -141 40.5t-51 112.5q0 16 3 34zM415 245q-86 12 -176 12q-39 0 -70 -22.5t-37 -63.5q-2 -16 -2 -24 q0 -47 30 -69.5t76 -22.5q123 0 173 155z" />
<glyph unicode="&#xe4;" horiz-adv-x="625" d="M179 780q5 31 28.5 49.5t55.5 18.5q29 0 47 -15t18 -41q0 -8 -1 -12q-5 -31 -29 -49.5t-56 -18.5q-29 0 -46.5 15t-17.5 41q0 8 1 12zM422 780q5 31 28.5 49.5t55.5 18.5q29 0 46.5 -15t17.5 -41q0 -8 -1 -12q-5 -31 -28.5 -49.5t-55.5 -18.5q-29 0 -46.5 15t-17.5 41 q0 8 1 12zM22 173q10 62 68 106t153 44q81 0 177 -10l16 106q2 18 2 25q0 47 -30.5 70t-82.5 23t-90.5 -29.5t-54.5 -83.5l-111 9q23 77 93 131.5t176 54.5q98 0 154.5 -46t56.5 -122q0 -15 -3 -32l-43 -276q-3 -17 -3 -30q0 -25 12.5 -37t42.5 -16l-40 -74q-98 12 -110 89 q-78 -89 -194 -89q-90 0 -141 40.5t-51 112.5q0 16 3 34zM415 245q-86 12 -176 12q-39 0 -70 -22.5t-37 -63.5q-2 -16 -2 -24q0 -47 30 -69.5t76 -22.5q123 0 173 155z" />
<glyph unicode="&#xe5;" horiz-adv-x="625" d="M353 653q-47 0 -75.5 25t-28.5 67q0 6 2 20q8 50 47 81t91 31q47 0 75.5 -25t28.5 -67q0 -6 -2 -20q-8 -50 -47 -81t-91 -31zM362 705q27 0 46 16.5t24 43.5q1 4 1 12q0 22 -14 35t-38 13q-27 0 -46.5 -16.5t-24.5 -43.5q-1 -4 -1 -12q0 -22 14 -35t39 -13zM22 173 q10 62 68 106t153 44q81 0 177 -10l16 106q2 18 2 25q0 47 -30.5 70t-82.5 23t-90.5 -29.5t-54.5 -83.5l-111 9q23 77 93 131.5t176 54.5q98 0 154.5 -46t56.5 -122q0 -15 -3 -32l-43 -276q-3 -17 -3 -30q0 -25 12.5 -37t42.5 -16l-40 -74q-98 12 -110 89q-78 -89 -194 -89 q-90 0 -141 40.5t-51 112.5q0 16 3 34zM415 245q-86 12 -176 12q-39 0 -70 -22.5t-37 -63.5q-2 -16 -2 -24q0 -47 30 -69.5t76 -22.5q123 0 173 155z" />
<glyph unicode="&#xe6;" horiz-adv-x="960" d="M22 173q10 63 65.5 106.5t148.5 43.5q76 0 166 -10l16 106q2 18 2 26q0 47 -28 69.5t-75 22.5q-48 0 -84.5 -29.5t-52.5 -83.5l-111 9q23 77 91 131.5t170 54.5q131 0 176 -89q76 89 196 89q101 0 152.5 -58.5t51.5 -148.5q0 -29 -4 -52q-5 -36 -21 -81h-375 q-5 -31 -5 -68q0 -150 113 -150q52 0 87 29.5t47 67.5l107 -10q-20 -60 -87.5 -113.5t-166.5 -53.5q-134 0 -179 108q-80 -108 -218 -108q-87 0 -136 41.5t-49 113.5q0 18 3 37zM519 351h276q0 1 0.5 5t0.5 5q4 25 4 51q0 63 -29 95t-82 32q-60 0 -104.5 -49.5t-65.5 -138.5 zM396 245q-80 12 -161 12q-38 0 -67.5 -22.5t-35.5 -63.5q-2 -18 -2 -25q0 -45 28 -67t71 -22q61 0 100.5 40.5t59.5 103.5z" />
<glyph unicode="&#xe7;" horiz-adv-x="605" d="M131 -278q153 35 163 103v5q0 33 -63 33q-17 0 -45 -5l-28 34l65 92q-101 13 -145 76t-44 155q0 37 6 72l5 26q7 44 21 85t40 82t61 71t87 49t115 19q57 0 100 -17t66.5 -43.5t35 -53.5t11.5 -53l-116 -10q-1 36 -30 65t-80 29q-76 0 -127 -59t-68 -164l-5 -26 q-5 -29 -5 -64q0 -76 33.5 -117.5t96.5 -41.5q51 0 89 29t51 65l112 -10q-20 -58 -84 -110t-164 -57l-47 -66h14q55 0 85.5 -19.5t30.5 -55.5q0 -10 -1 -15q-17 -106 -219 -153q-5 -1 -7 -2z" />
<glyph unicode="&#xe8;" horiz-adv-x="640" d="M246 828l61 77l190 -165l-38 -45zM40 286l5 28q9 56 30.5 106.5t58 97t96.5 74t135 27.5q108 0 164.5 -60t56.5 -152q0 -26 -4 -47q-5 -32 -21 -81h-411q-4 -28 -4 -58q0 -76 33.5 -118t97.5 -42q55 0 95 30t52 67l107 -10q-20 -60 -90 -113.5t-177 -53.5 q-123 0 -176.5 65.5t-53.5 166.5q0 37 6 73zM163 351h312q0 1 0.5 5t0.5 5q4 21 4 45q0 66 -34.5 99.5t-93.5 33.5q-70 0 -119 -49.5t-70 -138.5z" />
<glyph unicode="&#xe9;" horiz-adv-x="640" d="M556 828l-255 -133l-24 45l242 165zM40 286l5 28q9 56 30.5 106.5t58 97t96.5 74t135 27.5q108 0 164.5 -60t56.5 -152q0 -26 -4 -47q-5 -32 -21 -81h-411q-4 -28 -4 -58q0 -76 33.5 -118t97.5 -42q55 0 95 30t52 67l107 -10q-20 -60 -90 -113.5t-177 -53.5 q-123 0 -176.5 65.5t-53.5 166.5q0 37 6 73zM163 351h312q0 1 0.5 5t0.5 5q4 21 4 45q0 66 -34.5 99.5t-93.5 33.5q-70 0 -119 -49.5t-70 -138.5z" />
<glyph unicode="&#xea;" horiz-adv-x="640" d="M189 717l203 148h30l157 -148l-40 -37l-146 97l-176 -97zM40 286l5 28q9 56 30.5 106.5t58 97t96.5 74t135 27.5q108 0 164.5 -60t56.5 -152q0 -26 -4 -47q-5 -32 -21 -81h-411q-4 -28 -4 -58q0 -76 33.5 -118t97.5 -42q55 0 95 30t52 67l107 -10q-20 -60 -90 -113.5 t-177 -53.5q-123 0 -176.5 65.5t-53.5 166.5q0 37 6 73zM163 351h312q0 1 0.5 5t0.5 5q4 21 4 45q0 66 -34.5 99.5t-93.5 33.5q-70 0 -119 -49.5t-70 -138.5z" />
<glyph unicode="&#xeb;" horiz-adv-x="640" d="M199 780q5 31 28.5 49.5t55.5 18.5q29 0 47 -15t18 -41q0 -8 -1 -12q-5 -31 -29 -49.5t-56 -18.5q-29 0 -46.5 15t-17.5 41q0 8 1 12zM442 780q5 31 28.5 49.5t55.5 18.5q29 0 46.5 -15t17.5 -41q0 -8 -1 -12q-5 -31 -28.5 -49.5t-55.5 -18.5q-29 0 -46.5 15t-17.5 41 q0 8 1 12zM40 286l5 28q9 56 30.5 106.5t58 97t96.5 74t135 27.5q108 0 164.5 -60t56.5 -152q0 -26 -4 -47q-5 -32 -21 -81h-411q-4 -28 -4 -58q0 -76 33.5 -118t97.5 -42q55 0 95 30t52 67l107 -10q-20 -60 -90 -113.5t-177 -53.5q-123 0 -176.5 65.5t-53.5 166.5 q0 37 6 73zM163 351h312q0 1 0.5 5t0.5 5q4 21 4 45q0 66 -34.5 99.5t-93.5 33.5q-70 0 -119 -49.5t-70 -138.5z" />
<glyph unicode="&#xec;" horiz-adv-x="300" d="M66 828l61 77l190 -165l-38 -45zM33 0l95 600h114l-95 -600h-114z" />
<glyph unicode="&#xed;" horiz-adv-x="300" d="M376 828l-255 -133l-24 45l242 165zM33 0l95 600h114l-95 -600h-114z" />
<glyph unicode="&#xee;" horiz-adv-x="300" d="M9 717l203 148h30l157 -148l-40 -37l-146 97l-176 -97zM33 0l95 600h114l-95 -600h-114z" />
<glyph unicode="&#xef;" horiz-adv-x="300" d="M19 780q5 31 28.5 49.5t55.5 18.5q29 0 47 -15t18 -41q0 -8 -1 -12q-5 -31 -29 -49.5t-56 -18.5q-29 0 -46.5 15t-17.5 41q0 8 1 12zM262 780q5 31 28.5 49.5t55.5 18.5q29 0 46.5 -15t17.5 -41q0 -8 -1 -12q-5 -31 -28.5 -49.5t-55.5 -18.5q-29 0 -46.5 15t-17.5 41 q0 8 1 12zM33 0l95 600h114l-95 -600h-114z" />
<glyph unicode="&#xf0;" horiz-adv-x="660" d="M451 787l144 35l6 -57l-107 -26q109 -135 109 -320q0 -55 -9 -112l-5 -27q-9 -55 -29.5 -104.5t-57 -95t-97 -72.5t-138.5 -27q-66 0 -113 19t-72.5 53t-37 72.5t-11.5 85.5q0 25 6 69l5 31q9 55 30.5 105.5t56.5 95t90 71t122 26.5q80 0 132 -55q-25 92 -85 160 l-210 -51l-6 57l169 41q-29 25 -67 50l74 58q57 -38 101 -82zM489 376q-6 64 -44.5 107t-101.5 43q-73 0 -121.5 -55t-64.5 -160l-5 -31q-5 -28 -5 -63q0 -75 34 -115.5t99 -40.5q77 0 128 57.5t68 161.5l5 27q7 40 8 69z" />
<glyph unicode="&#xf1;" horiz-adv-x="655" d="M192 738q15 26 26 43.5t28.5 37.5t38.5 30.5t45 10.5t45.5 -10.5t28 -17l23.5 -23.5q3 -4 9 -11t9.5 -10.5t8 -7.5t8.5 -6t9 -2t10 2t10 6t9 7.5t9 10.5t8 11t8 12.5t6.5 11.5t6.5 11l4 9l55 -21q-29 -55 -61.5 -88.5t-77.5 -33.5q-10 0 -19 1.5t-15.5 3.5t-14.5 6.5 t-11.5 6.5t-11 8.5t-9 8t-8.5 9.5l-7 7q-3 3 -9.5 10.5t-9.5 11t-8 8t-9 6t-9 1.5q-9 0 -17.5 -5.5t-16.5 -17t-13.5 -19t-13.5 -22.5t-9 -17zM25 0l67 420l17 174l105 9l-8 -150q102 161 244 161q72 0 108 -43t36 -112q0 -22 -3 -43l-66 -416h-113l65 412q3 16 3 31 q0 42 -20.5 61.5t-53.5 19.5q-67 0 -131 -69t-90 -156l-47 -299h-113z" />
<glyph unicode="&#xf2;" horiz-adv-x="660" d="M246 828l61 77l190 -165l-38 -45zM40 286l5 28q9 56 30 106.5t57.5 97t97.5 74t138 27.5q65 0 112 -19.5t72.5 -53.5t37 -73.5t11.5 -86.5q0 -38 -6 -72l-5 -28q-9 -56 -30 -106.5t-57.5 -97t-97.5 -74t-138 -27.5q-65 0 -112 19.5t-72.5 53.5t-37 73.5t-11.5 86.5 q0 38 6 72zM280 63q78 0 129 58.5t68 164.5l5 28q6 35 6 66q0 76 -34 116.5t-99 40.5q-78 0 -129 -58.5t-68 -164.5l-5 -28q-6 -34 -6 -66q0 -76 34 -116.5t99 -40.5z" />
<glyph unicode="&#xf3;" horiz-adv-x="660" d="M556 828l-255 -133l-24 45l242 165zM40 286l5 28q9 56 30 106.5t57.5 97t97.5 74t138 27.5q65 0 112 -19.5t72.5 -53.5t37 -73.5t11.5 -86.5q0 -38 -6 -72l-5 -28q-9 -56 -30 -106.5t-57.5 -97t-97.5 -74t-138 -27.5q-65 0 -112 19.5t-72.5 53.5t-37 73.5t-11.5 86.5 q0 38 6 72zM280 63q78 0 129 58.5t68 164.5l5 28q6 35 6 66q0 76 -34 116.5t-99 40.5q-78 0 -129 -58.5t-68 -164.5l-5 -28q-6 -34 -6 -66q0 -76 34 -116.5t99 -40.5z" />
<glyph unicode="&#xf4;" horiz-adv-x="660" d="M189 717l203 148h30l157 -148l-40 -37l-146 97l-176 -97zM40 286l5 28q9 56 30 106.5t57.5 97t97.5 74t138 27.5q65 0 112 -19.5t72.5 -53.5t37 -73.5t11.5 -86.5q0 -38 -6 -72l-5 -28q-9 -56 -30 -106.5t-57.5 -97t-97.5 -74t-138 -27.5q-65 0 -112 19.5t-72.5 53.5 t-37 73.5t-11.5 86.5q0 38 6 72zM280 63q78 0 129 58.5t68 164.5l5 28q6 35 6 66q0 76 -34 116.5t-99 40.5q-78 0 -129 -58.5t-68 -164.5l-5 -28q-6 -34 -6 -66q0 -76 34 -116.5t99 -40.5z" />
<glyph unicode="&#xf5;" horiz-adv-x="660" d="M192 738q15 26 26 43.5t28.5 37.5t38.5 30.5t45 10.5t45.5 -10.5t28 -17l23.5 -23.5q3 -4 9 -11t9.5 -10.5t8 -7.5t8.5 -6t9 -2t10 2t10 6t9 7.5t9 10.5t8 11t8 12.5t6.5 11.5t6.5 11l4 9l55 -21q-29 -55 -61.5 -88.5t-77.5 -33.5q-10 0 -19 1.5t-15.5 3.5t-14.5 6.5 t-11.5 6.5t-11 8.5t-9 8t-8.5 9.5l-7 7q-3 3 -9.5 10.5t-9.5 11t-8 8t-9 6t-9 1.5q-9 0 -17.5 -5.5t-16.5 -17t-13.5 -19t-13.5 -22.5t-9 -17zM40 286l5 28q9 56 30 106.5t57.5 97t97.5 74t138 27.5q65 0 112 -19.5t72.5 -53.5t37 -73.5t11.5 -86.5q0 -38 -6 -72l-5 -28 q-9 -56 -30 -106.5t-57.5 -97t-97.5 -74t-138 -27.5q-65 0 -112 19.5t-72.5 53.5t-37 73.5t-11.5 86.5q0 38 6 72zM280 63q78 0 129 58.5t68 164.5l5 28q6 35 6 66q0 76 -34 116.5t-99 40.5q-78 0 -129 -58.5t-68 -164.5l-5 -28q-6 -34 -6 -66q0 -76 34 -116.5t99 -40.5z " />
<glyph unicode="&#xf6;" horiz-adv-x="660" d="M199 780q5 31 28.5 49.5t55.5 18.5q29 0 47 -15t18 -41q0 -8 -1 -12q-5 -31 -29 -49.5t-56 -18.5q-29 0 -46.5 15t-17.5 41q0 8 1 12zM442 780q5 31 28.5 49.5t55.5 18.5q29 0 46.5 -15t17.5 -41q0 -8 -1 -12q-5 -31 -28.5 -49.5t-55.5 -18.5q-29 0 -46.5 15t-17.5 41 q0 8 1 12zM40 286l5 28q9 56 30 106.5t57.5 97t97.5 74t138 27.5q65 0 112 -19.5t72.5 -53.5t37 -73.5t11.5 -86.5q0 -38 -6 -72l-5 -28q-9 -56 -30 -106.5t-57.5 -97t-97.5 -74t-138 -27.5q-65 0 -112 19.5t-72.5 53.5t-37 73.5t-11.5 86.5q0 38 6 72zM280 63 q78 0 129 58.5t68 164.5l5 28q6 35 6 66q0 76 -34 116.5t-99 40.5q-78 0 -129 -58.5t-68 -164.5l-5 -28q-6 -34 -6 -66q0 -76 34 -116.5t99 -40.5z" />
<glyph unicode="&#xf7;" horiz-adv-x="600" d="M81 320l12 80h420l-12 -80h-420zM204 215q4 29 27 47t53 18q27 0 44 -14.5t17 -39.5q0 -7 -1 -11q-4 -29 -27 -47t-53 -18q-27 0 -44 14.5t-17 39.5q0 7 1 11zM250 505q4 29 27 47t53 18q27 0 44 -14.5t17 -39.5q0 -7 -1 -11q-4 -29 -27 -47t-53 -18q-27 0 -44 14.5 t-17 39.5q0 7 1 11z" />
<glyph unicode="&#xf8;" horiz-adv-x="660" d="M40 286l5 28q9 56 30 106.5t57.5 97t97.5 74t138 27.5q108 0 166 -53l51 53l43 -34l-60 -62q32 -57 32 -140q0 -32 -5 -69l-5 -28q-9 -56 -30 -106.5t-57.5 -97t-97.5 -74t-138 -27.5q-108 0 -166 53l-51 -53l-43 34l60 62q-32 57 -32 140q0 32 5 69zM460 488 q-34 49 -105 49q-78 0 -129 -58.5t-68 -164.5l-5 -28q-6 -38 -6 -69q0 -25 5 -50zM483 433l-308 -321q34 -49 105 -49q78 0 129 58.5t68 164.5l5 28q6 38 6 69q0 25 -5 50z" />
<glyph unicode="&#xf9;" horiz-adv-x="620" d="M226 828l61 77l190 -165l-38 -45zM35 187l65 413h113l-65 -413q-2 -10 -2 -27q0 -48 31 -72.5t83 -24.5q59 0 100.5 31t51.5 93l65 413h113l-65 -413q-14 -88 -90.5 -147t-187.5 -59q-100 0 -157.5 48.5t-57.5 125.5q0 15 3 32z" />
<glyph unicode="&#xfa;" horiz-adv-x="620" d="M536 828l-255 -133l-24 45l242 165zM35 187l65 413h113l-65 -413q-2 -10 -2 -27q0 -48 31 -72.5t83 -24.5q59 0 100.5 31t51.5 93l65 413h113l-65 -413q-14 -88 -90.5 -147t-187.5 -59q-100 0 -157.5 48.5t-57.5 125.5q0 15 3 32z" />
<glyph unicode="&#xfb;" horiz-adv-x="620" d="M169 717l203 148h30l157 -148l-40 -37l-146 97l-176 -97zM35 187l65 413h113l-65 -413q-2 -10 -2 -27q0 -48 31 -72.5t83 -24.5q59 0 100.5 31t51.5 93l65 413h113l-65 -413q-14 -88 -90.5 -147t-187.5 -59q-100 0 -157.5 48.5t-57.5 125.5q0 15 3 32z" />
<glyph unicode="&#xfc;" horiz-adv-x="620" d="M179 780q5 31 28.5 49.5t55.5 18.5q29 0 47 -15t18 -41q0 -8 -1 -12q-5 -31 -29 -49.5t-56 -18.5q-29 0 -46.5 15t-17.5 41q0 8 1 12zM422 780q5 31 28.5 49.5t55.5 18.5q29 0 46.5 -15t17.5 -41q0 -8 -1 -12q-5 -31 -28.5 -49.5t-55.5 -18.5q-29 0 -46.5 15t-17.5 41 q0 8 1 12zM35 187l65 413h113l-65 -413q-2 -10 -2 -27q0 -48 31 -72.5t83 -24.5q59 0 100.5 31t51.5 93l65 413h113l-65 -413q-14 -88 -90.5 -147t-187.5 -59q-100 0 -157.5 48.5t-57.5 125.5q0 15 3 32z" />
<glyph unicode="&#xfd;" horiz-adv-x="600" d="M526 828l-255 -133l-24 45l242 165zM48 585l1 6l124 9l88 -468l236 468l122 -9l-1 -6l-342 -609q-3 -5 -17 -28t-18 -29.5t-17.5 -27t-20.5 -28t-20.5 -24t-23 -23.5t-24.5 -18t-28 -15.5t-30 -8t-34 -3.5q-62 0 -108 42l66 68l6 -6l6.5 -6.5t6 -5.5t7.5 -5.5l7 -3.5 t8 -3t9 -1q31 0 61 35.5t76 111.5l5 9z" />
<glyph unicode="&#xfe;" horiz-adv-x="675" d="M609 311l-3 -22q-9 -55 -30.5 -106t-57 -96.5t-90.5 -73t-122 -27.5q-104 0 -155 94l-46 -290h-113l161 1020h110l-46 -292q84 96 188 96q109 0 159.5 -67t50.5 -168q0 -35 -6 -68zM172 215q7 -64 40.5 -105t93.5 -41q73 0 122 57t65 163l3 22q6 37 6 68q0 74 -31.5 113 t-91.5 39t-106.5 -41t-73.5 -105z" />
<glyph unicode="&#xff;" horiz-adv-x="600" d="M169 780q5 31 28.5 49.5t55.5 18.5q29 0 47 -15t18 -41q0 -8 -1 -12q-5 -31 -29 -49.5t-56 -18.5q-29 0 -46.5 15t-17.5 41q0 8 1 12zM412 780q5 31 28.5 49.5t55.5 18.5q29 0 46.5 -15t17.5 -41q0 -8 -1 -12q-5 -31 -28.5 -49.5t-55.5 -18.5q-29 0 -46.5 15t-17.5 41 q0 8 1 12zM48 585l1 6l124 9l88 -468l236 468l122 -9l-1 -6l-342 -609q-3 -5 -17 -28t-18 -29.5t-17.5 -27t-20.5 -28t-20.5 -24t-23 -23.5t-24.5 -18t-28 -15.5t-30 -8t-34 -3.5q-62 0 -108 42l66 68l6 -6l6.5 -6.5t6 -5.5t7.5 -5.5l7 -3.5t8 -3t9 -1q31 0 61 35.5 t76 111.5l5 9z" />
<glyph unicode="&#x100;" horiz-adv-x="750" d="M262 894l11 72h390l-11 -72h-390zM675 0h-136l-33 167h-330l-85 -167h-136l1 8l433 772h100l187 -772zM490 253l-74 385l-196 -385h270z" />
<glyph unicode="&#x101;" horiz-adv-x="625" d="M173 744l11 72h390l-11 -72h-390zM22 173q10 62 68 106t153 44q81 0 177 -10l16 106q2 18 2 25q0 47 -30.5 70t-82.5 23t-90.5 -29.5t-54.5 -83.5l-111 9q23 77 93 131.5t176 54.5q98 0 154.5 -46t56.5 -122q0 -15 -3 -32l-43 -276q-3 -17 -3 -30q0 -25 12.5 -37 t42.5 -16l-40 -74q-98 12 -110 89q-78 -89 -194 -89q-90 0 -141 40.5t-51 112.5q0 16 3 34zM415 245q-86 12 -176 12q-39 0 -70 -22.5t-37 -63.5q-2 -16 -2 -24q0 -47 30 -69.5t76 -22.5q123 0 173 155z" />
<glyph unicode="&#x102;" horiz-adv-x="750" d="M277 987l73 23q11 -95 110 -95q98 0 140 95l67 -23q-26 -60 -80.5 -101t-137.5 -41t-124 41t-48 101zM675 0h-136l-33 167h-330l-85 -167h-136l1 8l433 772h100l187 -772zM490 253l-74 385l-196 -385h270z" />
<glyph unicode="&#x103;" horiz-adv-x="625" d="M188 837l73 23q11 -95 110 -95q98 0 140 95l67 -23q-26 -60 -80.5 -101t-137.5 -41t-124 41t-48 101zM22 173q10 62 68 106t153 44q81 0 177 -10l16 106q2 18 2 25q0 47 -30.5 70t-82.5 23t-90.5 -29.5t-54.5 -83.5l-111 9q23 77 93 131.5t176 54.5q98 0 154.5 -46 t56.5 -122q0 -15 -3 -32l-43 -276q-3 -17 -3 -30q0 -25 12.5 -37t42.5 -16l-40 -74q-98 12 -110 89q-78 -89 -194 -89q-90 0 -141 40.5t-51 112.5q0 16 3 34zM415 245q-86 12 -176 12q-39 0 -70 -22.5t-37 -63.5q-2 -16 -2 -24q0 -47 30 -69.5t76 -22.5q123 0 173 155z" />
<glyph unicode="&#x104;" horiz-adv-x="750" d="M490 253l-74 385l-196 -385h270zM582 0h-43l-33 167h-330l-85 -167h-136l1 8l433 772h100l187 -772l-1 -8h-27q-56 -56 -68 -132q-2 -14 -2 -18q0 -46 47 -46q36 0 65 16l11 -54q-45 -21 -98 -21q-48 0 -73.5 23.5t-25.5 64.5q0 7 2 25q12 76 76 142z" />
<glyph unicode="&#x105;" horiz-adv-x="625" d="M415 245q-86 12 -176 12q-39 0 -70 -22.5t-37 -63.5q-2 -16 -2 -24q0 -47 30 -69.5t76 -22.5q123 0 173 155zM22 173q10 62 68 106t153 44q81 0 177 -10l16 106q2 18 2 25q0 47 -30.5 70t-82.5 23t-90.5 -29.5t-54.5 -83.5l-111 9q23 77 93 131.5t176 54.5 q98 0 154.5 -46t56.5 -122q0 -15 -3 -32l-43 -276q-3 -17 -3 -30q0 -25 12.5 -37t42.5 -16l-40 -74q-12 1 -29 6q-50 -54 -61 -124q-2 -14 -2 -18q0 -46 47 -46q36 0 65 16l11 -54q-45 -21 -98 -21q-48 0 -73.5 23.5t-25.5 64.5q0 7 2 25q14 86 89 155q-29 21 -35 62 q-78 -89 -194 -89q-90 0 -141 40.5t-51 112.5q0 16 3 34z" />
<glyph unicode="&#x106;" horiz-adv-x="755" d="M660 978l-255 -133l-24 45l242 165zM64 406q9 58 28 111.5t52.5 106t79 90.5t111 61.5t144.5 23.5q71 0 125.5 -21t84 -54t44 -67.5t15.5 -67.5l-125 -12q-2 50 -42.5 90.5t-116.5 40.5q-111 0 -181.5 -80.5t-92.5 -221.5l-5 -32q-7 -43 -7 -87q0 -102 46.5 -158.5 t138.5 -56.5q76 0 130 40.5t71 90.5l121 -12q-11 -33 -37 -67.5t-66 -67.5t-101 -54t-132 -21q-82 0 -141.5 24.5t-92.5 68.5t-48 95t-15 113q0 50 7 92z" />
<glyph unicode="&#x107;" horiz-adv-x="605" d="M556 828l-255 -133l-24 45l242 165zM40 287l5 26q7 44 21 85t40 82t61 71t87 49t115 19q57 0 100 -17t66.5 -43.5t35 -53.5t11.5 -53l-116 -10q-1 36 -30 65t-80 29q-76 0 -127 -59t-68 -164l-5 -26q-5 -29 -5 -64q0 -76 33.5 -117.5t96.5 -41.5q51 0 89 29t51 65 l112 -10q-12 -36 -41.5 -71.5t-89.5 -65.5t-134 -30q-125 0 -179.5 66.5t-54.5 167.5q0 37 6 72z" />
<glyph unicode="&#x108;" horiz-adv-x="755" d="M293 867l203 148h30l157 -148l-40 -37l-146 97l-176 -97zM64 406q9 58 28 111.5t52.5 106t79 90.5t111 61.5t144.5 23.5q71 0 125.5 -21t84 -54t44 -67.5t15.5 -67.5l-125 -12q-2 50 -42.5 90.5t-116.5 40.5q-111 0 -181.5 -80.5t-92.5 -221.5l-5 -32q-7 -43 -7 -87 q0 -102 46.5 -158.5t138.5 -56.5q76 0 130 40.5t71 90.5l121 -12q-11 -33 -37 -67.5t-66 -67.5t-101 -54t-132 -21q-82 0 -141.5 24.5t-92.5 68.5t-48 95t-15 113q0 50 7 92z" />
<glyph unicode="&#x109;" horiz-adv-x="605" d="M189 717l203 148h30l157 -148l-40 -37l-146 97l-176 -97zM40 287l5 26q7 44 21 85t40 82t61 71t87 49t115 19q57 0 100 -17t66.5 -43.5t35 -53.5t11.5 -53l-116 -10q-1 36 -30 65t-80 29q-76 0 -127 -59t-68 -164l-5 -26q-5 -29 -5 -64q0 -76 33.5 -117.5t96.5 -41.5 q51 0 89 29t51 65l112 -10q-12 -36 -41.5 -71.5t-89.5 -65.5t-134 -30q-125 0 -179.5 66.5t-54.5 167.5q0 37 6 72z" />
<glyph unicode="&#x10a;" horiz-adv-x="755" d="M509 1004q31 0 50.5 -16.5t19.5 -44.5q0 -9 -1 -13q-5 -34 -31 -54t-61 -20q-31 0 -50 16.5t-19 44.5q0 9 1 13q5 34 30.5 54t60.5 20zM64 406q9 58 28 111.5t52.5 106t79 90.5t111 61.5t144.5 23.5q71 0 125.5 -21t84 -54t44 -67.5t15.5 -67.5l-125 -12 q-2 50 -42.5 90.5t-116.5 40.5q-111 0 -181.5 -80.5t-92.5 -221.5l-5 -32q-7 -43 -7 -87q0 -102 46.5 -158.5t138.5 -56.5q76 0 130 40.5t71 90.5l121 -12q-11 -33 -37 -67.5t-66 -67.5t-101 -54t-132 -21q-82 0 -141.5 24.5t-92.5 68.5t-48 95t-15 113q0 50 7 92z" />
<glyph unicode="&#x10b;" horiz-adv-x="605" d="M405 854q31 0 50.5 -16.5t19.5 -44.5q0 -9 -1 -13q-5 -34 -31 -54t-61 -20q-31 0 -50 16.5t-19 44.5q0 9 1 13q5 34 30.5 54t60.5 20zM40 287l5 26q7 44 21 85t40 82t61 71t87 49t115 19q57 0 100 -17t66.5 -43.5t35 -53.5t11.5 -53l-116 -10q-1 36 -30 65t-80 29 q-76 0 -127 -59t-68 -164l-5 -26q-5 -29 -5 -64q0 -76 33.5 -117.5t96.5 -41.5q51 0 89 29t51 65l112 -10q-12 -36 -41.5 -71.5t-89.5 -65.5t-134 -30q-125 0 -179.5 66.5t-54.5 167.5q0 37 6 72z" />
<glyph unicode="&#x10c;" horiz-adv-x="755" d="M702 988l-204 -148h-30l-156 148l40 37l145 -97l177 97zM64 406q9 58 28 111.5t52.5 106t79 90.5t111 61.5t144.5 23.5q71 0 125.5 -21t84 -54t44 -67.5t15.5 -67.5l-125 -12q-2 50 -42.5 90.5t-116.5 40.5q-111 0 -181.5 -80.5t-92.5 -221.5l-5 -32q-7 -43 -7 -87 q0 -102 46.5 -158.5t138.5 -56.5q76 0 130 40.5t71 90.5l121 -12q-11 -33 -37 -67.5t-66 -67.5t-101 -54t-132 -21q-82 0 -141.5 24.5t-92.5 68.5t-48 95t-15 113q0 50 7 92z" />
<glyph unicode="&#x10d;" horiz-adv-x="605" d="M598 838l-204 -148h-30l-156 148l40 37l145 -97l177 97zM40 287l5 26q7 44 21 85t40 82t61 71t87 49t115 19q57 0 100 -17t66.5 -43.5t35 -53.5t11.5 -53l-116 -10q-1 36 -30 65t-80 29q-76 0 -127 -59t-68 -164l-5 -26q-5 -29 -5 -64q0 -76 33.5 -117.5t96.5 -41.5 q51 0 89 29t51 65l112 -10q-12 -36 -41.5 -71.5t-89.5 -65.5t-134 -30q-125 0 -179.5 66.5t-54.5 167.5q0 37 6 72z" />
<glyph unicode="&#x10e;" horiz-adv-x="770" d="M612 988l-204 -148h-30l-156 148l40 37l145 -97l177 97zM163 80q54 -2 82 -2q297 0 345 298l4 28q6 39 6 75q0 223 -256 223q-29 0 -83 -2zM154 780q111 9 204 9q79 0 141.5 -17t103.5 -45.5t67.5 -68.5t38 -84.5t11.5 -94.5q0 -37 -6 -75l-4 -28q-9 -59 -30.5 -112.5 t-60.5 -104t-91.5 -87.5t-128.5 -59t-167 -22q-41 0 -91.5 2t-80.5 5l-30 2z" />
<glyph unicode="&#x10f;" horiz-adv-x="890" d="M852 698q-10 -3 -25 -3q-26 0 -42 13.5t-16 36.5q0 7 1 11q5 33 28 53.5t58 20.5q38 0 55.5 -21t17.5 -53q0 -6 -2 -20q-11 -68 -55.5 -114t-98.5 -67l-22 37q30 12 58.5 39.5t42.5 66.5zM41 289l3 22q9 55 30.5 106t57 96.5t90.5 73t122 27.5q108 0 158 -99l46 295h110 l-105 -667q-3 -17 -3 -30q0 -25 12.5 -37t42.5 -16l-40 -74q-112 15 -112 108q0 11 1 16q-90 -124 -209 -124q-109 0 -159.5 67t-50.5 168q0 35 6 68zM479 374q-6 68 -39 112.5t-96 44.5q-73 0 -122 -57t-65 -163l-3 -22q-6 -37 -6 -68q0 -74 31.5 -113t91.5 -39 q63 0 110 44.5t75 112.5z" />
<glyph unicode="&#x110;" horiz-adv-x="770" d="M7 357l10 66h80l57 357q111 9 204 9q79 0 141.5 -17t103.5 -45.5t67.5 -68.5t38 -84.5t11.5 -94.5q0 -37 -6 -75l-4 -28q-9 -59 -30.5 -112.5t-60.5 -104t-91.5 -87.5t-128.5 -59t-167 -22q-41 0 -91.5 2t-80.5 5l-30 2l57 357h-80zM163 80q54 -2 82 -2q297 0 345 298 l4 28q6 39 6 75q0 223 -256 223q-29 0 -83 -2l-44 -277h200l-10 -66h-200z" />
<glyph unicode="&#x111;" horiz-adv-x="680" d="M369 687l10 66h160l9 57h110l-9 -57h70l-10 -66h-70l-86 -544q-3 -17 -3 -30q0 -25 12.5 -37t42.5 -16l-40 -74q-112 15 -112 108q0 11 1 16q-90 -124 -209 -124q-109 0 -159.5 67t-50.5 168q0 35 6 68l3 22q9 55 30.5 106t57 96.5t90.5 73t122 27.5q108 0 158 -99 l27 172h-160zM479 374q-6 68 -39 112.5t-96 44.5q-73 0 -122 -57t-65 -163l-3 -22q-6 -37 -6 -68q0 -74 31.5 -113t91.5 -39q63 0 110 44.5t75 112.5z" />
<glyph unicode="&#x112;" horiz-adv-x="675" d="M237 894l11 72h390l-11 -72h-390zM30 0l124 780h515l-15 -93h-395l-41 -259h359l-14 -86h-359l-39 -249h410l-15 -93h-530z" />
<glyph unicode="&#x113;" horiz-adv-x="640" d="M193 744l11 72h390l-11 -72h-390zM40 286l5 28q9 56 30.5 106.5t58 97t96.5 74t135 27.5q108 0 164.5 -60t56.5 -152q0 -26 -4 -47q-5 -32 -21 -81h-411q-4 -28 -4 -58q0 -76 33.5 -118t97.5 -42q55 0 95 30t52 67l107 -10q-20 -60 -90 -113.5t-177 -53.5 q-123 0 -176.5 65.5t-53.5 166.5q0 37 6 73zM163 351h312q0 1 0.5 5t0.5 5q4 21 4 45q0 66 -34.5 99.5t-93.5 33.5q-70 0 -119 -49.5t-70 -138.5z" />
<glyph unicode="&#x114;" horiz-adv-x="675" d="M252 987l73 23q11 -95 110 -95q98 0 140 95l67 -23q-26 -60 -80.5 -101t-137.5 -41t-124 41t-48 101zM30 0l124 780h515l-15 -93h-395l-41 -259h359l-14 -86h-359l-39 -249h410l-15 -93h-530z" />
<glyph unicode="&#x115;" horiz-adv-x="640" d="M208 837l73 23q11 -95 110 -95q98 0 140 95l67 -23q-26 -60 -80.5 -101t-137.5 -41t-124 41t-48 101zM40 286l5 28q9 56 30.5 106.5t58 97t96.5 74t135 27.5q108 0 164.5 -60t56.5 -152q0 -26 -4 -47q-5 -32 -21 -81h-411q-4 -28 -4 -58q0 -76 33.5 -118t97.5 -42 q55 0 95 30t52 67l107 -10q-20 -60 -90 -113.5t-177 -53.5q-123 0 -176.5 65.5t-53.5 166.5q0 37 6 73zM163 351h312q0 1 0.5 5t0.5 5q4 21 4 45q0 66 -34.5 99.5t-93.5 33.5q-70 0 -119 -49.5t-70 -138.5z" />
<glyph unicode="&#x116;" horiz-adv-x="675" d="M449 1004q31 0 50.5 -16.5t19.5 -44.5q0 -9 -1 -13q-5 -34 -31 -54t-61 -20q-31 0 -50 16.5t-19 44.5q0 9 1 13q5 34 30.5 54t60.5 20zM30 0l124 780h515l-15 -93h-395l-41 -259h359l-14 -86h-359l-39 -249h410l-15 -93h-530z" />
<glyph unicode="&#x117;" horiz-adv-x="640" d="M405 854q31 0 50.5 -16.5t19.5 -44.5q0 -9 -1 -13q-5 -34 -31 -54t-61 -20q-31 0 -50 16.5t-19 44.5q0 9 1 13q5 34 30.5 54t60.5 20zM40 286l5 28q9 56 30.5 106.5t58 97t96.5 74t135 27.5q108 0 164.5 -60t56.5 -152q0 -26 -4 -47q-5 -32 -21 -81h-411q-4 -28 -4 -58 q0 -76 33.5 -118t97.5 -42q55 0 95 30t52 67l107 -10q-20 -60 -90 -113.5t-177 -53.5q-123 0 -176.5 65.5t-53.5 166.5q0 37 6 73zM163 351h312q0 1 0.5 5t0.5 5q4 21 4 45q0 66 -34.5 99.5t-93.5 33.5q-70 0 -119 -49.5t-70 -138.5z" />
<glyph unicode="&#x118;" horiz-adv-x="675" d="M30 0l124 780h515l-15 -93h-395l-41 -259h359l-14 -86h-359l-39 -249h410l-15 -93h-37q-56 -56 -68 -132q-2 -14 -2 -18q0 -46 47 -46q36 0 65 16l11 -54q-45 -21 -98 -21q-48 0 -73.5 23.5t-25.5 64.5q0 7 2 25q12 76 76 142h-427z" />
<glyph unicode="&#x119;" horiz-adv-x="640" d="M163 351h312q0 1 0.5 5t0.5 5q4 21 4 45q0 66 -34.5 99.5t-93.5 33.5q-70 0 -119 -49.5t-70 -138.5zM40 286l5 28q9 56 30.5 106.5t58 97t96.5 74t135 27.5q108 0 164.5 -60t56.5 -152q0 -26 -4 -47q-5 -32 -21 -81h-411q-4 -28 -4 -58q0 -76 33.5 -118t97.5 -42 q55 0 95 30t52 67l107 -10q-12 -37 -46 -75.5t-86 -62.5q-67 -61 -79 -142q-2 -14 -2 -18q0 -46 47 -46q36 0 65 16l11 -54q-45 -21 -98 -21q-48 0 -73.5 23.5t-25.5 64.5q0 7 2 25q11 69 61 126q-19 -3 -43 -3q-123 0 -176.5 65.5t-53.5 166.5q0 37 6 73z" />
<glyph unicode="&#x11a;" horiz-adv-x="675" d="M642 988l-204 -148h-30l-156 148l40 37l145 -97l177 97zM30 0l124 780h515l-15 -93h-395l-41 -259h359l-14 -86h-359l-39 -249h410l-15 -93h-530z" />
<glyph unicode="&#x11b;" horiz-adv-x="640" d="M598 838l-204 -148h-30l-156 148l40 37l145 -97l177 97zM40 286l5 28q9 56 30.5 106.5t58 97t96.5 74t135 27.5q108 0 164.5 -60t56.5 -152q0 -26 -4 -47q-5 -32 -21 -81h-411q-4 -28 -4 -58q0 -76 33.5 -118t97.5 -42q55 0 95 30t52 67l107 -10q-20 -60 -90 -113.5 t-177 -53.5q-123 0 -176.5 65.5t-53.5 166.5q0 37 6 73zM163 351h312q0 1 0.5 5t0.5 5q4 21 4 45q0 66 -34.5 99.5t-93.5 33.5q-70 0 -119 -49.5t-70 -138.5z" />
<glyph unicode="&#x11c;" horiz-adv-x="770" d="M293 867l203 148h30l157 -148l-40 -37l-146 97l-176 -97zM407 302l13 86h291l-39 -251q-40 -61 -123 -108.5t-200 -47.5q-82 0 -141.5 24.5t-92.5 68.5t-48 95t-15 113q0 50 7 92l5 32q9 58 28 111.5t52.5 106t79 90.5t111 61.5t144.5 23.5q71 0 125.5 -21t84 -54 t44 -67.5t15.5 -67.5l-124 -12q-2 50 -42.5 91t-117.5 41q-113 0 -184 -80.5t-93 -222.5l-5 -32q-7 -43 -7 -87q0 -103 47 -159.5t141 -56.5q131 0 201 80l24 151h-181z" />
<glyph unicode="&#x11d;" horiz-adv-x="670" d="M219 717l203 148h30l157 -148l-40 -37l-146 97l-176 -97zM45 315q8 53 29.5 103.5t57 95.5t90.5 72.5t122 27.5q110 0 161 -108l24 94h96l-99 -626q-14 -89 -89.5 -146t-184.5 -57q-98 0 -155 37t-65 78l110 29q4 -23 35 -44.5t87 -21.5q63 0 104.5 31.5t51.5 93.5 l23 148q-84 -106 -193 -106q-57 0 -99 20t-65.5 54t-34.5 74.5t-11 86.5q0 29 5 64zM479 372q-6 68 -39 113.5t-96 45.5q-72 0 -120.5 -57t-65.5 -159q-6 -35 -6 -65q0 -72 32 -111.5t92 -39.5q63 0 110 45.5t75 113.5z" />
<glyph unicode="&#x11e;" horiz-adv-x="770" d="M312 987l73 23q11 -95 110 -95q98 0 140 95l67 -23q-26 -60 -80.5 -101t-137.5 -41t-124 41t-48 101zM407 302l13 86h291l-39 -251q-40 -61 -123 -108.5t-200 -47.5q-82 0 -141.5 24.5t-92.5 68.5t-48 95t-15 113q0 50 7 92l5 32q9 58 28 111.5t52.5 106t79 90.5 t111 61.5t144.5 23.5q71 0 125.5 -21t84 -54t44 -67.5t15.5 -67.5l-124 -12q-2 50 -42.5 91t-117.5 41q-113 0 -184 -80.5t-93 -222.5l-5 -32q-7 -43 -7 -87q0 -103 47 -159.5t141 -56.5q131 0 201 80l24 151h-181z" />
<glyph unicode="&#x11f;" horiz-adv-x="670" d="M238 837l73 23q11 -95 110 -95q98 0 140 95l67 -23q-26 -60 -80.5 -101t-137.5 -41t-124 41t-48 101zM45 315q8 53 29.5 103.5t57 95.5t90.5 72.5t122 27.5q110 0 161 -108l24 94h96l-99 -626q-14 -89 -89.5 -146t-184.5 -57q-98 0 -155 37t-65 78l110 29q4 -23 35 -44.5 t87 -21.5q63 0 104.5 31.5t51.5 93.5l23 148q-84 -106 -193 -106q-57 0 -99 20t-65.5 54t-34.5 74.5t-11 86.5q0 29 5 64zM479 372q-6 68 -39 113.5t-96 45.5q-72 0 -120.5 -57t-65.5 -159q-6 -35 -6 -65q0 -72 32 -111.5t92 -39.5q63 0 110 45.5t75 113.5z" />
<glyph unicode="&#x120;" horiz-adv-x="770" d="M509 1004q31 0 50.5 -16.5t19.5 -44.5q0 -9 -1 -13q-5 -34 -31 -54t-61 -20q-31 0 -50 16.5t-19 44.5q0 9 1 13q5 34 30.5 54t60.5 20zM407 302l13 86h291l-39 -251q-40 -61 -123 -108.5t-200 -47.5q-82 0 -141.5 24.5t-92.5 68.5t-48 95t-15 113q0 50 7 92l5 32 q9 58 28 111.5t52.5 106t79 90.5t111 61.5t144.5 23.5q71 0 125.5 -21t84 -54t44 -67.5t15.5 -67.5l-124 -12q-2 50 -42.5 91t-117.5 41q-113 0 -184 -80.5t-93 -222.5l-5 -32q-7 -43 -7 -87q0 -103 47 -159.5t141 -56.5q131 0 201 80l24 151h-181z" />
<glyph unicode="&#x121;" horiz-adv-x="670" d="M435 854q31 0 50.5 -16.5t19.5 -44.5q0 -9 -1 -13q-5 -34 -31 -54t-61 -20q-31 0 -50 16.5t-19 44.5q0 9 1 13q5 34 30.5 54t60.5 20zM45 315q8 53 29.5 103.5t57 95.5t90.5 72.5t122 27.5q110 0 161 -108l24 94h96l-99 -626q-14 -89 -89.5 -146t-184.5 -57 q-98 0 -155 37t-65 78l110 29q4 -23 35 -44.5t87 -21.5q63 0 104.5 31.5t51.5 93.5l23 148q-84 -106 -193 -106q-57 0 -99 20t-65.5 54t-34.5 74.5t-11 86.5q0 29 5 64zM479 372q-6 68 -39 113.5t-96 45.5q-72 0 -120.5 -57t-65.5 -159q-6 -35 -6 -65q0 -72 32 -111.5 t92 -39.5q63 0 110 45.5t75 113.5z" />
<glyph unicode="&#x122;" horiz-adv-x="770" d="M324 -202q-11 -3 -24 -3q-26 0 -42.5 13.5t-16.5 36.5q0 7 1 11q5 33 28.5 53.5t58.5 20.5q38 0 55 -20.5t17 -52.5q0 -7 -2 -21q-11 -68 -55.5 -114t-98.5 -67l-22 37q30 12 58.5 39.5t42.5 66.5zM407 302l13 86h291l-39 -251q-40 -61 -123 -108.5t-200 -47.5 q-82 0 -141.5 24.5t-92.5 68.5t-48 95t-15 113q0 50 7 92l5 32q9 58 28 111.5t52.5 106t79 90.5t111 61.5t144.5 23.5q71 0 125.5 -21t84 -54t44 -67.5t15.5 -67.5l-124 -12q-2 50 -42.5 91t-117.5 41q-113 0 -184 -80.5t-93 -222.5l-5 -32q-7 -43 -7 -87q0 -103 47 -159.5 t141 -56.5q131 0 201 80l24 151h-181z" />
<glyph unicode="&#x123;" horiz-adv-x="670" d="M426 832q10 3 24 3q26 0 42.5 -13.5t16.5 -36.5q0 -7 -1 -11q-5 -33 -28.5 -53.5t-58.5 -20.5q-38 0 -55 20.5t-17 52.5q0 7 2 21q11 68 55.5 114.5t97.5 66.5l23 -37q-30 -12 -58.5 -39.5t-42.5 -66.5zM45 315q8 53 29.5 103.5t57 95.5t90.5 72.5t122 27.5 q110 0 161 -108l24 94h96l-99 -626q-14 -89 -89.5 -146t-184.5 -57q-98 0 -155 37t-65 78l110 29q4 -23 35 -44.5t87 -21.5q63 0 104.5 31.5t51.5 93.5l23 148q-84 -106 -193 -106q-57 0 -99 20t-65.5 54t-34.5 74.5t-11 86.5q0 29 5 64zM479 372q-6 68 -39 113.5t-96 45.5 q-72 0 -120.5 -57t-65.5 -159q-6 -35 -6 -65q0 -72 32 -111.5t92 -39.5q63 0 110 45.5t75 113.5z" />
<glyph unicode="&#x124;" horiz-adv-x="790" d="M278 867l203 148h30l157 -148l-40 -37l-146 97l-176 -97zM30 0l124 780h120l-55 -344h370l55 344h120l-124 -780h-120l54 344h-370l-54 -344h-120z" />
<glyph unicode="&#x125;" horiz-adv-x="665" d="M23 897l203 148h30l157 -148l-40 -37l-146 97l-176 -97zM25 0l128 810h110l-57 -362q108 166 253 166q73 0 109 -43.5t36 -111.5q0 -21 -3 -43l-66 -416h-113l65 412q3 16 3 31q0 81 -75 81q-69 0 -136 -69.5t-94 -156.5l-47 -298h-113z" />
<glyph unicode="&#x126;" horiz-adv-x="790" d="M59 627l11 66h70l14 87h120l-14 -87h370l14 87h120l-14 -87h70l-11 -66h-70l-99 -627h-120l54 344h-370l-54 -344h-120l99 627h-70zM619 627h-370l-30 -191h370z" />
<glyph unicode="&#x127;" horiz-adv-x="665" d="M64 687l10 66h70l9 57h110l-9 -57h160l-10 -66h-160l-38 -239q108 166 253 166q73 0 109 -43.5t36 -111.5q0 -21 -3 -43l-66 -416h-113l65 412q3 16 3 31q0 81 -75 81q-69 0 -136 -69.5t-94 -156.5l-47 -298h-113l109 687h-70z" />
<glyph unicode="&#x128;" horiz-adv-x="320" d="M46 888q15 26 26 43.5t28.5 37.5t38.5 30.5t45 10.5t45.5 -10.5t28 -17l23.5 -23.5q3 -4 9 -11t9.5 -10.5t8 -7.5t8.5 -6t9 -2t10 2t10 6t9 7.5t9 10.5t8 11t8 12.5t6.5 11.5t6.5 11l4 9l55 -21q-29 -55 -61.5 -88.5t-77.5 -33.5q-10 0 -19 1.5t-15.5 3.5t-14.5 6.5 t-11.5 6.5t-11 8.5t-9 8t-8.5 9.5l-7 7q-3 3 -9.5 10.5t-9.5 11t-8 8t-9 6t-9 1.5q-9 0 -17.5 -5.5t-16.5 -17t-13.5 -19t-13.5 -22.5t-9 -17zM40 0l124 780h120l-124 -780h-120z" />
<glyph unicode="&#x129;" horiz-adv-x="300" d="M12 738q15 26 26 43.5t28.5 37.5t38.5 30.5t45 10.5t45.5 -10.5t28 -17l23.5 -23.5q3 -4 9 -11t9.5 -10.5t8 -7.5t8.5 -6t9 -2t10 2t10 6t9 7.5t9 10.5t8 11t8 12.5t6.5 11.5t6.5 11l4 9l55 -21q-29 -55 -61.5 -88.5t-77.5 -33.5q-10 0 -19 1.5t-15.5 3.5t-14.5 6.5 t-11.5 6.5t-11 8.5t-9 8t-8.5 9.5l-7 7q-3 3 -9.5 10.5t-9.5 11t-8 8t-9 6t-9 1.5q-9 0 -17.5 -5.5t-16.5 -17t-13.5 -19t-13.5 -22.5t-9 -17zM33 0l95 600h114l-95 -600h-114z" />
<glyph unicode="&#x12a;" horiz-adv-x="320" d="M47 894l11 72h390l-11 -72h-390zM40 0l124 780h120l-124 -780h-120z" />
<glyph unicode="&#x12b;" horiz-adv-x="300" d="M13 744l11 72h390l-11 -72h-390zM33 0l95 600h114l-95 -600h-114z" />
<glyph unicode="&#x12c;" horiz-adv-x="320" d="M62 987l73 23q11 -95 110 -95q98 0 140 95l67 -23q-26 -60 -80.5 -101t-137.5 -41t-124 41t-48 101zM40 0l124 780h120l-124 -780h-120z" />
<glyph unicode="&#x12d;" horiz-adv-x="300" d="M28 837l73 23q11 -95 110 -95q98 0 140 95l67 -23q-26 -60 -80.5 -101t-137.5 -41t-124 41t-48 101zM33 0l95 600h114l-95 -600h-114z" />
<glyph unicode="&#x12e;" horiz-adv-x="320" d="M40 0l124 780h120l-124 -780h-17q-56 -56 -68 -132q-2 -14 -2 -18q0 -46 47 -46q36 0 65 16l11 -54q-45 -21 -98 -21q-48 0 -73.5 23.5t-25.5 64.5q0 7 2 25q12 76 76 142h-37z" />
<glyph unicode="&#x12f;" horiz-adv-x="300" d="M225 854q31 0 50.5 -16.5t19.5 -44.5q0 -9 -1 -13q-5 -34 -31 -54t-61 -20q-31 0 -50 16.5t-19 44.5q0 9 1 13q5 34 30.5 54t60.5 20zM33 0l95 600h114l-95 -600h-14q-56 -56 -68 -132q-2 -14 -2 -18q0 -46 47 -46q36 0 65 16l11 -54q-45 -21 -98 -21q-48 0 -73.5 23.5 t-25.5 64.5q0 7 2 25q12 76 76 142h-34z" />
<glyph unicode="&#x130;" horiz-adv-x="320" d="M259 1004q31 0 50.5 -16.5t19.5 -44.5q0 -9 -1 -13q-5 -34 -31 -54t-61 -20q-31 0 -50 16.5t-19 44.5q0 9 1 13q5 34 30.5 54t60.5 20zM40 0l124 780h120l-124 -780h-120z" />
<glyph unicode="&#x131;" horiz-adv-x="300" d="M33 0l95 600h114l-95 -600h-114z" />
<glyph unicode="&#x134;" horiz-adv-x="520" d="M243 867l203 148h30l157 -148l-40 -37l-146 97l-176 -97zM-18 138l122 9v-3q0 -38 19.5 -57.5t52.5 -19.5q83 0 99 97l98 616h121l-98 -616q-13 -77 -76 -130t-158 -53q-90 0 -135 46.5t-45 108.5v2z" />
<glyph unicode="&#x135;" horiz-adv-x="310" d="M19 717l203 148h30l157 -148l-40 -37l-146 97l-176 -97zM-89 -151q57 18 89 48.5t41 88.5l97 614h114l-98 -621q-13 -79 -73.5 -130t-144.5 -73z" />
<glyph unicode="&#x136;" horiz-adv-x="715" d="M274 -202q-10 -3 -24 -3q-26 0 -42.5 13.5t-16.5 36.5q0 7 1 11q5 33 28.5 53.5t58.5 20.5q38 0 55 -20.5t17 -52.5q0 -7 -2 -21q-11 -68 -55.5 -114t-98.5 -67l-22 37q30 12 58.5 39.5t42.5 66.5zM30 0l124 780h116l-59 -372l387 372l132 -9l-1 -6l-351 -315l273 -444 l-1 -6h-141l-220 369l-98 -88l-45 -281h-116z" />
<glyph unicode="&#x137;" horiz-adv-x="605" d="M274 -202q-10 -3 -24 -3q-26 0 -42.5 13.5t-16.5 36.5q0 7 1 11q5 33 28.5 53.5t58.5 20.5q38 0 55 -20.5t17 -52.5q0 -7 -2 -21q-11 -68 -55.5 -114t-98.5 -67l-22 37q30 12 58.5 39.5t42.5 66.5zM35 0l128 810h108l-76 -481l286 271l123 -7l-1 -5l-276 -244l214 -339 l-1 -5h-130l-165 271l-69 -60l-33 -211h-108z" />
<glyph unicode="&#x138;" horiz-adv-x="610" d="M35 0l95 600h108l-43 -271l286 271l123 -7l-1 -5l-276 -244l214 -339l-1 -5h-130l-165 271l-69 -60l-33 -211h-108z" />
<glyph unicode="&#x139;" horiz-adv-x="570" d="M410 978l-255 -133l-24 45l242 165zM30 0l124 780h122l-109 -687h333l-15 -93h-455z" />
<glyph unicode="&#x13a;" horiz-adv-x="315" d="M395 1008l-255 -133l-24 45l242 165zM50 128l108 682h113l-106 -672q-1 -6 -1 -16q0 -30 22.5 -44t68.5 -18l-34 -74q-173 14 -173 118q0 8 2 24z" />
<glyph unicode="&#x13b;" horiz-adv-x="570" d="M234 -202q-11 -3 -24 -3q-26 0 -42.5 13.5t-16.5 36.5q0 7 1 11q5 33 28.5 53.5t58.5 20.5q38 0 55 -20.5t17 -52.5q0 -7 -2 -21q-11 -68 -55.5 -114t-98.5 -67l-22 37q30 12 58.5 39.5t42.5 66.5zM30 0l124 780h122l-109 -687h333l-15 -93h-455z" />
<glyph unicode="&#x13c;" horiz-adv-x="315" d="M104 -202q-10 -3 -24 -3q-26 0 -42.5 13.5t-16.5 36.5q0 7 1 11q5 33 28.5 53.5t58.5 20.5q38 0 55 -20.5t17 -52.5q0 -7 -2 -21q-11 -68 -55.5 -114t-98.5 -67l-22 37q30 12 58.5 39.5t42.5 66.5zM50 128l108 682h113l-106 -672q-1 -6 -1 -16q0 -30 22.5 -44t68.5 -18 l-34 -74q-173 14 -173 118q0 8 2 24z" />
<glyph unicode="&#x13d;" horiz-adv-x="570" d="M30 0l124 780h122l-109 -687h333l-15 -93h-455zM502 698q-10 -3 -25 -3q-26 0 -42 13.5t-16 36.5q0 7 1 11q5 33 28 53.5t58 20.5q38 0 55.5 -21t17.5 -53q0 -6 -2 -20q-11 -68 -55.5 -114t-98.5 -67l-22 37q30 12 58.5 39.5t42.5 66.5z" />
<glyph unicode="&#x13e;" horiz-adv-x="525" d="M50 128l108 682h113l-106 -672q-1 -6 -1 -16q0 -30 22.5 -44t68.5 -18l-34 -74q-173 14 -173 118q0 8 2 24zM487 698q-11 -3 -25 -3q-26 0 -42 13.5t-16 36.5q0 7 1 11q5 33 28 53.5t58 20.5q38 0 55.5 -21t17.5 -53q0 -6 -2 -20q-11 -68 -55.5 -114t-98.5 -67l-22 37 q30 12 58.5 39.5t42.5 66.5z" />
<glyph unicode="&#x13f;" horiz-adv-x="570" d="M30 0l124 780h122l-109 -687h333l-15 -93h-455zM444 434q31 0 50 -16.5t19 -44.5q0 -9 -1 -13q-5 -34 -31 -54t-61 -20q-31 0 -50 16.5t-19 44.5q0 9 1 13q5 34 31 54t61 20z" />
<glyph unicode="&#x140;" horiz-adv-x="510" d="M50 128l108 682h113l-106 -672q-1 -6 -1 -16q0 -30 22.5 -44t68.5 -18l-34 -74q-173 14 -173 118q0 8 2 24zM394 434q31 0 50 -16.5t19 -44.5q0 -9 -1 -13q-5 -34 -31 -54t-61 -20q-31 0 -50 16.5t-19 44.5q0 9 1 13q5 34 31 54t61 20z" />
<glyph unicode="&#x141;" horiz-adv-x="580" d="M234 453l142 84l-2 -72l-153 -90l-44 -282h333l-15 -93h-455l47 296l-90 -53l3 72l99 59l65 406h122z" />
<glyph unicode="&#x142;" horiz-adv-x="360" d="M224 447l152 90l-2 -72l-163 -96l-36 -231q-1 -6 -1 -16q0 -30 22.5 -44t68.5 -18l-34 -74q-173 14 -173 118q0 8 2 24l27 168l-90 -53l3 72l99 59l69 436h113z" />
<glyph unicode="&#x143;" horiz-adv-x="790" d="M645 978l-255 -133l-24 45l242 165zM30 0l122 769l105 11l297 -587l93 587h117l-124 -780h-103l-297 587l-93 -587h-117z" />
<glyph unicode="&#x144;" horiz-adv-x="655" d="M556 828l-255 -133l-24 45l242 165zM25 0l67 420l17 174l105 9l-8 -150q102 161 244 161q72 0 108 -43t36 -112q0 -22 -3 -43l-66 -416h-113l65 412q3 16 3 31q0 42 -20.5 61.5t-53.5 19.5q-67 0 -131 -69t-90 -156l-47 -299h-113z" />
<glyph unicode="&#x145;" horiz-adv-x="790" d="M309 -202q-11 -3 -24 -3q-26 0 -42.5 13.5t-16.5 36.5q0 7 1 11q5 33 28.5 53.5t58.5 20.5q38 0 55 -20.5t17 -52.5q0 -7 -2 -21q-11 -68 -55.5 -114t-98.5 -67l-22 37q30 12 58.5 39.5t42.5 66.5zM30 0l122 769l105 11l297 -587l93 587h117l-124 -780h-103l-297 587 l-93 -587h-117z" />
<glyph unicode="&#x146;" horiz-adv-x="655" d="M274 -202q-10 -3 -24 -3q-26 0 -42.5 13.5t-16.5 36.5q0 7 1 11q5 33 28.5 53.5t58.5 20.5q38 0 55 -20.5t17 -52.5q0 -7 -2 -21q-11 -68 -55.5 -114t-98.5 -67l-22 37q30 12 58.5 39.5t42.5 66.5zM25 0l67 420l17 174l105 9l-8 -150q102 161 244 161q72 0 108 -43 t36 -112q0 -22 -3 -43l-66 -416h-113l65 412q3 16 3 31q0 42 -20.5 61.5t-53.5 19.5q-67 0 -131 -69t-90 -156l-47 -299h-113z" />
<glyph unicode="&#x147;" horiz-adv-x="790" d="M687 988l-204 -148h-30l-156 148l40 37l145 -97l177 97zM30 0l122 769l105 11l297 -587l93 587h117l-124 -780h-103l-297 587l-93 -587h-117z" />
<glyph unicode="&#x148;" horiz-adv-x="655" d="M598 838l-204 -148h-30l-156 148l40 37l145 -97l177 97zM25 0l67 420l17 174l105 9l-8 -150q102 161 244 161q72 0 108 -43t36 -112q0 -22 -3 -43l-66 -416h-113l65 412q3 16 3 31q0 42 -20.5 61.5t-53.5 19.5q-67 0 -131 -69t-90 -156l-47 -299h-113z" />
<glyph unicode="&#x149;" horiz-adv-x="865" d="M93 808q5 34 30.5 56t61.5 22q40 0 59.5 -24.5t19.5 -62.5q0 -9 -2 -27q-12 -76 -61.5 -135t-114.5 -97l-28 47q92 53 121 151q-12 -2 -20 -2q-30 0 -48.5 16.5t-18.5 43.5q0 8 1 12zM235 0l67 420l17 174l105 9l-8 -150q102 161 244 161q72 0 108 -43t36 -112 q0 -22 -3 -43l-66 -416h-113l65 412q3 16 3 31q0 42 -20.5 61.5t-53.5 19.5q-67 0 -131 -69t-90 -156l-47 -299h-113z" />
<glyph unicode="&#x14c;" horiz-adv-x="820" d="M297 894l11 72h390l-11 -72h-390zM59 372l6 36q9 58 27.5 111t52 105t78 90t110 61.5t144.5 23.5q82 0 141.5 -24.5t92 -68t47.5 -94.5t15 -112q0 -44 -8 -92l-6 -36q-9 -58 -27.5 -111t-52 -105t-78 -90t-110 -61.5t-144.5 -23.5q-82 0 -141.5 24.5t-92 68t-47.5 94.5 t-15 112q0 44 8 92zM361 71q112 0 182.5 80t92.5 221l6 36q7 43 7 87q0 102 -47 158t-140 56q-112 0 -182 -80t-92 -221l-6 -36q-7 -43 -7 -88q0 -102 46.5 -157.5t139.5 -55.5z" />
<glyph unicode="&#x14d;" horiz-adv-x="660" d="M193 744l11 72h390l-11 -72h-390zM40 286l5 28q9 56 30 106.5t57.5 97t97.5 74t138 27.5q65 0 112 -19.5t72.5 -53.5t37 -73.5t11.5 -86.5q0 -38 -6 -72l-5 -28q-9 -56 -30 -106.5t-57.5 -97t-97.5 -74t-138 -27.5q-65 0 -112 19.5t-72.5 53.5t-37 73.5t-11.5 86.5 q0 38 6 72zM280 63q78 0 129 58.5t68 164.5l5 28q6 35 6 66q0 76 -34 116.5t-99 40.5q-78 0 -129 -58.5t-68 -164.5l-5 -28q-6 -34 -6 -66q0 -76 34 -116.5t99 -40.5z" />
<glyph unicode="&#x14e;" horiz-adv-x="820" d="M312 987l73 23q11 -95 110 -95q98 0 140 95l67 -23q-26 -60 -80.5 -101t-137.5 -41t-124 41t-48 101zM59 372l6 36q9 58 27.5 111t52 105t78 90t110 61.5t144.5 23.5q82 0 141.5 -24.5t92 -68t47.5 -94.5t15 -112q0 -44 -8 -92l-6 -36q-9 -58 -27.5 -111t-52 -105 t-78 -90t-110 -61.5t-144.5 -23.5q-82 0 -141.5 24.5t-92 68t-47.5 94.5t-15 112q0 44 8 92zM361 71q112 0 182.5 80t92.5 221l6 36q7 43 7 87q0 102 -47 158t-140 56q-112 0 -182 -80t-92 -221l-6 -36q-7 -43 -7 -88q0 -102 46.5 -157.5t139.5 -55.5z" />
<glyph unicode="&#x14f;" horiz-adv-x="660" d="M208 837l73 23q11 -95 110 -95q98 0 140 95l67 -23q-26 -60 -80.5 -101t-137.5 -41t-124 41t-48 101zM40 286l5 28q9 56 30 106.5t57.5 97t97.5 74t138 27.5q65 0 112 -19.5t72.5 -53.5t37 -73.5t11.5 -86.5q0 -38 -6 -72l-5 -28q-9 -56 -30 -106.5t-57.5 -97t-97.5 -74 t-138 -27.5q-65 0 -112 19.5t-72.5 53.5t-37 73.5t-11.5 86.5q0 38 6 72zM280 63q78 0 129 58.5t68 164.5l5 28q6 35 6 66q0 76 -34 116.5t-99 40.5q-78 0 -129 -58.5t-68 -164.5l-5 -28q-6 -34 -6 -66q0 -76 34 -116.5t99 -40.5z" />
<glyph unicode="&#x150;" horiz-adv-x="820" d="M324 875l143 190l59 -48l-166 -172zM534 875l143 190l59 -48l-166 -172zM59 372l6 36q9 58 27.5 111t52 105t78 90t110 61.5t144.5 23.5q82 0 141.5 -24.5t92 -68t47.5 -94.5t15 -112q0 -44 -8 -92l-6 -36q-9 -58 -27.5 -111t-52 -105t-78 -90t-110 -61.5t-144.5 -23.5 q-82 0 -141.5 24.5t-92 68t-47.5 94.5t-15 112q0 44 8 92zM361 71q112 0 182.5 80t92.5 221l6 36q7 43 7 87q0 102 -47 158t-140 56q-112 0 -182 -80t-92 -221l-6 -36q-7 -43 -7 -88q0 -102 46.5 -157.5t139.5 -55.5z" />
<glyph unicode="&#x151;" horiz-adv-x="660" d="M220 725l143 190l59 -48l-166 -172zM430 725l143 190l59 -48l-166 -172zM40 286l5 28q9 56 30 106.5t57.5 97t97.5 74t138 27.5q65 0 112 -19.5t72.5 -53.5t37 -73.5t11.5 -86.5q0 -38 -6 -72l-5 -28q-9 -56 -30 -106.5t-57.5 -97t-97.5 -74t-138 -27.5q-65 0 -112 19.5 t-72.5 53.5t-37 73.5t-11.5 86.5q0 38 6 72zM280 63q78 0 129 58.5t68 164.5l5 28q6 35 6 66q0 76 -34 116.5t-99 40.5q-78 0 -129 -58.5t-68 -164.5l-5 -28q-6 -34 -6 -66q0 -76 34 -116.5t99 -40.5z" />
<glyph unicode="&#x152;" horiz-adv-x="980" d="M59 372l6 36q9 58 27.5 111t52 105t78 90t110 61.5t144.5 23.5q76 0 127 -19h370l-15 -93h-335l-41 -259h299l-14 -86h-299l-39 -249h350l-15 -93h-385q-57 -19 -133 -19q-82 0 -141.5 24.5t-92 68t-47.5 94.5t-15 112q0 44 8 92zM507 705q-19 4 -45 4q-112 0 -182 -80 t-92 -221l-6 -36q-7 -43 -7 -88q0 -102 46.5 -157.5t139.5 -55.5q27 0 46 4z" />
<glyph unicode="&#x153;" horiz-adv-x="960" d="M40 286l5 28q9 56 27.5 105t50.5 96.5t86.5 75.5t123.5 28q126 0 167 -96q79 96 202 96q101 0 152.5 -58.5t51.5 -148.5q0 -29 -4 -52q-5 -36 -21 -81h-375q-5 -31 -5 -68q0 -150 113 -150q52 0 87 29.5t47 67.5l107 -10q-20 -60 -87.5 -113.5t-166.5 -53.5 q-125 0 -173 95q-71 -95 -196 -95q-56 0 -96.5 18.5t-62 51t-31 70t-9.5 82.5q0 36 7 83zM320 537q-60 0 -102.5 -58t-59.5 -165l-5 -28q-7 -41 -7 -79q0 -70 25.5 -107t73.5 -37q58 0 99.5 58t58.5 165l5 28q7 42 7 81q0 69 -24.5 105.5t-70.5 36.5zM519 351h276q0 1 0.5 5 t0.5 5q4 25 4 51q0 63 -29 95t-82 32q-60 0 -104.5 -49.5t-65.5 -138.5z" />
<glyph unicode="&#x154;" horiz-adv-x="730" d="M610 978l-255 -133l-24 45l242 165zM295 320q-66 2 -95 3l-51 -323h-119l52 329l72 451q162 9 261 9q130 0 208 -52.5t78 -145.5q0 -17 -3 -37q-15 -93 -88 -152t-184 -76l215 -320l-1 -6h-136zM214 410q64 -4 126 -4q215 0 239 148q2 9 2 27q0 122 -194 122 q-63 0 -127 -4z" />
<glyph unicode="&#x155;" horiz-adv-x="435" d="M466 828l-255 -133l-24 45l242 165zM104 592l97 11l12 -138q71 149 188 149q37 0 69 -15l-58 -94q-21 12 -44 12q-52 0 -94.5 -58t-65.5 -141l-50 -318h-113l69 435z" />
<glyph unicode="&#x156;" horiz-adv-x="730" d="M274 -202q-10 -3 -24 -3q-26 0 -42.5 13.5t-16.5 36.5q0 7 1 11q5 33 28.5 53.5t58.5 20.5q38 0 55 -20.5t17 -52.5q0 -7 -2 -21q-11 -68 -55.5 -114t-98.5 -67l-22 37q30 12 58.5 39.5t42.5 66.5zM295 320q-66 2 -95 3l-51 -323h-119l52 329l72 451q162 9 261 9 q130 0 208 -52.5t78 -145.5q0 -17 -3 -37q-15 -93 -88 -152t-184 -76l215 -320l-1 -6h-136zM214 410q64 -4 126 -4q215 0 239 148q2 9 2 27q0 122 -194 122q-63 0 -127 -4z" />
<glyph unicode="&#x157;" horiz-adv-x="435" d="M84 -202q-10 -3 -24 -3q-26 0 -42.5 13.5t-16.5 36.5q0 7 1 11q5 33 28.5 53.5t58.5 20.5q38 0 55 -20.5t17 -52.5q0 -7 -2 -21q-11 -68 -55.5 -114t-98.5 -67l-22 37q30 12 58.5 39.5t42.5 66.5zM104 592l97 11l12 -138q71 149 188 149q37 0 69 -15l-58 -94 q-21 12 -44 12q-52 0 -94.5 -58t-65.5 -141l-50 -318h-113l69 435z" />
<glyph unicode="&#x158;" horiz-adv-x="730" d="M652 988l-204 -148h-30l-156 148l40 37l145 -97l177 97zM295 320q-66 2 -95 3l-51 -323h-119l52 329l72 451q162 9 261 9q130 0 208 -52.5t78 -145.5q0 -17 -3 -37q-15 -93 -88 -152t-184 -76l215 -320l-1 -6h-136zM214 410q64 -4 126 -4q215 0 239 148q2 9 2 27 q0 122 -194 122q-63 0 -127 -4z" />
<glyph unicode="&#x159;" horiz-adv-x="435" d="M508 838l-204 -148h-30l-156 148l40 37l145 -97l177 97zM104 592l97 11l12 -138q71 149 188 149q37 0 69 -15l-58 -94q-21 12 -44 12q-52 0 -94.5 -58t-65.5 -141l-50 -318h-113l69 435z" />
<glyph unicode="&#x15a;" horiz-adv-x="710" d="M605 978l-255 -133l-24 45l242 165zM23 179l122 17q1 -50 42 -89t119 -39q89 0 141.5 35t62.5 97q2 16 2 22q0 70 -81 95q-109 32 -192 64q-136 54 -136 168q0 20 2 30q15 96 103.5 158t213.5 62q63 0 113 -19t78 -49t42.5 -62.5t15.5 -63.5l-122 -17q-2 49 -38.5 86.5 t-102.5 37.5q-76 0 -126.5 -35t-59.5 -93q-1 -6 -1 -16q0 -34 23 -54t63 -36q44 -17 182 -62q60 -19 101 -61.5t41 -111.5q0 -17 -3 -37q-15 -98 -107 -161.5t-229 -63.5q-69 0 -123 19.5t-84 50t-45.5 63.5t-16.5 65z" />
<glyph unicode="&#x15b;" horiz-adv-x="570" d="M511 828l-255 -133l-24 45l242 165zM7 139l112 14q0 -37 31 -64.5t89 -27.5q61 0 98.5 26t44.5 69q1 5 1 15q0 51 -60 70q-105 32 -144 47q-110 43 -110 131q0 7 2 25q12 76 81.5 125.5t170.5 49.5q99 0 149 -48.5t51 -105.5l-113 -15q0 37 -25 63t-75 26 q-53 0 -88 -24.5t-42 -66.5q-1 -4 -1 -11q0 -45 62 -67q23 -8 138 -44q113 -36 113 -135q0 -20 -2 -31q-12 -78 -85.5 -128.5t-182.5 -50.5q-107 0 -160 49.5t-55 108.5z" />
<glyph unicode="&#x15c;" horiz-adv-x="710" d="M238 867l203 148h30l157 -148l-40 -37l-146 97l-176 -97zM23 179l122 17q1 -50 42 -89t119 -39q89 0 141.5 35t62.5 97q2 16 2 22q0 70 -81 95q-109 32 -192 64q-136 54 -136 168q0 20 2 30q15 96 103.5 158t213.5 62q63 0 113 -19t78 -49t42.5 -62.5t15.5 -63.5 l-122 -17q-2 49 -38.5 86.5t-102.5 37.5q-76 0 -126.5 -35t-59.5 -93q-1 -6 -1 -16q0 -34 23 -54t63 -36q44 -17 182 -62q60 -19 101 -61.5t41 -111.5q0 -17 -3 -37q-15 -98 -107 -161.5t-229 -63.5q-69 0 -123 19.5t-84 50t-45.5 63.5t-16.5 65z" />
<glyph unicode="&#x15d;" horiz-adv-x="570" d="M144 717l203 148h30l157 -148l-40 -37l-146 97l-176 -97zM7 139l112 14q0 -37 31 -64.5t89 -27.5q61 0 98.5 26t44.5 69q1 5 1 15q0 51 -60 70q-105 32 -144 47q-110 43 -110 131q0 7 2 25q12 76 81.5 125.5t170.5 49.5q99 0 149 -48.5t51 -105.5l-113 -15q0 37 -25 63 t-75 26q-53 0 -88 -24.5t-42 -66.5q-1 -4 -1 -11q0 -45 62 -67q23 -8 138 -44q113 -36 113 -135q0 -20 -2 -31q-12 -78 -85.5 -128.5t-182.5 -50.5q-107 0 -160 49.5t-55 108.5z" />
<glyph unicode="&#x15e;" horiz-adv-x="710" d="M181 -278q153 35 163 103v5q0 33 -63 33q-17 0 -45 -5l-28 34l63 89q-64 3 -113.5 23t-77.5 50.5t-42 62t-15 62.5l122 17q1 -50 42 -89t119 -39q89 0 141.5 35t62.5 97q2 16 2 22q0 70 -81 95q-109 32 -192 64q-136 54 -136 168q0 20 2 30q15 96 103.5 158t213.5 62 q63 0 113 -19t78 -49t42.5 -62.5t15.5 -63.5l-122 -17q-2 49 -38.5 86.5t-102.5 37.5q-76 0 -126.5 -35t-59.5 -93q-1 -6 -1 -16q0 -34 23 -54t63 -36q44 -17 182 -62q60 -19 101 -61.5t41 -111.5q0 -17 -3 -37q-14 -90 -93 -151.5t-199 -71.5l-48 -68h14q55 0 85.5 -19.5 t30.5 -55.5q0 -10 -1 -15q-17 -106 -219 -153q-5 -1 -7 -2z" />
<glyph unicode="&#x15f;" horiz-adv-x="570" d="M111 -278q153 35 163 103v5q0 33 -63 33q-17 0 -45 -5l-28 34l64 90q-51 3 -90 19t-61 39.5t-33 48.5t-11 50l112 14q0 -37 31 -64.5t89 -27.5q61 0 98.5 26t44.5 69q1 5 1 15q0 51 -60 70q-105 32 -144 47q-110 43 -110 131q0 7 2 25q12 76 81.5 125.5t170.5 49.5 q99 0 149 -48.5t51 -105.5l-113 -15q0 37 -25 63t-75 26q-53 0 -88 -24.5t-42 -66.5q-1 -4 -1 -11q0 -45 62 -67q23 -8 138 -44q113 -36 113 -135q0 -20 -2 -31q-11 -69 -71.5 -118t-152.5 -59l-48 -68h14q55 0 85.5 -19.5t30.5 -55.5q0 -10 -1 -15q-17 -106 -219 -153 q-5 -1 -7 -2z" />
<glyph unicode="&#x160;" horiz-adv-x="710" d="M647 988l-204 -148h-30l-156 148l40 37l145 -97l177 97zM23 179l122 17q1 -50 42 -89t119 -39q89 0 141.5 35t62.5 97q2 16 2 22q0 70 -81 95q-109 32 -192 64q-136 54 -136 168q0 20 2 30q15 96 103.5 158t213.5 62q63 0 113 -19t78 -49t42.5 -62.5t15.5 -63.5l-122 -17 q-2 49 -38.5 86.5t-102.5 37.5q-76 0 -126.5 -35t-59.5 -93q-1 -6 -1 -16q0 -34 23 -54t63 -36q44 -17 182 -62q60 -19 101 -61.5t41 -111.5q0 -17 -3 -37q-15 -98 -107 -161.5t-229 -63.5q-69 0 -123 19.5t-84 50t-45.5 63.5t-16.5 65z" />
<glyph unicode="&#x161;" horiz-adv-x="570" d="M553 838l-204 -148h-30l-156 148l40 37l145 -97l177 97zM7 139l112 14q0 -37 31 -64.5t89 -27.5q61 0 98.5 26t44.5 69q1 5 1 15q0 51 -60 70q-105 32 -144 47q-110 43 -110 131q0 7 2 25q12 76 81.5 125.5t170.5 49.5q99 0 149 -48.5t51 -105.5l-113 -15q0 37 -25 63 t-75 26q-53 0 -88 -24.5t-42 -66.5q-1 -4 -1 -11q0 -45 62 -67q23 -8 138 -44q113 -36 113 -135q0 -20 -2 -31q-12 -78 -85.5 -128.5t-182.5 -50.5q-107 0 -160 49.5t-55 108.5z" />
<glyph unicode="&#x162;" horiz-adv-x="620" d="M121 -278q153 35 163 103v5q0 33 -63 33q-17 0 -45 -5l-28 34l77 108h-35l109 691h-220l15 89h560l-15 -89h-220l-109 -691h-21l-61 -85h14q55 0 85.5 -19.5t30.5 -55.5q0 -10 -1 -15q-17 -106 -219 -153q-5 -1 -7 -2z" />
<glyph unicode="&#x163;" horiz-adv-x="415" d="M71 -278q153 35 163 103v5q0 33 -63 33q-17 0 -45 -5l-28 34l69 98q-90 16 -90 105q0 15 3 33l64 400h-90l11 72h94l20 126l108 9l-21 -135h149l-11 -72h-147l-61 -384q-3 -18 -3 -31q0 -26 11 -36t35 -10q57 0 99 25l15 -74q-56 -28 -124 -32l-51 -71h14 q55 0 85.5 -19.5t30.5 -55.5q0 -10 -1 -15q-17 -106 -219 -153q-5 -1 -7 -2z" />
<glyph unicode="&#x164;" horiz-adv-x="620" d="M602 988l-204 -148h-30l-156 148l40 37l145 -97l177 97zM79 691l15 89h560l-15 -89h-220l-109 -691h-120l109 691h-220z" />
<glyph unicode="&#x165;" horiz-adv-x="625" d="M54 528l11 72h94l20 126l108 9l-21 -135h149l-11 -72h-147l-61 -384q-3 -18 -3 -31q0 -26 11 -36t35 -10q57 0 99 25l15 -74q-64 -32 -141 -32q-135 0 -135 109q0 15 3 33l64 400h-90zM587 698q-11 -3 -25 -3q-26 0 -42 13.5t-16 36.5q0 7 1 11q5 33 28 53.5t58 20.5 q38 0 55.5 -21t17.5 -53q0 -6 -2 -20q-11 -68 -55.5 -114t-98.5 -67l-22 37q30 12 58.5 39.5t42.5 66.5z" />
<glyph unicode="&#x168;" horiz-adv-x="770" d="M271 888q15 26 26 43.5t28.5 37.5t38.5 30.5t45 10.5t45.5 -10.5t28 -17l23.5 -23.5q3 -4 9 -11t9.5 -10.5t8 -7.5t8.5 -6t9 -2t10 2t10 6t9 7.5t9 10.5t8 11t8 12.5t6.5 11.5l5.5 11l5 9l55 -21q-29 -55 -61.5 -88.5t-77.5 -33.5q-10 0 -19 1.5t-15.5 3.5t-14.5 6.5 t-11.5 6.5t-11 8.5t-9 8t-8.5 9.5l-7 7q-3 3 -9.5 10.5t-9.5 11t-8 8t-9 6t-9 1.5q-9 0 -17.5 -5.5t-16.5 -17t-13.5 -19t-13.5 -22.5t-9 -17zM58 240l86 540h122l-86 -540q-3 -18 -3 -35q0 -66 43 -100t116 -34q83 0 140 43.5t70 125.5l86 540h122l-86 -540 q-18 -112 -113.5 -185t-232.5 -73q-124 0 -195.5 60.5t-71.5 157.5q0 19 3 40z" />
<glyph unicode="&#x169;" horiz-adv-x="620" d="M172 738q15 26 26 43.5t28.5 37.5t38.5 30.5t45 10.5t45.5 -10.5t28 -17l23.5 -23.5q3 -4 9 -11t9.5 -10.5t8 -7.5t8.5 -6t9 -2t10 2t10 6t9 7.5t9 10.5t8 11t8 12.5t6.5 11.5t6.5 11l4 9l55 -21q-29 -55 -61.5 -88.5t-77.5 -33.5q-10 0 -19 1.5t-15.5 3.5t-14.5 6.5 t-11.5 6.5t-11 8.5t-9 8t-8.5 9.5l-7 7q-3 3 -9.5 10.5t-9.5 11t-8 8t-9 6t-9 1.5q-9 0 -17.5 -5.5t-16.5 -17t-13.5 -19t-13.5 -22.5t-9 -17zM35 187l65 413h113l-65 -413q-2 -10 -2 -27q0 -48 31 -72.5t83 -24.5q59 0 100.5 31t51.5 93l65 413h113l-65 -413 q-14 -88 -90.5 -147t-187.5 -59q-100 0 -157.5 48.5t-57.5 125.5q0 15 3 32z" />
<glyph unicode="&#x16a;" horiz-adv-x="770" d="M272 894l11 72h390l-11 -72h-390zM58 240l86 540h122l-86 -540q-3 -18 -3 -35q0 -66 43 -100t116 -34q83 0 140 43.5t70 125.5l86 540h122l-86 -540q-18 -112 -113.5 -185t-232.5 -73q-124 0 -195.5 60.5t-71.5 157.5q0 19 3 40z" />
<glyph unicode="&#x16b;" horiz-adv-x="620" d="M173 744l11 72h390l-11 -72h-390zM35 187l65 413h113l-65 -413q-2 -10 -2 -27q0 -48 31 -72.5t83 -24.5q59 0 100.5 31t51.5 93l65 413h113l-65 -413q-14 -88 -90.5 -147t-187.5 -59q-100 0 -157.5 48.5t-57.5 125.5q0 15 3 32z" />
<glyph unicode="&#x16c;" horiz-adv-x="770" d="M287 987l73 23q11 -95 110 -95q98 0 140 95l67 -23q-26 -60 -80.5 -101t-137.5 -41t-124 41t-48 101zM58 240l86 540h122l-86 -540q-3 -18 -3 -35q0 -66 43 -100t116 -34q83 0 140 43.5t70 125.5l86 540h122l-86 -540q-18 -112 -113.5 -185t-232.5 -73 q-124 0 -195.5 60.5t-71.5 157.5q0 19 3 40z" />
<glyph unicode="&#x16d;" horiz-adv-x="620" d="M188 837l73 23q11 -95 110 -95q98 0 140 95l67 -23q-26 -60 -80.5 -101t-137.5 -41t-124 41t-48 101zM35 187l65 413h113l-65 -413q-2 -10 -2 -27q0 -48 31 -72.5t83 -24.5q59 0 100.5 31t51.5 93l65 413h113l-65 -413q-14 -88 -90.5 -147t-187.5 -59q-100 0 -157.5 48.5 t-57.5 125.5q0 15 3 32z" />
<glyph unicode="&#x16e;" horiz-adv-x="770" d="M452 803q-47 0 -75.5 25t-28.5 67q0 6 2 20q8 50 47 81t91 31q47 0 75.5 -25t28.5 -67q0 -6 -2 -20q-8 -50 -47 -81t-91 -31zM461 855q27 0 46 16.5t24 43.5q1 4 1 12q0 22 -14 35t-38 13q-27 0 -46.5 -16.5t-24.5 -43.5q-1 -4 -1 -12q0 -22 14 -35t39 -13zM58 240 l86 540h122l-86 -540q-3 -18 -3 -35q0 -66 43 -100t116 -34q83 0 140 43.5t70 125.5l86 540h122l-86 -540q-18 -112 -113.5 -185t-232.5 -73q-124 0 -195.5 60.5t-71.5 157.5q0 19 3 40z" />
<glyph unicode="&#x16f;" horiz-adv-x="620" d="M353 653q-47 0 -75.5 25t-28.5 67q0 6 2 20q8 50 47 81t91 31q47 0 75.5 -25t28.5 -67q0 -6 -2 -20q-8 -50 -47 -81t-91 -31zM362 705q27 0 46 16.5t24 43.5q1 4 1 12q0 22 -14 35t-38 13q-27 0 -46.5 -16.5t-24.5 -43.5q-1 -4 -1 -12q0 -22 14 -35t39 -13zM35 187 l65 413h113l-65 -413q-2 -10 -2 -27q0 -48 31 -72.5t83 -24.5q59 0 100.5 31t51.5 93l65 413h113l-65 -413q-14 -88 -90.5 -147t-187.5 -59q-100 0 -157.5 48.5t-57.5 125.5q0 15 3 32z" />
<glyph unicode="&#x170;" horiz-adv-x="770" d="M299 875l143 190l59 -48l-166 -172zM509 875l143 190l59 -48l-166 -172zM58 240l86 540h122l-86 -540q-3 -18 -3 -35q0 -66 43 -100t116 -34q83 0 140 43.5t70 125.5l86 540h122l-86 -540q-18 -112 -113.5 -185t-232.5 -73q-124 0 -195.5 60.5t-71.5 157.5q0 19 3 40z " />
<glyph unicode="&#x171;" horiz-adv-x="620" d="M200 725l143 190l59 -48l-166 -172zM410 725l143 190l59 -48l-166 -172zM35 187l65 413h113l-65 -413q-2 -10 -2 -27q0 -48 31 -72.5t83 -24.5q59 0 100.5 31t51.5 93l65 413h113l-65 -413q-14 -88 -90.5 -147t-187.5 -59q-100 0 -157.5 48.5t-57.5 125.5q0 15 3 32z" />
<glyph unicode="&#x172;" horiz-adv-x="770" d="M58 240l86 540h122l-86 -540q-3 -18 -3 -35q0 -66 43 -100t116 -34q83 0 140 43.5t70 125.5l86 540h122l-86 -540q-13 -80 -67 -142t-136 -92q-63 -61 -75 -138q-2 -14 -2 -18q0 -46 47 -46q36 0 65 16l11 -54q-45 -21 -98 -21q-48 0 -73.5 23.5t-25.5 64.5q0 7 2 25 q10 66 63 128q-36 -4 -57 -4q-124 0 -195.5 60.5t-71.5 157.5q0 19 3 40z" />
<glyph unicode="&#x173;" horiz-adv-x="620" d="M35 187l65 413h113l-65 -413q-2 -10 -2 -27q0 -48 31 -72.5t83 -24.5q59 0 100.5 31t51.5 93l65 413h113l-65 -413q-10 -64 -54.5 -114t-113.5 -74q-55 -55 -67 -131q-2 -14 -2 -18q0 -46 47 -46q36 0 65 16l11 -54q-45 -21 -98 -21q-48 0 -73.5 23.5t-25.5 64.5 q0 7 2 25q11 66 60 124q-9 -1 -29 -1q-100 0 -157.5 48.5t-57.5 125.5q0 15 3 32z" />
<glyph unicode="&#x174;" horiz-adv-x="1060" d="M413 867l203 148h30l157 -148l-40 -37l-146 97l-176 -97zM1096 761l-349 -761h-104l-80 590l-266 -590h-104l-107 761l1 8l133 11l61 -612l259 592h100l73 -592l255 612l129 -11z" />
<glyph unicode="&#x175;" horiz-adv-x="830" d="M274 717l203 148h30l157 -148l-40 -37l-146 97l-176 -97zM843 585l-268 -585h-97l-55 428l-191 -428h-97l-82 585l1 6l122 9l41 -441l186 426h90l50 -426l181 441l120 -9z" />
<glyph unicode="&#x176;" horiz-adv-x="670" d="M218 867l203 148h30l157 -148l-40 -37l-146 97l-176 -97zM71 761l1 8l137 11l131 -368l249 368l133 -11l-1 -8l-339 -466l-47 -295h-120l47 295z" />
<glyph unicode="&#x177;" horiz-adv-x="600" d="M159 717l203 148h30l157 -148l-40 -37l-146 97l-176 -97zM48 585l1 6l124 9l88 -468l236 468l122 -9l-1 -6l-342 -609q-3 -5 -17 -28t-18 -29.5t-17.5 -27t-20.5 -28t-20.5 -24t-23 -23.5t-24.5 -18t-28 -15.5t-30 -8t-34 -3.5q-62 0 -108 42l66 68l6 -6l6.5 -6.5t6 -5.5 t7.5 -5.5l7 -3.5t8 -3t9 -1q31 0 61 35.5t76 111.5l5 9z" />
<glyph unicode="&#x178;" horiz-adv-x="670" d="M228 930q5 31 28.5 49.5t55.5 18.5q29 0 47 -15t18 -41q0 -8 -1 -12q-5 -31 -29 -49.5t-56 -18.5q-29 0 -46.5 15t-17.5 41q0 8 1 12zM471 930q5 31 28.5 49.5t55.5 18.5q29 0 46.5 -15t17.5 -41q0 -8 -1 -12q-5 -31 -28.5 -49.5t-55.5 -18.5q-29 0 -46.5 15t-17.5 41 q0 8 1 12zM71 761l1 8l137 11l131 -368l249 368l133 -11l-1 -8l-339 -466l-47 -295h-120l47 295z" />
<glyph unicode="&#x179;" horiz-adv-x="670" d="M585 978l-255 -133l-24 45l242 165zM-14 69l527 618h-403l15 93h555l-2 -69l-526 -618h438l-15 -93h-591z" />
<glyph unicode="&#x17a;" horiz-adv-x="530" d="M491 828l-255 -133l-24 45l242 165zM-21 57l389 464h-293l12 79h435l-2 -57l-388 -464h321l-13 -79h-463z" />
<glyph unicode="&#x17b;" horiz-adv-x="670" d="M434 1004q31 0 50.5 -16.5t19.5 -44.5q0 -9 -1 -13q-5 -34 -31 -54t-61 -20q-31 0 -50 16.5t-19 44.5q0 9 1 13q5 34 30.5 54t60.5 20zM-14 69l527 618h-403l15 93h555l-2 -69l-526 -618h438l-15 -93h-591z" />
<glyph unicode="&#x17c;" horiz-adv-x="530" d="M340 854q31 0 50.5 -16.5t19.5 -44.5q0 -9 -1 -13q-5 -34 -31 -54t-61 -20q-31 0 -50 16.5t-19 44.5q0 9 1 13q5 34 30.5 54t60.5 20zM-21 57l389 464h-293l12 79h435l-2 -57l-388 -464h321l-13 -79h-463z" />
<glyph unicode="&#x17d;" horiz-adv-x="670" d="M627 988l-204 -148h-30l-156 148l40 37l145 -97l177 97zM-14 69l527 618h-403l15 93h555l-2 -69l-526 -618h438l-15 -93h-591z" />
<glyph unicode="&#x17e;" horiz-adv-x="530" d="M533 838l-204 -148h-30l-156 148l40 37l145 -97l177 97zM-21 57l389 464h-293l12 79h435l-2 -57l-388 -464h321l-13 -79h-463z" />
<glyph unicode="&#x18f;" horiz-adv-x="780" d="M725 408l-6 -36q-9 -58 -27.5 -110.5t-51.5 -105t-77 -90.5t-109 -61.5t-142 -23.5q-138 0 -208 74t-70 191q0 27 5 64q7 44 29 104h541q6 44 6 81q0 103 -47 160t-140 57q-77 0 -133 -42t-72 -93l-117 12q11 33 37 67.5t66.5 67.5t101.5 54t131 21q80 0 139 -24.5 t91 -67.5t46.5 -94t14.5 -112q0 -43 -8 -93zM595 336h-434q-4 -18 -5 -26q-5 -37 -5 -61q0 -88 46 -135t129 -47q105 0 173.5 71.5t95.5 197.5z" />
<glyph unicode="&#x192;" horiz-adv-x="400" d="M54 528l11 72h90l12 77q9 56 55.5 104t131.5 48t135 -46l-58 -61q-37 28 -81 28q-29 0 -48.5 -20t-24.5 -53l-12 -77h150l-11 -72h-147l-87 -549q-13 -79 -73.5 -130t-144.5 -73l-25 73q58 18 90 49t41 88l86 542h-90z" />
<glyph unicode="&#x1a0;" horiz-adv-x="820" d="M59 372l6 36q9 58 27.5 111t52 105t78 90t110 61.5t144.5 23.5q138 0 213 -72q49 28 58 83q1 5 1 15q0 25 -16 48l76 40q22 -27 22 -71q0 -18 -2 -28q-13 -81 -106 -125q50 -76 50 -190q0 -43 -8 -91l-6 -36q-9 -58 -27.5 -111t-52 -105t-78 -90t-110 -61.5t-144.5 -23.5 q-82 0 -141.5 24.5t-92 68t-47.5 94.5t-15 112q0 44 8 92zM361 71q112 0 182.5 80t92.5 221l6 36q7 43 7 87q0 102 -47 158t-140 56q-112 0 -182 -80t-92 -221l-6 -36q-7 -43 -7 -88q0 -102 46.5 -157.5t139.5 -55.5z" />
<glyph unicode="&#x1a1;" horiz-adv-x="660" d="M40 286l5 28q9 56 30 106.5t57.5 97t97.5 74t138 27.5q120 0 179 -66q40 27 48 77q1 5 1 15q0 25 -16 48l75 40q22 -27 22 -71q0 -18 -2 -28q-13 -81 -100 -123q26 -51 26 -125q0 -36 -6 -72l-5 -28q-9 -56 -30 -106.5t-57.5 -97t-97.5 -74t-138 -27.5q-65 0 -112 19.5 t-72.5 53.5t-37 73.5t-11.5 86.5q0 38 6 72zM280 63q78 0 129 58.5t68 164.5l5 28q6 35 6 66q0 76 -34 116.5t-99 40.5q-78 0 -129 -58.5t-68 -164.5l-5 -28q-6 -34 -6 -66q0 -76 34 -116.5t99 -40.5z" />
<glyph unicode="&#x1af;" horiz-adv-x="780" d="M58 239l86 541h122l-86 -541q-3 -18 -3 -35q0 -66 43 -100t116 -34q83 0 140 43.5t70 125.5l79 501h22l47 -11q45 27 54 81q1 5 1 15q0 25 -16 48l76 40q22 -27 22 -71q0 -18 -2 -28q-12 -75 -89 -117l-72 -458q-18 -112 -113.5 -185t-232.5 -73q-124 0 -195.5 60.5 t-71.5 157.5q0 19 3 40z" />
<glyph unicode="&#x1b0;" horiz-adv-x="635" d="M35 187l65 413h113l-65 -413q-2 -10 -2 -27q0 -48 31 -72.5t83 -24.5q59 0 100.5 31t51.5 93l59 373h21l40 -10q44 26 53 80q1 5 1 15q0 25 -16 48l75 40q22 -27 22 -71q0 -18 -2 -28q-12 -75 -88 -117l-52 -330q-14 -88 -90.5 -147t-187.5 -59q-100 0 -157.5 48.5 t-57.5 125.5q0 15 3 32z" />
<glyph unicode="&#x1cd;" horiz-adv-x="750" d="M667 988l-204 -148h-30l-156 148l40 37l145 -97l177 97zM675 0h-136l-33 167h-330l-85 -167h-136l1 8l433 772h100l187 -772zM490 253l-74 385l-196 -385h270z" />
<glyph unicode="&#x1ce;" horiz-adv-x="625" d="M578 838l-204 -148h-30l-156 148l40 37l145 -97l177 97zM22 173q10 62 68 106t153 44q81 0 177 -10l16 106q2 18 2 25q0 47 -30.5 70t-82.5 23t-90.5 -29.5t-54.5 -83.5l-111 9q23 77 93 131.5t176 54.5q98 0 154.5 -46t56.5 -122q0 -15 -3 -32l-43 -276q-3 -17 -3 -30 q0 -25 12.5 -37t42.5 -16l-40 -74q-98 12 -110 89q-78 -89 -194 -89q-90 0 -141 40.5t-51 112.5q0 16 3 34zM415 245q-86 12 -176 12q-39 0 -70 -22.5t-37 -63.5q-2 -16 -2 -24q0 -47 30 -69.5t76 -22.5q123 0 173 155z" />
<glyph unicode="&#x1cf;" horiz-adv-x="320" d="M452 988l-204 -148h-30l-156 148l40 37l145 -97l177 97zM40 0l124 780h120l-124 -780h-120z" />
<glyph unicode="&#x1d0;" horiz-adv-x="300" d="M418 838l-204 -148h-30l-156 148l40 37l145 -97l177 97zM33 0l95 600h114l-95 -600h-114z" />
<glyph unicode="&#x1d1;" horiz-adv-x="820" d="M702 988l-204 -148h-30l-156 148l40 37l145 -97l177 97zM59 372l6 36q9 58 27.5 111t52 105t78 90t110 61.5t144.5 23.5q82 0 141.5 -24.5t92 -68t47.5 -94.5t15 -112q0 -44 -8 -92l-6 -36q-9 -58 -27.5 -111t-52 -105t-78 -90t-110 -61.5t-144.5 -23.5 q-82 0 -141.5 24.5t-92 68t-47.5 94.5t-15 112q0 44 8 92zM361 71q112 0 182.5 80t92.5 221l6 36q7 43 7 87q0 102 -47 158t-140 56q-112 0 -182 -80t-92 -221l-6 -36q-7 -43 -7 -88q0 -102 46.5 -157.5t139.5 -55.5z" />
<glyph unicode="&#x1d2;" horiz-adv-x="660" d="M598 838l-204 -148h-30l-156 148l40 37l145 -97l177 97zM40 286l5 28q9 56 30 106.5t57.5 97t97.5 74t138 27.5q65 0 112 -19.5t72.5 -53.5t37 -73.5t11.5 -86.5q0 -38 -6 -72l-5 -28q-9 -56 -30 -106.5t-57.5 -97t-97.5 -74t-138 -27.5q-65 0 -112 19.5t-72.5 53.5 t-37 73.5t-11.5 86.5q0 38 6 72zM280 63q78 0 129 58.5t68 164.5l5 28q6 35 6 66q0 76 -34 116.5t-99 40.5q-78 0 -129 -58.5t-68 -164.5l-5 -28q-6 -34 -6 -66q0 -76 34 -116.5t99 -40.5z" />
<glyph unicode="&#x1d3;" horiz-adv-x="770" d="M677 988l-204 -148h-30l-156 148l40 37l145 -97l177 97zM58 240l86 540h122l-86 -540q-3 -18 -3 -35q0 -66 43 -100t116 -34q83 0 140 43.5t70 125.5l86 540h122l-86 -540q-18 -112 -113.5 -185t-232.5 -73q-124 0 -195.5 60.5t-71.5 157.5q0 19 3 40z" />
<glyph unicode="&#x1d4;" horiz-adv-x="620" d="M578 838l-204 -148h-30l-156 148l40 37l145 -97l177 97zM35 187l65 413h113l-65 -413q-2 -10 -2 -27q0 -48 31 -72.5t83 -24.5q59 0 100.5 31t51.5 93l65 413h113l-65 -413q-14 -88 -90.5 -147t-187.5 -59q-100 0 -157.5 48.5t-57.5 125.5q0 15 3 32z" />
<glyph unicode="&#x1d5;" horiz-adv-x="770" d="M300 1074l11 72h390l-11 -72h-390zM278 930q5 31 28.5 49.5t55.5 18.5q29 0 47 -15t18 -41q0 -8 -1 -12q-5 -31 -29 -49.5t-56 -18.5q-29 0 -46.5 15t-17.5 41q0 8 1 12zM521 930q5 31 28.5 49.5t55.5 18.5q29 0 46.5 -15t17.5 -41q0 -8 -1 -12q-5 -31 -28.5 -49.5 t-55.5 -18.5q-29 0 -46.5 15t-17.5 41q0 8 1 12zM58 240l86 540h122l-86 -540q-3 -18 -3 -35q0 -66 43 -100t116 -34q83 0 140 43.5t70 125.5l86 540h122l-86 -540q-18 -112 -113.5 -185t-232.5 -73q-124 0 -195.5 60.5t-71.5 157.5q0 19 3 40z" />
<glyph unicode="&#x1d6;" horiz-adv-x="620" d="M202 924l11 72h390l-11 -72h-390zM179 780q5 31 28.5 49.5t55.5 18.5q29 0 47 -15t18 -41q0 -8 -1 -12q-5 -31 -29 -49.5t-56 -18.5q-29 0 -46.5 15t-17.5 41q0 8 1 12zM422 780q5 31 28.5 49.5t55.5 18.5q29 0 46.5 -15t17.5 -41q0 -8 -1 -12q-5 -31 -28.5 -49.5 t-55.5 -18.5q-29 0 -46.5 15t-17.5 41q0 8 1 12zM35 187l65 413h113l-65 -413q-2 -10 -2 -27q0 -48 31 -72.5t83 -24.5q59 0 100.5 31t51.5 93l65 413h113l-65 -413q-14 -88 -90.5 -147t-187.5 -59q-100 0 -157.5 48.5t-57.5 125.5q0 15 3 32z" />
<glyph unicode="&#x1d7;" horiz-adv-x="770" d="M663 1158l-255 -133l-24 45l242 165zM278 930q5 31 28.5 49.5t55.5 18.5q29 0 47 -15t18 -41q0 -8 -1 -12q-5 -31 -29 -49.5t-56 -18.5q-29 0 -46.5 15t-17.5 41q0 8 1 12zM521 930q5 31 28.5 49.5t55.5 18.5q29 0 46.5 -15t17.5 -41q0 -8 -1 -12q-5 -31 -28.5 -49.5 t-55.5 -18.5q-29 0 -46.5 15t-17.5 41q0 8 1 12zM58 240l86 540h122l-86 -540q-3 -18 -3 -35q0 -66 43 -100t116 -34q83 0 140 43.5t70 125.5l86 540h122l-86 -540q-18 -112 -113.5 -185t-232.5 -73q-124 0 -195.5 60.5t-71.5 157.5q0 19 3 40z" />
<glyph unicode="&#x1d8;" horiz-adv-x="620" d="M565 1008l-255 -133l-24 45l242 165zM179 780q5 31 28.5 49.5t55.5 18.5q29 0 47 -15t18 -41q0 -8 -1 -12q-5 -31 -29 -49.5t-56 -18.5q-29 0 -46.5 15t-17.5 41q0 8 1 12zM422 780q5 31 28.5 49.5t55.5 18.5q29 0 46.5 -15t17.5 -41q0 -8 -1 -12q-5 -31 -28.5 -49.5 t-55.5 -18.5q-29 0 -46.5 15t-17.5 41q0 8 1 12zM35 187l65 413h113l-65 -413q-2 -10 -2 -27q0 -48 31 -72.5t83 -24.5q59 0 100.5 31t51.5 93l65 413h113l-65 -413q-14 -88 -90.5 -147t-187.5 -59q-100 0 -157.5 48.5t-57.5 125.5q0 15 3 32z" />
<glyph unicode="&#x1d9;" horiz-adv-x="770" d="M705 1168l-204 -148h-30l-156 148l40 37l145 -97l177 97zM278 930q5 31 28.5 49.5t55.5 18.5q29 0 47 -15t18 -41q0 -8 -1 -12q-5 -31 -29 -49.5t-56 -18.5q-29 0 -46.5 15t-17.5 41q0 8 1 12zM521 930q5 31 28.5 49.5t55.5 18.5q29 0 46.5 -15t17.5 -41q0 -8 -1 -12 q-5 -31 -28.5 -49.5t-55.5 -18.5q-29 0 -46.5 15t-17.5 41q0 8 1 12zM58 240l86 540h122l-86 -540q-3 -18 -3 -35q0 -66 43 -100t116 -34q83 0 140 43.5t70 125.5l86 540h122l-86 -540q-18 -112 -113.5 -185t-232.5 -73q-124 0 -195.5 60.5t-71.5 157.5q0 19 3 40z" />
<glyph unicode="&#x1da;" horiz-adv-x="620" d="M607 1018l-204 -148h-30l-156 148l40 37l145 -97l177 97zM179 780q5 31 28.5 49.5t55.5 18.5q29 0 47 -15t18 -41q0 -8 -1 -12q-5 -31 -29 -49.5t-56 -18.5q-29 0 -46.5 15t-17.5 41q0 8 1 12zM422 780q5 31 28.5 49.5t55.5 18.5q29 0 46.5 -15t17.5 -41q0 -8 -1 -12 q-5 -31 -28.5 -49.5t-55.5 -18.5q-29 0 -46.5 15t-17.5 41q0 8 1 12zM35 187l65 413h113l-65 -413q-2 -10 -2 -27q0 -48 31 -72.5t83 -24.5q59 0 100.5 31t51.5 93l65 413h113l-65 -413q-14 -88 -90.5 -147t-187.5 -59q-100 0 -157.5 48.5t-57.5 125.5q0 15 3 32z" />
<glyph unicode="&#x1db;" horiz-adv-x="770" d="M353 1158l61 77l190 -165l-38 -45zM278 930q5 31 28.5 49.5t55.5 18.5q29 0 47 -15t18 -41q0 -8 -1 -12q-5 -31 -29 -49.5t-56 -18.5q-29 0 -46.5 15t-17.5 41q0 8 1 12zM521 930q5 31 28.5 49.5t55.5 18.5q29 0 46.5 -15t17.5 -41q0 -8 -1 -12q-5 -31 -28.5 -49.5 t-55.5 -18.5q-29 0 -46.5 15t-17.5 41q0 8 1 12zM58 240l86 540h122l-86 -540q-3 -18 -3 -35q0 -66 43 -100t116 -34q83 0 140 43.5t70 125.5l86 540h122l-86 -540q-18 -112 -113.5 -185t-232.5 -73q-124 0 -195.5 60.5t-71.5 157.5q0 19 3 40z" />
<glyph unicode="&#x1dc;" horiz-adv-x="620" d="M255 1008l61 77l190 -165l-38 -45zM179 780q5 31 28.5 49.5t55.5 18.5q29 0 47 -15t18 -41q0 -8 -1 -12q-5 -31 -29 -49.5t-56 -18.5q-29 0 -46.5 15t-17.5 41q0 8 1 12zM422 780q5 31 28.5 49.5t55.5 18.5q29 0 46.5 -15t17.5 -41q0 -8 -1 -12q-5 -31 -28.5 -49.5 t-55.5 -18.5q-29 0 -46.5 15t-17.5 41q0 8 1 12zM35 187l65 413h113l-65 -413q-2 -10 -2 -27q0 -48 31 -72.5t83 -24.5q59 0 100.5 31t51.5 93l65 413h113l-65 -413q-14 -88 -90.5 -147t-187.5 -59q-100 0 -157.5 48.5t-57.5 125.5q0 15 3 32z" />
<glyph unicode="&#x1e6;" horiz-adv-x="770" d="M702 988l-204 -148h-30l-156 148l40 37l145 -97l177 97zM407 302l13 86h291l-39 -251q-40 -61 -123 -108.5t-200 -47.5q-82 0 -141.5 24.5t-92.5 68.5t-48 95t-15 113q0 50 7 92l5 32q9 58 28 111.5t52.5 106t79 90.5t111 61.5t144.5 23.5q71 0 125.5 -21t84 -54 t44 -67.5t15.5 -67.5l-124 -12q-2 50 -42.5 91t-117.5 41q-113 0 -184 -80.5t-93 -222.5l-5 -32q-7 -43 -7 -87q0 -103 47 -159.5t141 -56.5q131 0 201 80l24 151h-181z" />
<glyph unicode="&#x1e7;" horiz-adv-x="670" d="M628 838l-204 -148h-30l-156 148l40 37l145 -97l177 97zM45 315q8 53 29.5 103.5t57 95.5t90.5 72.5t122 27.5q110 0 161 -108l24 94h96l-99 -626q-14 -89 -89.5 -146t-184.5 -57q-98 0 -155 37t-65 78l110 29q4 -23 35 -44.5t87 -21.5q63 0 104.5 31.5t51.5 93.5l23 148 q-84 -106 -193 -106q-57 0 -99 20t-65.5 54t-34.5 74.5t-11 86.5q0 29 5 64zM479 372q-6 68 -39 113.5t-96 45.5q-72 0 -120.5 -57t-65.5 -159q-6 -35 -6 -65q0 -72 32 -111.5t92 -39.5q63 0 110 45.5t75 113.5z" />
<glyph unicode="&#x1ea;" horiz-adv-x="820" d="M361 71q112 0 182.5 80t92.5 221l6 36q7 43 7 87q0 102 -47 158t-140 56q-112 0 -182 -80t-92 -221l-6 -36q-7 -43 -7 -88q0 -102 46.5 -157.5t139.5 -55.5zM59 372l6 36q9 58 27.5 111t52 105t78 90t110 61.5t144.5 23.5q82 0 141.5 -24.5t92 -68t47.5 -94.5t15 -112 q0 -44 -8 -92l-6 -36q-10 -63 -31.5 -120t-57.5 -111t-92 -93t-127 -56q-49 -53 -61 -124q-2 -14 -2 -18q0 -46 47 -46q36 0 65 16l11 -54q-45 -21 -98 -21q-48 0 -73.5 23.5t-25.5 64.5q0 7 2 25q11 67 59 124q-9 -1 -28 -1q-82 0 -141.5 24.5t-92 68t-47.5 94.5t-15 112 q0 44 8 92z" />
<glyph unicode="&#x1eb;" horiz-adv-x="660" d="M280 63q78 0 129 58.5t68 164.5l5 28q6 35 6 66q0 76 -34 116.5t-99 40.5q-78 0 -129 -58.5t-68 -164.5l-5 -28q-6 -34 -6 -66q0 -76 34 -116.5t99 -40.5zM40 286l5 28q9 56 30 106.5t57.5 97t97.5 74t138 27.5q65 0 112 -19.5t72.5 -53.5t37 -73.5t11.5 -86.5 q0 -38 -6 -72l-5 -28q-16 -98 -67.5 -178t-146.5 -111q-55 -56 -66 -129q-2 -14 -2 -18q0 -46 47 -46q36 0 65 16l11 -54q-45 -21 -98 -21q-48 0 -73.5 23.5t-25.5 64.5q0 7 2 25q11 67 59 124q-9 -1 -28 -1q-65 0 -112 19.5t-72.5 53.5t-37 73.5t-11.5 86.5q0 38 6 72z" />
<glyph unicode="&#x218;" horiz-adv-x="710" d="M269 -202q-11 -3 -24 -3q-26 0 -42.5 13.5t-16.5 36.5q0 7 1 11q5 33 28.5 53.5t58.5 20.5q38 0 55 -20.5t17 -52.5q0 -7 -2 -21q-11 -68 -55.5 -114t-98.5 -67l-22 37q30 12 58.5 39.5t42.5 66.5zM23 179l122 17q1 -50 42 -89t119 -39q89 0 141.5 35t62.5 97q2 16 2 22 q0 70 -81 95q-109 32 -192 64q-136 54 -136 168q0 20 2 30q15 96 103.5 158t213.5 62q63 0 113 -19t78 -49t42.5 -62.5t15.5 -63.5l-122 -17q-2 49 -38.5 86.5t-102.5 37.5q-76 0 -126.5 -35t-59.5 -93q-1 -6 -1 -16q0 -34 23 -54t63 -36q44 -17 182 -62q60 -19 101 -61.5 t41 -111.5q0 -17 -3 -37q-15 -98 -107 -161.5t-229 -63.5q-69 0 -123 19.5t-84 50t-45.5 63.5t-16.5 65z" />
<glyph unicode="&#x219;" horiz-adv-x="570" d="M199 -202q-11 -3 -24 -3q-26 0 -42.5 13.5t-16.5 36.5q0 7 1 11q5 33 28.5 53.5t58.5 20.5q38 0 55 -20.5t17 -52.5q0 -7 -2 -21q-11 -68 -55.5 -114t-98.5 -67l-22 37q30 12 58.5 39.5t42.5 66.5zM7 139l112 14q0 -37 31 -64.5t89 -27.5q61 0 98.5 26t44.5 69q1 5 1 15 q0 51 -60 70q-105 32 -144 47q-110 43 -110 131q0 7 2 25q12 76 81.5 125.5t170.5 49.5q99 0 149 -48.5t51 -105.5l-113 -15q0 37 -25 63t-75 26q-53 0 -88 -24.5t-42 -66.5q-1 -4 -1 -11q0 -45 62 -67q23 -8 138 -44q113 -36 113 -135q0 -20 -2 -31q-12 -78 -85.5 -128.5 t-182.5 -50.5q-107 0 -160 49.5t-55 108.5z" />
<glyph unicode="&#x21a;" horiz-adv-x="620" d="M224 -202q-10 -3 -24 -3q-26 0 -42.5 13.5t-16.5 36.5q0 7 1 11q5 33 28.5 53.5t58.5 20.5q38 0 55 -20.5t17 -52.5q0 -7 -2 -21q-11 -68 -55.5 -114t-98.5 -67l-22 37q30 12 58.5 39.5t42.5 66.5zM79 691l15 89h560l-15 -89h-220l-109 -691h-120l109 691h-220z" />
<glyph unicode="&#x21b;" horiz-adv-x="415" d="M194 -202q-10 -3 -24 -3q-26 0 -42.5 13.5t-16.5 36.5q0 7 1 11q5 33 28.5 53.5t58.5 20.5q38 0 55 -20.5t17 -52.5q0 -7 -2 -21q-11 -68 -55.5 -114t-98.5 -67l-22 37q30 12 58.5 39.5t42.5 66.5zM54 528l11 72h94l20 126l108 9l-21 -135h149l-11 -72h-147l-61 -384 q-3 -18 -3 -31q0 -26 11 -36t35 -10q57 0 99 25l15 -74q-64 -32 -141 -32q-135 0 -135 109q0 15 3 33l64 400h-90z" />
<glyph unicode="&#x237;" horiz-adv-x="310" d="M-89 -151q57 18 89 48.5t41 88.5l97 614h114l-98 -621q-13 -79 -73.5 -130t-144.5 -73z" />
<glyph unicode="&#x251;" horiz-adv-x="675" d="M41 289l3 22q9 55 30.5 106t57 96.5t90.5 73t122 27.5q111 0 161 -106l24 92h96l-72 -457q-3 -17 -3 -30q0 -25 12.5 -37t42.5 -16l-40 -74q-112 15 -112 108q0 11 1 16q-90 -124 -209 -124q-109 0 -159.5 67t-50.5 168q0 35 6 68zM479 374q-6 68 -39 112.5t-96 44.5 q-73 0 -122 -57t-65 -163l-3 -22q-6 -37 -6 -68q0 -74 31.5 -113t91.5 -39q63 0 110 44.5t75 112.5z" />
<glyph unicode="&#x259;" horiz-adv-x="640" d="M575 314l-5 -28q-9 -56 -30.5 -106.5t-58 -97t-96.5 -74t-135 -27.5q-108 0 -164.5 60t-56.5 152q0 26 4 47q5 32 21 81h411q4 28 4 58q0 76 -33.5 118t-97.5 42q-55 0 -95 -30t-52 -67l-107 10q20 60 90 113.5t177 53.5q123 0 176.5 -65.5t53.5 -166.5q0 -37 -6 -73z M452 249h-312q0 -1 -0.5 -5t-0.5 -5q-4 -21 -4 -45q0 -66 34.5 -99.5t93.5 -33.5q70 0 119 49.5t70 138.5z" />
<glyph unicode="&#x261;" horiz-adv-x="670" d="M45 315q8 53 29.5 103.5t57 95.5t90.5 72.5t122 27.5q110 0 161 -108l24 94h96l-99 -626q-14 -89 -89.5 -146t-184.5 -57q-98 0 -155 37t-65 78l110 29q4 -23 35 -44.5t87 -21.5q63 0 104.5 31.5t51.5 93.5l23 148q-84 -106 -193 -106q-57 0 -99 20t-65.5 54t-34.5 74.5 t-11 86.5q0 29 5 64zM479 372q-6 68 -39 113.5t-96 45.5q-72 0 -120.5 -57t-65.5 -159q-6 -35 -6 -65q0 -72 32 -111.5t92 -39.5q63 0 110 45.5t75 113.5z" />
<glyph unicode="&#x2bb;" horiz-adv-x="240" d="M242 642q-5 -34 -31 -56t-62 -22q-40 0 -59.5 24.5t-19.5 62.5q0 9 2 27q12 76 62 135t115 97l28 -47q-92 -53 -121 -151q12 2 20 2q30 0 48.5 -16.5t18.5 -43.5q0 -8 -1 -12z" />
<glyph unicode="&#x2bc;" horiz-adv-x="240" d="M93 808q5 34 30.5 56t61.5 22q40 0 59.5 -24.5t19.5 -62.5q0 -9 -2 -27q-12 -76 -61.5 -135t-114.5 -97l-28 47q92 53 121 151q-12 -2 -20 -2q-30 0 -48.5 16.5t-18.5 43.5q0 8 1 12z" />
<glyph unicode="&#x2bd;" horiz-adv-x="240" d="M268 808q-5 -32 -30 -52t-58 -20q-8 0 -20 2v-3q0 -95 73 -148l-42 -47q-107 77 -107 195q0 17 3 37q8 48 36.5 81t76.5 33q32 0 50.5 -17.5t18.5 -46.5q0 -9 -1 -14z" />
<glyph unicode="&#x2be;" horiz-adv-x="180" d="M206 765q-8 -50 -47 -81t-91 -31l9 52q27 0 46 16.5t24 43.5q1 4 1 12q0 22 -14 35t-38 13l8 52q47 0 75.5 -25t28.5 -67q0 -6 -2 -20z" />
<glyph unicode="&#x2bf;" horiz-adv-x="180" d="M96 765q8 50 47 81t91 31l-8 -52q-27 0 -46.5 -16.5t-24.5 -43.5q-1 -4 -1 -12q0 -22 14 -35t39 -13l-9 -52q-47 0 -75.5 25t-28.5 67q0 6 2 20z" />
<glyph unicode="&#x2c6;" horiz-adv-x="510" d="M114 717l203 148h30l157 -148l-40 -37l-146 97l-176 -97z" />
<glyph unicode="&#x2c7;" horiz-adv-x="510" d="M523 838l-204 -148h-30l-156 148l40 37l145 -97l177 97z" />
<glyph unicode="&#x2c8;" horiz-adv-x="210" d="M113 680l34 215h80l-34 -215h-80z" />
<glyph unicode="&#x2c9;" horiz-adv-x="510" d="M118 744l11 72h390l-11 -72h-390z" />
<glyph unicode="&#x2ca;" horiz-adv-x="330" d="M376 828l-255 -133l-24 45l242 165z" />
<glyph unicode="&#x2cb;" horiz-adv-x="330" d="M96 828l61 77l190 -165l-38 -45z" />
<glyph unicode="&#x2cc;" horiz-adv-x="210" d="M-42 -295l34 215h80l-34 -215h-80z" />
<glyph unicode="&#x2d7;" horiz-adv-x="330" d="M19 403h300l-14 -86h-300z" />
<glyph unicode="&#x2d8;" horiz-adv-x="510" d="M133 837l73 23q11 -95 110 -95q98 0 140 95l67 -23q-26 -60 -80.5 -101t-137.5 -41t-124 41t-48 101z" />
<glyph unicode="&#x2d9;" horiz-adv-x="330" d="M240 854q31 0 50.5 -16.5t19.5 -44.5q0 -9 -1 -13q-5 -34 -31 -54t-61 -20q-31 0 -50 16.5t-19 44.5q0 9 1 13q5 34 30.5 54t60.5 20z" />
<glyph unicode="&#x2da;" horiz-adv-x="330" d="M208 653q-47 0 -75.5 25t-28.5 67q0 6 2 20q8 50 47 81t91 31q47 0 75.5 -25t28.5 -67q0 -6 -2 -20q-8 -50 -47 -81t-91 -31zM217 705q27 0 46 16.5t24 43.5q1 4 1 12q0 22 -14 35t-38 13q-27 0 -46.5 -16.5t-24.5 -43.5q-1 -4 -1 -12q0 -22 14 -35t39 -13z" />
<glyph unicode="&#x2db;" horiz-adv-x="330" d="M1 -142q16 101 124 184l32 -29q-68 -61 -82 -145q-2 -14 -2 -18q0 -46 47 -46q36 0 65 16l11 -54q-45 -21 -98 -21q-48 0 -73.5 23.5t-25.5 64.5q0 7 2 25z" />
<glyph unicode="&#x2dc;" horiz-adv-x="510" d="M117 738q15 26 26 43.5t28.5 37.5t38.5 30.5t45 10.5t45.5 -10.5t28 -17l23.5 -23.5q3 -4 9 -11t9.5 -10.5t8 -7.5t8.5 -6t9 -2t10 2t10 6t9 7.5t9 10.5t8 11t8 12.5t6.5 11.5l5.5 11l5 9l55 -21q-29 -55 -61.5 -88.5t-77.5 -33.5q-10 0 -19 1.5t-15.5 3.5t-14.5 6.5 t-11.5 6.5t-11 8.5t-9 8t-8.5 9.5l-7 7q-3 3 -9.5 10.5t-9.5 11t-8 8t-9 6t-9 1.5q-9 0 -17.5 -5.5t-16.5 -17t-13.5 -19t-13.5 -22.5t-9 -17z" />
<glyph unicode="&#x2dd;" horiz-adv-x="510" d="M115 725l143 190l59 -48l-166 -172zM325 725l143 190l59 -48l-166 -172z" />
<glyph unicode="&#x300;" d="M-84 828l61 77l190 -165l-38 -45z" />
<glyph unicode="&#x301;" d="M226 828l-255 -133l-24 45l242 165z" />
<glyph unicode="&#x302;" d="M-141 717l203 148h30l157 -148l-40 -37l-146 97l-176 -97z" />
<glyph unicode="&#x303;" d="M-138 738q15 26 26 43.5t28.5 37.5t38.5 30.5t45 10.5t45.5 -10.5t28 -17l23.5 -23.5q3 -4 9 -11t9.5 -10.5t8 -7.5t8.5 -6t9 -2t10 2t10 6t9 7.5t9 10.5t8 11t8 12.5t6.5 11.5t6.5 11l4 9l55 -21q-29 -55 -61.5 -88.5t-77.5 -33.5q-10 0 -19 1.5t-15.5 3.5t-14.5 6.5 t-11.5 6.5t-11 8.5t-9 8t-8.5 9.5l-7 7q-3 3 -9.5 10.5t-9.5 11t-8 8t-9 6t-9 1.5q-9 0 -17.5 -5.5t-16.5 -17t-13.5 -19t-13.5 -22.5t-9 -17z" />
<glyph unicode="&#x304;" d="M-137 744l11 72h390l-11 -72h-390z" />
<glyph unicode="&#x305;" d="M-227 744l11 72h570l-11 -72h-570z" />
<glyph unicode="&#x306;" d="M-122 837l73 23q11 -95 110 -95q98 0 140 95l67 -23q-26 -60 -80.5 -101t-137.5 -41t-124 41t-48 101z" />
<glyph unicode="&#x307;" d="M75 854q31 0 50.5 -16.5t19.5 -44.5q0 -9 -1 -13q-5 -34 -31 -54t-61 -20q-31 0 -50 16.5t-19 44.5q0 9 1 13q5 34 30.5 54t60.5 20z" />
<glyph unicode="&#x308;" d="M-131 780q5 31 28.5 49.5t55.5 18.5q29 0 47 -15t18 -41q0 -8 -1 -12q-5 -31 -29 -49.5t-56 -18.5q-29 0 -46.5 15t-17.5 41q0 8 1 12zM112 780q5 31 28.5 49.5t55.5 18.5q29 0 46.5 -15t17.5 -41q0 -8 -1 -12q-5 -31 -28.5 -49.5t-55.5 -18.5q-29 0 -46.5 15t-17.5 41 q0 8 1 12z" />
<glyph unicode="&#x309;" d="M-32 871q52 27 117 27q42 0 68 -19.5t26 -53.5q0 -10 -1 -15q-5 -31 -20 -55t-40.5 -39.5t-46.5 -24t-53 -18.5l-13 38q47 19 71.5 37.5t29.5 48.5q0 1 0.5 4t0.5 5q0 30 -45 30q-44 0 -96 -24z" />
<glyph unicode="&#x30a;" d="M43 653q-47 0 -75.5 25t-28.5 67q0 6 2 20q8 50 47 81t91 31q47 0 75.5 -25t28.5 -67q0 -6 -2 -20q-8 -50 -47 -81t-91 -31zM52 705q27 0 46 16.5t24 43.5q1 4 1 12q0 22 -14 35t-38 13q-27 0 -46.5 -16.5t-24.5 -43.5q-1 -4 -1 -12q0 -22 14 -35t39 -13z" />
<glyph unicode="&#x30b;" d="M-110 725l143 190l59 -48l-166 -172zM100 725l143 190l59 -48l-166 -172z" />
<glyph unicode="&#x30c;" d="M268 838l-204 -148h-30l-156 148l40 37l145 -97l177 97z" />
<glyph unicode="&#x30d;" d="M8 680l34 215h80l-34 -215h-80z" />
<glyph unicode="&#x30e;" d="M-87 680l34 215h76l-34 -215h-76zM107 680l34 215h76l-34 -215h-76z" />
<glyph unicode="&#x30f;" d="M220 725l-46 -30l-112 172l75 48zM10 725l-46 -30l-112 172l75 48z" />
<glyph unicode="&#x311;" d="M246 703l-73 -23q-11 95 -110 95q-98 0 -140 -95l-67 23q26 60 80.5 101t137.5 41t124 -41t48 -101z" />
<glyph unicode="&#x312;" d="M66 832q11 3 24 3q26 0 42.5 -13.5t16.5 -36.5q0 -7 -1 -11q-5 -33 -28.5 -53.5t-58.5 -20.5q-38 0 -55 20.5t-17 52.5q0 7 2 21q11 68 55.5 114.5t97.5 66.5l23 -37q-30 -12 -58.5 -39.5t-42.5 -66.5z" />
<glyph unicode="&#x313;" d="M79 838q-11 -3 -25 -3q-26 0 -42 13.5t-16 36.5q0 7 1 11q5 33 28.5 53.5t58.5 20.5q38 0 55 -20.5t17 -52.5q0 -7 -2 -21q-11 -68 -55.5 -114t-98.5 -67l-22 37q30 12 58.5 39.5t42.5 66.5z" />
<glyph unicode="&#x314;" d="M67 838q1 -39 20.5 -66.5t46.5 -39.5l-34 -37q-40 18 -69.5 56t-29.5 93q0 16 3 32q6 38 31 66t69 28q31 0 47.5 -16.5t16.5 -42.5q0 -10 -1 -15q-4 -28 -26 -44.5t-51 -16.5q-12 0 -23 3z" />
<glyph unicode="&#x315;" horiz-adv-x="240" d="M172 698q-11 -3 -25 -3q-26 0 -42 13.5t-16 36.5q0 7 1 11q5 33 28 53.5t58 20.5q38 0 55.5 -21t17.5 -53q0 -6 -2 -20q-11 -68 -55.5 -114t-98.5 -67l-22 37q30 12 58.5 39.5t42.5 66.5z" />
<glyph unicode="&#x31b;" horiz-adv-x="60" d="M-75 538q24 4 50 27t33 65q1 5 1 15q0 25 -16 48l75 40q22 -27 22 -71q0 -18 -2 -28q-9 -58 -55 -94t-97 -47z" />
<glyph unicode="&#x323;" d="M-77 -106q31 0 50 -16.5t19 -44.5q0 -9 -1 -13q-5 -34 -30.5 -54t-60.5 -20q-31 0 -50.5 16.5t-19.5 44.5q0 9 1 13q5 34 31 54t61 20z" />
<glyph unicode="&#x324;" d="M-284 -180q5 31 29 49.5t56 18.5q29 0 46.5 -15t17.5 -41q0 -8 -1 -12q-5 -31 -28.5 -49.5t-55.5 -18.5q-29 0 -47 15t-18 41q0 8 1 12zM-41 -180q5 31 29 49.5t56 18.5q29 0 46 -15t17 -40q0 -9 -1 -13q-5 -31 -28 -49.5t-55 -18.5q-29 0 -47 15t-18 41q0 8 1 12z" />
<glyph unicode="&#x326;" d="M-86 -202q-10 -3 -24 -3q-26 0 -42.5 13.5t-16.5 36.5q0 7 1 11q5 33 28.5 53.5t58.5 20.5q38 0 55 -20.5t17 -52.5q0 -7 -2 -21q-11 -68 -55.5 -114t-98.5 -67l-22 37q30 12 58.5 39.5t42.5 66.5z" />
<glyph unicode="&#x327;" d="M-199 -278q153 35 163 103v5q0 33 -63 33q-17 0 -45 -5l-28 34l87 123h64l-71 -100h14q55 0 85.5 -19.5t30.5 -55.5q0 -10 -1 -15q-17 -106 -219 -153q-5 -1 -7 -2z" />
<glyph unicode="&#x328;" d="M-164 -142q16 101 124 184l32 -29q-68 -61 -82 -145q-2 -14 -2 -18q0 -46 47 -46q36 0 65 16l11 -54q-45 -21 -98 -21q-48 0 -73.5 23.5t-25.5 64.5q0 7 2 25z" />
<glyph unicode="&#x329;" d="M-147 -295l34 215h80l-34 -215h-80z" />
<glyph unicode="&#x32e;" d="M-271 -98l74 23q11 -95 110 -95q98 0 140 95l66 -23q-26 -60 -80 -101t-137 -41t-124.5 41t-48.5 101z" />
<glyph unicode="&#x331;" d="M-289 -216l11 72h390l-11 -72h-390z" />
<glyph unicode="&#x332;" d="M-379 -216l11 72h570l-11 -72h-570z" />
<glyph unicode="&#x34f;" />
<glyph unicode="&#x351;" d="M-14 765q8 50 47 81t91 31l-8 -52q-27 0 -46.5 -16.5t-24.5 -43.5q-1 -4 -1 -12q0 -22 14 -35t39 -13l-9 -52q-47 0 -75.5 25t-28.5 67q0 6 2 20z" />
<glyph unicode="&#x357;" d="M136 765q-8 -50 -47 -81t-91 -31l9 52q27 0 46 16.5t24 43.5q1 4 1 12q0 22 -14 35t-38 13l8 52q47 0 75.5 -25t28.5 -67q0 -6 -2 -20z" />
<glyph unicode="&#x358;" horiz-adv-x="180" d="M112 674q31 0 50 -16.5t19 -44.5q0 -9 -1 -13q-5 -34 -31 -54t-61 -20q-31 0 -50 16.5t-19 44.5q0 9 1 13q5 34 31 54t61 20z" />
<glyph unicode="&#x3c0;" horiz-adv-x="660" d="M58 521l12 79h590l-12 -79h-80l-61 -383q-1 -6 -1 -16q0 -30 22.5 -44t68.5 -18l-34 -74q-173 14 -173 118q0 8 2 24l63 393h-204l-83 -521h-113l83 521h-80z" />
<glyph unicode="&#xe01;" horiz-adv-x="655" d="M41 0l47 294q12 76 84 98l-116 24q25 85 103.5 144t193.5 59q108 0 170.5 -51t62.5 -134q0 -17 -3 -35l-63 -399h-107l63 399q2 10 2 29q0 55 -36.5 83.5t-100.5 28.5q-116 0 -166 -100l138 -30l-18 -44q-1 0 -6.5 1t-13 1.5t-12.5 0.5q-57 0 -67 -65l-48 -304h-107z" />
<glyph unicode="&#xe02;" horiz-adv-x="635" d="M144 520q-20 0 -34.5 -13t-17.5 -33q0 -2 -0.5 -4t-0.5 -4q0 -17 10.5 -27.5t28.5 -10.5q20 0 34.5 13t17.5 33q0 2 0.5 4t0.5 4q0 17 -10.5 27.5t-28.5 10.5zM30 474q10 58 64 98.5t137 40.5q76 0 117.5 -33.5t41.5 -90.5q0 -7 -2 -25q-6 -39 -27.5 -73.5t-48 -60 t-53 -50.5t-47.5 -56t-26 -66q-1 -6 -1 -17q0 -39 27.5 -60t72.5 -21q51 0 86.5 29t44.5 88l67 423h107l-67 -423q-13 -84 -82 -140t-169 -56q-91 0 -143 40t-52 104q0 9 2 25q7 47 32 86t55.5 65.5t60.5 50.5t53.5 54t28.5 64q1 6 1 16q0 71 -98 71h-1q34 -23 34 -66 q0 -11 -1 -17q-7 -44 -42 -71.5t-81 -27.5q-42 0 -67.5 22t-25.5 59q0 6 2 18z" />
<glyph unicode="&#xe03;" horiz-adv-x="635" d="M150 556q-20 0 -34.5 -13t-17.5 -33q0 -2 -0.5 -5t-0.5 -4q0 -17 10 -27t28 -10q20 0 35 13t18 33q0 2 0.5 4t0.5 4q0 17 -10.5 27.5t-28.5 10.5zM158 609q42 0 68 -22t26 -59q0 -6 -2 -18q-2 -19 -15 -40q60 43 93 129l39 5q27 -42 27 -92q0 -17 -3 -35q-8 -48 -39 -92 t-64.5 -73t-64 -70t-37.5 -83q-1 -6 -1 -17q0 -39 27.5 -60t72.5 -21q51 0 86.5 28.5t44.5 87.5l67 423h107l-67 -423q-13 -84 -82 -140t-169 -56q-91 0 -143 40t-52 105q0 9 2 25q7 47 32.5 86.5t56.5 67.5t62 54t55.5 59t30.5 71q-63 -89 -171 -89q-53 0 -82 24.5 t-29 65.5q0 6 2 20q7 45 41.5 72t80.5 27z" />
<glyph unicode="&#xe04;" horiz-adv-x="665" d="M328 365q-20 0 -34.5 -13t-17.5 -33q0 -1 -0.5 -4t-0.5 -5q0 -17 10 -27t28 -10q20 0 35 13t18 33q0 1 0.5 4t0.5 4q0 17 -10.5 27.5t-28.5 10.5zM336 418q42 0 68 -22t26 -59q0 -6 -2 -18q-7 -44 -42 -71.5t-81 -27.5q-59 0 -83 41q-43 -63 -63 -161l-19 -100h-115 q22 71 29 118q7 42 7 89q0 7 -0.5 20.5t-0.5 21.5q0 67 13 150q15 96 96.5 158t198.5 62q106 0 167 -51t61 -134q0 -17 -3 -35l-63 -399h-107l16 100q3 20 21.5 123.5t29.5 175.5q2 11 2 30q0 111 -136 111q-73 0 -121 -35.5t-59 -105.5q-12 -72 -19 -158q42 104 100 149 q36 28 79 28z" />
<glyph unicode="&#xe05;" horiz-adv-x="665" d="M328 365q-20 0 -34.5 -13t-17.5 -33q0 -1 -0.5 -4t-0.5 -5q0 -17 10 -27t28 -10q20 0 35 13t18 33q0 1 0.5 4t0.5 4q0 17 -10.5 27.5t-28.5 10.5zM336 418q42 0 68 -22t26 -59q0 -6 -2 -18q-7 -44 -42 -71.5t-81 -27.5q-59 0 -83 41q-43 -63 -63 -161l-19 -100h-115 q22 71 29 118q7 42 7 89q0 7 -0.5 20.5t-0.5 21.5q0 67 13 150q6 36 18 68.5t34 68t61 56.5t90 21l78 -80l104 80q77 0 108.5 -45t31.5 -111q0 -30 -5 -58l-63 -399h-107l16 100q3 20 21.5 123.5t29.5 175.5q5 29 5 59q0 73 -43 79l-96 -69h-12h-12l-74 69q-66 -8 -86 -138 q-13 -80 -17 -163q42 107 102 154q36 28 79 28z" />
<glyph unicode="&#xe06;" horiz-adv-x="650" d="M124 136q-20 0 -35 -13t-18 -33q0 -2 -0.5 -4.5t-0.5 -3.5q0 -17 10.5 -27.5t28.5 -10.5q20 0 34.5 13t17.5 33q0 2 0.5 5t0.5 4q0 17 -10 27t-28 10zM160 556q-20 0 -34.5 -13t-17.5 -33q0 -2 -0.5 -5t-0.5 -4q0 -17 10 -27t28 -10q20 0 35 13t18 33q0 2 0.5 4t0.5 4 q0 17 -10.5 27.5t-28.5 10.5zM168 609q42 0 68 -22t26 -59q0 -6 -2 -18q-2 -19 -15 -40q60 43 93 129l40 5q26 -40 26 -91q0 -17 -3 -36q-7 -44 -34.5 -85.5t-57.5 -68.5t-61 -63.5t-43 -70.5q130 -13 211 -96q5 57 12 97l65 410h107l-95 -600h-98q-64 102 -183 124 q3 -13 -1 -34q-7 -45 -41.5 -72t-80.5 -27q-42 0 -68 22t-26 59q0 6 2 18q6 35 29.5 60t57.5 34q12 39 38.5 73t56 59t58 50t50 56.5t27.5 66.5q-63 -89 -171 -89q-53 0 -82 24.5t-29 65.5q0 6 2 20q7 45 41.5 72t80.5 27z" />
<glyph unicode="&#xe07;" horiz-adv-x="525" d="M334 556q-20 0 -34.5 -13t-17.5 -33q0 -2 -0.5 -5t-0.5 -4q0 -17 10 -27t28 -10q20 0 35 13t18 33q0 2 0.5 4t0.5 4q0 17 -10.5 27.5t-28.5 10.5zM2 328l74 60l231 -302q-5 22 -5 48q0 16 3 36l21 130q4 26 10.5 46.5t15 41t12.5 33.5q-23 -10 -53 -10q-42 0 -67.5 22 t-25.5 59q0 6 2 18q7 45 41.5 72t80.5 27q62 0 93.5 -29.5t31.5 -82.5q0 -15 -3 -32q-4 -25 -17 -80.5t-19 -94.5l-46 -290h-114z" />
<glyph unicode="&#xe08;" horiz-adv-x="590" d="M38 431q23 78 95.5 133t179.5 55q99 0 157.5 -46.5t58.5 -123.5q0 -15 -3 -32q-13 -80 -58.5 -179.5t-53.5 -147.5l-14 -90h-114q3 28 3 58q0 90 -27 150q-36 -46 -99 -46q-42 0 -68 22t-26 59q0 6 2 18q7 44 42 71.5t81 27.5q50 0 83.5 -33t47 -78t16.5 -103 q8 44 38 124t41 147q2 18 2 25q0 49 -32 73.5t-89 24.5q-59 0 -99.5 -30t-57.5 -86zM171 215q20 0 34.5 13t17.5 33q0 1 0.5 4t0.5 5q0 17 -10 27t-28 10q-20 0 -35 -13t-18 -33q0 -1 -0.5 -3.5t-0.5 -4.5q0 -17 10.5 -27.5t28.5 -10.5z" />
<glyph unicode="&#xe09;" horiz-adv-x="645" d="M77 0l18 112q4 27 22 50q-40 2 -64 24t-24 58q0 11 1 17q7 44 42 71.5t81 27.5q42 0 67.5 -22t25.5 -59q0 -6 -2 -18q-4 -26 -21.5 -63t-21.5 -62l-8 -47q108 95 225 103q8 14 9 23l31 194q2 10 2 28q0 103 -129 103q-63 0 -107 -33t-61 -92l-106 8q25 82 100 139t186 57 q104 0 164.5 -48.5t60.5 -128.5q0 -16 -3 -33l-28 -174q-5 -29 -37 -52q55 -18 55 -76q0 -11 -1 -17q-7 -45 -41.5 -72t-80.5 -27q-42 0 -68 22t-26 59q0 6 2 18q3 16 9 29q-88 -28 -174 -119h-98zM455 136q-20 0 -35 -13t-18 -33q0 -2 -0.5 -4.5t-0.5 -3.5 q0 -17 10.5 -27.5t28.5 -10.5q20 0 34.5 13t17.5 33q0 2 0.5 5t0.5 4q0 17 -10 27t-28 10zM145 307q-20 0 -35 -13t-18 -33q0 -1 -0.5 -3.5t-0.5 -4.5q0 -17 10.5 -27.5t28.5 -10.5q20 0 34.5 13t17.5 33q0 1 0.5 4t0.5 5q0 17 -10 27t-28 10z" />
<glyph unicode="&#xe0a;" horiz-adv-x="640" d="M144 520q-20 0 -34.5 -13t-17.5 -33q0 -2 -0.5 -4t-0.5 -4q0 -17 10.5 -27.5t28.5 -10.5q20 0 34.5 13t17.5 33q0 2 0.5 4t0.5 4q0 17 -10.5 27.5t-28.5 10.5zM391 484q121 16 146 139l105 -9q-10 -56 -53.5 -98t-108.5 -61q73 -23 73 -80q0 -10 -1 -15l-29 -183 q-13 -84 -82 -140t-169 -56q-91 0 -143 40t-52 104q0 9 2 25q7 47 32 86t55.5 65.5t60.5 50.5t53.5 54t28.5 64q1 6 1 16q0 71 -98 71h-1q34 -23 34 -66q0 -11 -1 -17q-7 -44 -42 -71.5t-81 -27.5q-42 0 -67.5 22t-25.5 59q0 6 2 18q10 58 64 98.5t137 40.5 q75 0 117.5 -33.5t42.5 -89.5v-6zM379 427q-11 -31 -33.5 -60t-47 -51.5t-48 -45.5t-41.5 -51.5t-23 -60.5q-1 -6 -1 -17q0 -39 27.5 -60t72.5 -21q51 0 86.5 29t44.5 88l29 183q1 5 1 14q0 46 -67 53z" />
<glyph unicode="&#xe0b;" horiz-adv-x="640" d="M150 556q-20 0 -34.5 -13t-17.5 -33q0 -2 -0.5 -5t-0.5 -4q0 -17 10 -27t28 -10q20 0 35 13t18 33q0 2 0.5 4t0.5 4q0 17 -10.5 27.5t-28.5 10.5zM158 609q42 0 68 -22t26 -59q0 -6 -2 -18q-2 -19 -15 -40q60 43 93 129l39 5q27 -42 27 -94q0 -8 -2 -26q120 18 145 139 l105 -9q-10 -56 -53.5 -98t-108.5 -61q73 -23 73 -80q0 -10 -1 -15l-29 -183q-13 -84 -82 -140t-169 -56q-91 0 -143 40t-52 105q0 9 2 25q7 47 32.5 86.5t56.5 67.5t62 54t55.5 59t30.5 71q-63 -89 -171 -89q-53 0 -82 24.5t-29 65.5q0 6 2 20q7 45 41.5 72t80.5 27z M445 360q1 5 1 14q0 47 -70 54q-18 -43 -63 -88.5t-82 -89t-45 -91.5q-1 -6 -1 -17q0 -39 27.5 -60t72.5 -21q51 0 86.5 28.5t44.5 87.5z" />
<glyph unicode="&#xe0c;" horiz-adv-x="950" d="M453 136q-20 0 -35 -13t-18 -33q0 -2 -0.5 -4.5t-0.5 -3.5q0 -17 10.5 -27.5t28.5 -10.5q20 0 34.5 13t17.5 33q0 2 0.5 5t0.5 4q0 17 -10 27t-28 10zM353 619q108 0 170.5 -51t62.5 -134q0 -17 -3 -35l-29 -184q-2 -10 -2 -28q103 -13 164 -92q5 55 12 95l65 410h107 l-95 -600h-98q-28 49 -64 81t-89 42q0 -20 -2 -33q-7 -45 -41.5 -72t-80.5 -27q-42 0 -68 22t-26 59q0 6 2 18q7 43 40 70t78 29q-6 13 -6 33q0 11 1 18l25 159q2 10 2 29q0 55 -36.5 83.5t-100.5 28.5q-116 0 -166 -100l138 -30l-18 -44q-1 0 -6.5 1t-13 1.5t-12.5 0.5 q-57 0 -67 -65l-10 -64q-4 -28 -19 -51q42 0 67 -22t25 -59q0 -6 -2 -18q-7 -45 -41.5 -72t-80.5 -27q-42 0 -68 22t-26 59q0 6 2 18q4 23 16 60.5t15 59.5l14 84q12 76 84 98l-116 24q25 85 103.5 144t193.5 59zM158 136q-20 0 -35 -13t-18 -33q0 -2 -0.5 -4.5t-0.5 -3.5 q0 -17 10.5 -27.5t28.5 -10.5q20 0 34.5 13t17.5 33q0 2 0.5 5t0.5 4q0 17 -10 27t-28 10z" />
<glyph unicode="&#xe0d;" horiz-adv-x="950" d="M158 136q-20 0 -35 -13t-18 -33q0 -2 -0.5 -4.5t-0.5 -3.5q0 -17 10.5 -27.5t28.5 -10.5q20 0 34.5 13t17.5 33q0 2 0.5 5t0.5 4q0 17 -10 27t-28 10zM353 619q108 0 170.5 -51t62.5 -134q0 -17 -3 -35l-38 -242q-2 -16 -2 -23q0 -38 22 -56t57 -18q41 0 69.5 23.5 t36.5 73.5l70 443h107l-70 -443q-12 -75 -74 -125.5t-152 -50.5q-81 0 -127 41.5t-46 106.5q0 10 2 28l38 242q2 10 2 29q0 55 -36.5 83.5t-100.5 28.5q-116 0 -166 -100l138 -30l-18 -44q-1 0 -6.5 1t-13 1.5t-12.5 0.5q-57 0 -67 -65l-10 -64q-4 -28 -19 -51q42 0 67 -22 t25 -59q0 -6 -2 -18q-7 -45 -41.5 -72t-80.5 -27q-42 0 -68 22t-26 59q0 6 2 18q4 23 16 60.5t15 59.5l14 84q12 76 84 98l-116 24q25 85 103.5 144t193.5 59zM494 -113q-16 0 -28 -10t-14 -27v-7q0 -30 30 -30q16 0 28 10t14 27v7q0 30 -30 30zM502 -66q35 0 56 -18.5 t21 -50.5q0 -10 -1 -15q-6 -33 -30 -56h13h20q108 0 128 125l79 -9q-13 -78 -68.5 -123t-133.5 -45h-60q-60 0 -94.5 23.5t-34.5 66.5q0 12 1 18q6 38 35 61t69 23z" />
<glyph unicode="&#xe0e;" horiz-adv-x="665" d="M109 136q-20 0 -35 -13t-18 -33q0 -2 -0.5 -4.5t-0.5 -3.5q0 -17 10.5 -27.5t28.5 -10.5q20 0 34.5 13t17.5 33q0 2 0.5 5t0.5 4q0 17 -10 27t-28 10zM363 619q108 0 170.5 -51t62.5 -134q0 -17 -3 -35l-75 -474l-25 -160h-96q-78 61 -165 100q1 -6 -1 -20 q-6 -35 -37.5 -63.5t-78.5 -28.5q-41 0 -65 21.5t-24 55.5q0 10 1 15q7 41 40 67t80 26q99 0 253 -103q4 50 11 90l75 474q2 10 2 29q0 55 -36.5 83.5t-100.5 28.5q-117 0 -166 -99l158 -31l-18 -44q-1 0 -6.5 1t-13 1.5t-12.5 0.5q-57 0 -67 -65l-15 -94q-2 -12 -2 -33 q0 -9 0.5 -26t0.5 -27q0 -22 -2 -34q-7 -45 -41.5 -72t-80.5 -27q-42 0 -68 22t-26 59q0 6 2 18q7 43 40.5 70t78.5 29q-5 17 -5 33q0 12 1 18l9 54q12 75 82 98l-134 23v1q25 85 103.5 144t193.5 59zM171 -114q-22 4 -28 4q-19 0 -34.5 -11.5t-18.5 -33.5q-1 -3 -1 -9 q0 -17 10.5 -26t25.5 -9q21 0 36 12.5t18 31.5q1 4 1 11q0 16 -9 30z" />
<glyph unicode="&#xe0f;" horiz-adv-x="665" d="M109 136q-20 0 -35 -13t-18 -33q0 -2 -0.5 -4.5t-0.5 -3.5q0 -17 10.5 -27.5t28.5 -10.5q20 0 34.5 13t17.5 33q0 2 0.5 5t0.5 4q0 17 -10 27t-28 10zM363 619q108 0 170.5 -51t62.5 -134q0 -17 -3 -35l-75 -474l-25 -160h-96l-109 97q-30 -38 -57 -59q-65 -50 -129 -50 q-42 0 -66.5 21t-24.5 56q0 10 1 16q6 40 38 66t78 26q43 0 65.5 -24t22.5 -57v-8q34 34 55 76h33l96 -90q4 50 11 90l75 474q2 10 2 29q0 55 -36.5 83.5t-100.5 28.5q-117 0 -166 -99l158 -31l-18 -44q-1 0 -6.5 1t-13 1.5t-12.5 0.5q-57 0 -67 -65l-15 -94q-2 -12 -2 -33 q0 -9 0.5 -26t0.5 -27q0 -22 -2 -34q-7 -45 -41.5 -72t-80.5 -27q-42 0 -68 22t-26 59q0 6 2 18q7 43 40.5 70t78.5 29q-5 17 -5 33q0 12 1 18l9 54q12 75 82 98l-134 23v1q25 85 103.5 144t193.5 59zM75 -154q-1 -3 -1 -9q0 -35 39 -35q17 0 30 4q17 17 21 40q0 2 0.5 4 t0.5 3q0 16 -11.5 26.5t-29.5 10.5q-17 0 -31 -11.5t-18 -32.5z" />
<glyph unicode="&#xe10;" horiz-adv-x="555" d="M141 277q-20 0 -34.5 -13t-17.5 -33q0 -1 -0.5 -4t-0.5 -5q0 -17 10 -27t28 -10q20 0 35 13t18 33q0 1 0.5 4t0.5 4q0 17 -10.5 27.5t-28.5 10.5zM149 330q40 0 69.5 -18.5t46 -51t25 -68t10.5 -76.5q5 23 26.5 83.5t26.5 93.5q1 4 1 13q0 50 -71.5 71.5t-229.5 21.5 l4 25q14 87 82 141t163 54q97 0 148 -59q1 2 2.5 4.5t3 4.5t2.5 3l30 41l77 -15l-1 -5l-101 -108h-33q-37 62 -123 62q-50 0 -89 -24t-55 -73q147 -6 221.5 -34.5t74.5 -91.5q0 -12 -1 -18q-7 -40 -44.5 -123.5t-43.5 -122.5l-10 -60h-114q3 26 3 53q0 82 -24 136 q-36 -57 -107 -57q-42 0 -67.5 22t-25.5 59q0 6 2 18q7 45 41.5 72t80.5 27zM49 -154q-1 -3 -1 -9q0 -35 39 -35q17 0 30 4q17 17 21 40q0 2 0.5 4t0.5 3q0 16 -11.5 26.5t-29.5 10.5q-17 0 -31 -11.5t-18 -32.5zM190 -151q34 34 55 76h33l66 -81q9 67 11 81h80l-25 -160 h-69l-81 94q-26 -33 -55 -56q-65 -50 -129 -50q-42 0 -66.5 21t-24.5 56q0 10 1 16q6 40 38 66t78 26q43 0 65.5 -24t22.5 -57v-8z" />
<glyph unicode="&#xe11;" horiz-adv-x="665" d="M150 556q-20 0 -34.5 -13t-17.5 -33q0 -2 -0.5 -5t-0.5 -4q0 -17 10 -27t28 -10q20 0 35 13t18 33q0 2 0.5 4t0.5 4q0 17 -10.5 27.5t-28.5 10.5zM158 609q42 0 68 -22t26 -59q0 -6 -2 -18q-2 -19 -15 -40q60 43 93 129l40 5q25 -39 26 -87q78 92 137 92q74 0 74 -84 q0 -21 -3 -38l-77 -487h-107l74 468q2 16 2 22q0 27 -17 30q-37 -11 -102 -97q-14 -34 -43 -69.5t-54 -60.5t-47.5 -61t-28.5 -73l-25 -159h-107l24 151q7 47 30.5 86.5t53 67.5t58 54t51.5 59t29 71q-63 -89 -171 -89q-53 0 -82 24.5t-29 65.5q0 6 2 20q7 45 41.5 72 t80.5 27z" />
<glyph unicode="&#xe12;" horiz-adv-x="960" d="M328 365q-20 0 -34.5 -13t-17.5 -33q0 -1 -0.5 -4t-0.5 -5q0 -17 10 -27t28 -10q20 0 35 13t18 33q0 1 0.5 4t0.5 4q0 17 -10.5 27.5t-28.5 10.5zM463 136q-20 0 -35 -13t-18 -33q0 -2 -0.5 -4.5t-0.5 -3.5q0 -17 10.5 -27.5t28.5 -10.5q20 0 34.5 13t17.5 33q0 2 0.5 5 t0.5 4q0 17 -10 27t-28 10zM276 613l78 -80l104 80q77 0 108.5 -45t31.5 -111q0 -30 -5 -58l-29 -184q-2 -10 -2 -28q103 -13 164 -92q5 55 12 95l65 410h107l-95 -600h-98q-28 49 -64 81t-89 42q0 -20 -2 -33q-7 -45 -41.5 -72t-80.5 -27q-42 0 -68 22t-26 59q0 6 2 18 q7 44 41.5 71t80.5 28q-6 13 -6 35q0 10 1 16l25 159q5 29 5 59q0 73 -43 79l-96 -69h-12h-12l-74 69q-66 -8 -86 -138q-14 -87 -14 -162v-10q0 -44 -4 -70q-8 -46 -14 -65q31 31 94 72.5t80 55.5h-9q-42 0 -67.5 22t-25.5 59q0 6 2 18q7 45 41.5 72t80.5 27q42 0 68 -22 t26 -59q0 -6 -2 -18q-7 -44 -33.5 -81t-62 -65t-71.5 -53t-68.5 -56t-46.5 -64h-121q22 71 29 118q7 42 7 89q0 7 -0.5 20.5t-0.5 21.5q0 67 13 150q6 36 18 68.5t34 68t61 56.5t90 21z" />
<glyph unicode="&#xe13;" horiz-adv-x="960" d="M158 136q-20 0 -35 -13t-18 -33q0 -2 -0.5 -4.5t-0.5 -3.5q0 -17 10.5 -27.5t28.5 -10.5q20 0 34.5 13t17.5 33q0 2 0.5 5t0.5 4q0 17 -10 27t-28 10zM766 136q-20 0 -35 -13t-18 -33q0 -2 -0.5 -4.5t-0.5 -3.5q0 -17 10.5 -27.5t28.5 -10.5q20 0 34.5 13t17.5 33 q0 2 0.5 5t0.5 4q0 17 -10 27t-28 10zM175 440l138 -30l-18 -44q-1 0 -6.5 1t-13 1.5t-12.5 0.5q-57 0 -67 -65l-10 -64q-4 -28 -19 -51q42 0 67 -22t25 -59q0 -6 -2 -18q-7 -45 -41.5 -72t-80.5 -27q-42 0 -68 22t-26 59q0 6 2 18q4 23 16 60.5t15 59.5l14 84q12 76 84 98 l-116 24q25 85 103.5 144t193.5 59q108 0 170.5 -51t62.5 -134q0 -17 -3 -35l-33 -209q-4 -25 -17 -90q89 83 196 92q8 14 9 23l61 385h106l-58 -365q-4 -29 -36 -52q55 -18 55 -76q0 -11 -1 -17q-7 -45 -41.5 -72t-80.5 -27q-42 0 -68 22t-26 59q0 6 2 18q1 2 9 28 q-79 -29 -149 -118h-98l63 399q2 10 2 29q0 55 -36.5 83.5t-100.5 28.5q-116 0 -166 -100z" />
<glyph unicode="&#xe14;" horiz-adv-x="665" d="M423 0l16 100q3 20 21.5 123.5t29.5 175.5q2 11 2 30q0 111 -136 111q-74 0 -123.5 -35.5t-60.5 -105.5q-14 -87 -14 -162v-10q0 -44 -4 -70q-8 -46 -14 -65q31 31 94 72.5t80 55.5h-9q-42 0 -67.5 22t-25.5 59q0 6 2 18q7 45 41.5 72t80.5 27q42 0 68 -22t26 -59 q0 -6 -2 -18q-7 -44 -33.5 -81t-62 -65t-71.5 -53t-68.5 -56t-46.5 -64h-121q22 71 29 118q7 42 7 89q0 7 -0.5 20.5t-0.5 21.5q0 67 13 150q15 96 96.5 158t198.5 62q106 0 167 -51t61 -134q0 -17 -3 -35l-63 -399h-107zM328 365q-20 0 -34.5 -13t-17.5 -33q0 -1 -0.5 -4 t-0.5 -5q0 -17 10 -27t28 -10q20 0 35 13t18 33q0 1 0.5 4t0.5 4q0 17 -10.5 27.5t-28.5 10.5z" />
<glyph unicode="&#xe15;" horiz-adv-x="665" d="M423 0l16 100q3 20 21.5 123.5t29.5 175.5q5 29 5 59q0 73 -43 79l-96 -69h-12h-12l-74 69q-66 -8 -86 -138q-14 -87 -14 -162v-10q0 -44 -4 -70q-8 -46 -14 -65q31 31 94 72.5t80 55.5h-9q-42 0 -67.5 22t-25.5 59q0 6 2 18q7 45 41.5 72t80.5 27q42 0 68 -22t26 -59 q0 -6 -2 -18q-7 -44 -33.5 -81t-62 -65t-71.5 -53t-68.5 -56t-46.5 -64h-121q22 71 29 118q7 42 7 89q0 7 -0.5 20.5t-0.5 21.5q0 67 13 150q6 36 18 68.5t34 68t61 56.5t90 21l78 -80l104 80q77 0 108.5 -45t31.5 -111q0 -30 -5 -58l-63 -399h-107zM328 365 q-20 0 -34.5 -13t-17.5 -33q0 -1 -0.5 -4t-0.5 -5q0 -17 10 -27t28 -10q20 0 35 13t18 33q0 1 0.5 4t0.5 4q0 17 -10.5 27.5t-28.5 10.5z" />
<glyph unicode="&#xe16;" horiz-adv-x="655" d="M353 619q108 0 170.5 -51t62.5 -134q0 -17 -3 -35l-63 -399h-107l63 399q2 10 2 29q0 55 -36.5 83.5t-100.5 28.5q-116 0 -166 -100l138 -30l-18 -44q-1 0 -6.5 1t-13 1.5t-12.5 0.5q-57 0 -67 -65l-10 -64q-4 -28 -19 -51q42 0 67 -22t25 -59q0 -6 -2 -18 q-7 -45 -41.5 -72t-80.5 -27q-42 0 -68 22t-26 59q0 6 2 18q4 23 16 60.5t15 59.5l14 84q12 76 84 98l-116 24q25 85 103.5 144t193.5 59zM158 136q-20 0 -35 -13t-18 -33q0 -2 -0.5 -4.5t-0.5 -3.5q0 -17 10.5 -27.5t28.5 -10.5q20 0 34.5 13t17.5 33q0 2 0.5 5t0.5 4 q0 17 -10 27t-28 10z" />
<glyph unicode="&#xe17;" horiz-adv-x="660" d="M151 464q20 0 35 13t18 33q0 2 0.5 4t0.5 4q0 17 -10.5 27.5t-28.5 10.5q-20 0 -34.5 -13t-17.5 -33q0 -2 -0.5 -5t-0.5 -4q0 -17 10 -27t28 -10zM212 282q150 327 288 327q53 0 76 -30t23 -72q0 -8 -2 -22l-77 -485h-106l74 467q1 5 1 15q0 34 -23 37 q-65 -21 -152.5 -164.5t-130.5 -255.5l-16 -99h-107l57 360q4 24 21 51q-39 2 -63 24t-24 58q0 11 1 17q7 45 41.5 72t80.5 27q42 0 68 -22t26 -59q0 -6 -2 -18q-4 -23 -19 -60.5t-18 -59.5z" />
<glyph unicode="&#xe18;" horiz-adv-x="585" d="M43 177l20 123h107l-20 -123q-2 -10 -2 -27q0 -45 26.5 -67t70.5 -22q51 0 86.5 28.5t44.5 87.5l17 107q1 4 1 12q0 51 -80.5 73.5t-246.5 22.5l5 32q14 87 82 141t163 54q97 0 148 -59q1 2 2.5 4.5t3 4.5t2.5 3l30 41l77 -15l-1 -5l-101 -108h-33q-37 62 -123 62 q-51 0 -90.5 -24.5t-54.5 -76.5q326 -12 326 -133q0 -10 -1 -16l-19 -120q-13 -84 -82 -140t-169 -56q-90 0 -141 45.5t-51 118.5q0 15 3 32z" />
<glyph unicode="&#xe19;" horiz-adv-x="650" d="M60 0l57 360q4 29 21 51q-40 2 -63.5 24t-23.5 58q0 11 1 17q7 45 41.5 72t80.5 27q42 0 68 -22t26 -59q0 -6 -2 -18q-4 -26 -19 -63t-19 -62l-31 -195q-9 -57 -18 -96q110 89 240 98q8 14 9 23l61 385h106l-58 -365q-4 -29 -36 -52q55 -18 55 -76q0 -11 -1 -17 q-7 -45 -41.5 -72t-80.5 -27q-42 0 -68 22t-26 59q0 6 2 18q3 19 10 32q-103 -27 -193 -122h-98zM456 136q-20 0 -35 -13t-18 -33q0 -2 -0.5 -4.5t-0.5 -3.5q0 -17 10.5 -27.5t28.5 -10.5q20 0 34.5 13t17.5 33q0 2 0.5 5t0.5 4q0 17 -10 27t-28 10zM151 464q20 0 35 13 t18 33q0 2 0.5 4t0.5 4q0 17 -10.5 27.5t-28.5 10.5q-20 0 -34.5 -13t-17.5 -33q0 -2 -0.5 -5t-0.5 -4q0 -17 10 -27t28 -10z" />
<glyph unicode="&#xe1a;" horiz-adv-x="700" d="M146 464q20 0 35 13t18 33q0 2 0.5 4t0.5 4q0 17 -10.5 27.5t-28.5 10.5q-20 0 -34.5 -13t-17.5 -33q0 -2 -0.5 -5t-0.5 -4q0 -17 10 -27t28 -10zM261 510q-4 -23 -19 -60.5t-18 -59.5l-32 -202q-2 -9 -2 -27q0 -50 33 -75.5t92 -25.5q66 0 109.5 32.5t53.5 95.5l65 412 h107l-65 -412q-14 -91 -92.5 -149t-190.5 -58q-102 0 -161 48t-59 126q0 17 3 33l27 172q4 24 21 51q-39 2 -63 24t-24 58q0 11 1 17q7 45 41.5 72t80.5 27q42 0 68 -22t26 -59q0 -6 -2 -18z" />
<glyph unicode="&#xe1b;" horiz-adv-x="700" d="M146 464q20 0 35 13t18 33q0 2 0.5 4t0.5 4q0 17 -10.5 27.5t-28.5 10.5q-20 0 -34.5 -13t-17.5 -33q0 -2 -0.5 -5t-0.5 -4q0 -17 10 -27t28 -10zM261 510q-4 -23 -19 -60.5t-18 -59.5l-32 -202q-2 -9 -2 -27q0 -50 33 -75.5t92 -25.5q66 0 109.5 32.5t53.5 95.5l98 622 h107l-98 -622q-14 -91 -92.5 -149t-190.5 -58q-102 0 -161 48t-59 126q0 17 3 33l27 172q4 24 21 51q-39 2 -63 24t-24 58q0 11 1 17q7 45 41.5 72t80.5 27q42 0 68 -22t26 -59q0 -6 -2 -18z" />
<glyph unicode="&#xe1c;" horiz-adv-x="715" d="M497 187l65 413h103l-95 -600h-100l-127 283l-217 -283h-100l46 290q6 39 7 94t5 81q11 66 56 105t116 39q42 0 68 -22t26 -59q0 -6 -2 -18q-7 -44 -42 -71.5t-81 -27.5q-32 0 -55 14q1 -12 5.5 -39.5t4.5 -46.5q0 -17 -3 -39l-18 -113q-2 -18 -17 -64l181 237h32h32 l105 -237q0 27 5 64zM233 464q20 0 35 13t18 33q0 2 0.5 4t0.5 4q0 17 -10.5 27.5t-28.5 10.5q-20 0 -34.5 -13t-17.5 -33q0 -2 -0.5 -5t-0.5 -4q0 -17 10 -27t28 -10z" />
<glyph unicode="&#xe1d;" horiz-adv-x="715" d="M497 187l98 623h103l-128 -810h-100l-127 283l-217 -283h-100l46 290q6 39 7 94t5 81q11 66 56 105t116 39q42 0 68 -22t26 -59q0 -6 -2 -18q-7 -44 -42 -71.5t-81 -27.5q-32 0 -55 14q1 -12 5.5 -39.5t4.5 -46.5q0 -17 -3 -39l-18 -113q-2 -18 -17 -64l181 237h32h32 l105 -237q0 27 5 64zM233 464q20 0 35 13t18 33q0 2 0.5 4t0.5 4q0 17 -10.5 27.5t-28.5 10.5q-20 0 -34.5 -13t-17.5 -33q0 -2 -0.5 -5t-0.5 -4q0 -17 10 -27t28 -10z" />
<glyph unicode="&#xe1e;" horiz-adv-x="735" d="M685 600l-95 -600h-92l-112 388l-234 -388h-92l57 360q4 29 21 51q-40 2 -64 24t-24 58q0 11 1 17q7 45 41.5 72t80.5 27q42 0 68 -22t26 -59q0 -6 -2 -18q-4 -25 -20.5 -62t-20.5 -61l-25 -157q-6 -32 -12 -55l190 320h26h26l89 -322q2 42 5 57l59 370h103zM150 464 q20 0 35 13t18 33q0 2 0.5 4t0.5 4q0 17 -10.5 27.5t-28.5 10.5q-20 0 -34.5 -13t-17.5 -33q0 -2 -0.5 -5t-0.5 -4q0 -17 10 -27t28 -10z" />
<glyph unicode="&#xe1f;" horiz-adv-x="735" d="M718 810l-128 -810h-92l-112 388l-234 -388h-92l57 360q4 29 21 51q-40 2 -64 24t-24 58q0 11 1 17q7 45 41.5 72t80.5 27q42 0 68 -22t26 -59q0 -6 -2 -18q-4 -25 -20.5 -62t-20.5 -61l-25 -157q-6 -32 -12 -55l190 320h26h26l89 -322q2 42 5 57l92 580h103zM150 464 q20 0 35 13t18 33q0 2 0.5 4t0.5 4q0 17 -10.5 27.5t-28.5 10.5q-20 0 -34.5 -13t-17.5 -33q0 -2 -0.5 -5t-0.5 -4q0 -17 10 -27t28 -10z" />
<glyph unicode="&#xe20;" horiz-adv-x="665" d="M109 136q-20 0 -35 -13t-18 -33q0 -2 -0.5 -4.5t-0.5 -3.5q0 -17 10.5 -27.5t28.5 -10.5q20 0 34.5 13t17.5 33q0 2 0.5 5t0.5 4q0 17 -10 27t-28 10zM363 619q108 0 170.5 -51t62.5 -134q0 -17 -3 -35l-63 -399h-107l63 399q2 10 2 29q0 55 -36.5 83.5t-100.5 28.5 q-117 0 -166 -99l158 -31l-18 -44q-1 0 -6.5 1t-13 1.5t-12.5 0.5q-57 0 -67 -65l-15 -94q-2 -12 -2 -33q0 -9 0.5 -26t0.5 -27q0 -22 -2 -34q-7 -45 -41.5 -72t-80.5 -27q-42 0 -68 22t-26 59q0 6 2 18q7 43 40.5 70t78.5 29q-5 17 -5 33q0 12 1 18l9 54q12 74 83 98 l-135 24q25 85 103.5 144t193.5 59z" />
<glyph unicode="&#xe21;" horiz-adv-x="645" d="M120 136q-20 0 -35 -13t-18 -33q0 -2 -0.5 -4.5t-0.5 -3.5q0 -17 10.5 -27.5t28.5 -10.5q20 0 34.5 13t17.5 33q0 2 0.5 5t0.5 4q0 17 -10 27t-28 10zM161 464q20 0 35 13t18 33q0 2 0.5 4t0.5 4q0 17 -10.5 27.5t-28.5 10.5q-20 0 -34.5 -13t-17.5 -33q0 -2 -0.5 -5 t-0.5 -4q0 -17 10 -27t28 -10zM116 188q-9 18 -9 38q0 9 1 14l19 120q4 29 21 51q-40 2 -63.5 24t-23.5 58q0 11 1 17q7 45 41.5 72t80.5 27q42 0 68 -22t26 -59q0 -6 -2 -18q-4 -26 -19 -63t-19 -62l-27 -170q-2 -12 -2 -17q0 -2 0.5 -5.5t0.5 -4.5q122 -14 201 -95 q5 57 12 97l65 410h107l-95 -600h-98q-65 101 -182 123v-16q0 -11 -1 -17q-8 -45 -42 -72t-80 -27q-42 0 -68 22t-26 59q0 6 2 18q7 41 37.5 67.5t73.5 30.5z" />
<glyph unicode="&#xe22;" horiz-adv-x="645" d="M238 464q20 0 35 13t18 33q0 2 0.5 4t0.5 4q0 17 -10.5 27.5t-28.5 10.5q-20 0 -34.5 -13t-17.5 -33q0 -2 -0.5 -5t-0.5 -4q0 -17 10 -27t28 -10zM493 600h107l-65 -412q-14 -91 -92.5 -149t-190.5 -58q-102 0 -161.5 46t-59.5 121q0 20 2 30q16 100 124 134 q-80 39 -80 125q0 18 2 28q11 65 59.5 104.5t122.5 39.5q42 0 68 -22t26 -59q0 -6 -2 -18q-7 -44 -42 -71.5t-81 -27.5q-56 0 -80 37v-2q0 -100 173 -100l-10 -62q-156 0 -172 -102q-2 -16 -2 -24q0 -48 33.5 -73t92.5 -25q66 0 109.5 32.5t53.5 95.5z" />
<glyph unicode="&#xe23;" horiz-adv-x="530" d="M415 560q6 10 8 13l29 40l78 -15l-1 -5l-102 -108h-33q-37 62 -117 62q-49 0 -87.5 -25t-52.5 -76q129 -6 198.5 -33.5t69.5 -88.5q0 -6 -2 -18l-19 -121l-11 -71q-9 -56 -49 -89.5t-100 -33.5q-42 0 -68 22t-26 59q0 6 2 18q7 44 42 71.5t81 27.5q13 0 26 -3q0 26 1 31 l12 76q1 4 1 13q0 48 -64.5 67.5t-203.5 19.5l5 31q14 88 80 141.5t159 53.5q95 0 144 -59zM247 136q-20 0 -35 -13t-18 -33q0 -2 -0.5 -4.5t-0.5 -3.5q0 -17 10.5 -27.5t28.5 -10.5q20 0 34.5 13t17.5 33q0 2 0.5 5t0.5 4q0 17 -10 27t-28 10z" />
<glyph unicode="&#xe24;" horiz-adv-x="655" d="M353 619q108 0 170.5 -51t62.5 -134q0 -17 -3 -35l-96 -609h-107l96 609q2 10 2 29q0 55 -36.5 83.5t-100.5 28.5q-116 0 -166 -100l138 -30l-18 -44q-1 0 -6.5 1t-13 1.5t-12.5 0.5q-57 0 -67 -65l-10 -64q-4 -28 -19 -51q42 0 67 -22t25 -59q0 -6 -2 -18 q-7 -45 -41.5 -72t-80.5 -27q-42 0 -68 22t-26 59q0 6 2 18q4 23 16 60.5t15 59.5l14 84q12 76 84 98l-116 24q25 85 103.5 144t193.5 59zM158 136q-20 0 -35 -13t-18 -33q0 -2 -0.5 -4.5t-0.5 -3.5q0 -17 10.5 -27.5t28.5 -10.5q20 0 34.5 13t17.5 33q0 2 0.5 5t0.5 4 q0 17 -10 27t-28 10z" />
<glyph unicode="&#xe25;" horiz-adv-x="635" d="M27 107l15 95q10 64 53 109t128 45q134 0 206 -130l29 183q2 10 2 28q0 103 -129 103q-63 0 -107 -33t-61 -92l-106 8q25 82 100 139t186 57q104 0 164.5 -48.5t60.5 -128.5q0 -16 -3 -33l-65 -409h-107l17 105q-10 61 -62.5 120t-128.5 59q-31 0 -50 -17.5t-24 -47.5 q-2 -10 -12 -33q13 3 30 3q42 0 67.5 -22t25.5 -59q0 -6 -2 -18q-7 -45 -41.5 -72t-80.5 -27q-49 0 -77.5 27t-28.5 70q0 13 1 19zM155 136q-20 0 -35 -13t-18 -33q0 -2 -0.5 -4.5t-0.5 -3.5q0 -17 10.5 -27.5t28.5 -10.5q20 0 34.5 13t17.5 33q0 2 0.5 5t0.5 4q0 17 -10 27 t-28 10z" />
<glyph unicode="&#xe26;" horiz-adv-x="670" d="M109 136q-20 0 -35 -13t-18 -33q0 -2 -0.5 -4.5t-0.5 -3.5q0 -17 10.5 -27.5t28.5 -10.5q20 0 34.5 13t17.5 33q0 2 0.5 5t0.5 4q0 17 -10 27t-28 10zM363 619q108 0 170.5 -51t62.5 -134q0 -17 -3 -35l-96 -609h-107l96 609q2 10 2 29q0 55 -36.5 83.5t-100.5 28.5 q-117 0 -166 -99l158 -31l-18 -44q-1 0 -6.5 1t-13 1.5t-12.5 0.5q-57 0 -67 -65l-15 -94q-2 -12 -2 -33q0 -9 0.5 -26t0.5 -27q0 -22 -2 -34q-7 -45 -41.5 -72t-80.5 -27q-42 0 -68 22t-26 59q0 6 2 18q7 43 40.5 70t78.5 29q-5 17 -5 33q0 12 1 18l9 54q12 74 83 98 l-135 24q25 85 103.5 144t193.5 59z" />
<glyph unicode="&#xe27;" horiz-adv-x="535" d="M26 451q22 69 86.5 118.5t160.5 49.5q90 0 141 -45.5t51 -118.5q0 -15 -3 -32l-38 -238l-11 -71q-9 -56 -49 -89.5t-100 -33.5q-42 0 -68 22t-26 59q0 6 2 18q7 44 42 71.5t81 27.5q13 0 26 -3q0 26 1 31l33 206q2 10 2 28q0 89 -96 89q-47 0 -81 -25.5t-49 -71.5z M287 136q-20 0 -35 -13t-18 -33q0 -2 -0.5 -4.5t-0.5 -3.5q0 -17 10.5 -27.5t28.5 -10.5q20 0 34.5 13t17.5 33q0 2 0.5 5t0.5 4q0 17 -10 27t-28 10z" />
<glyph unicode="&#xe28;" horiz-adv-x="680" d="M328 365q-20 0 -34.5 -13t-17.5 -33q0 -1 -0.5 -4t-0.5 -5q0 -17 10 -27t28 -10q20 0 35 13t18 33q0 1 0.5 4t0.5 4q0 17 -10.5 27.5t-28.5 10.5zM423 0l16 100q3 20 21.5 123.5t29.5 175.5q2 10 2 28q0 28 -9 49q-47 -31 -98 -68q45 -21 45 -71q0 -6 -2 -18 q-7 -44 -42 -71.5t-81 -27.5q-59 0 -83 41q-43 -63 -63 -161l-19 -100h-115q22 71 29 118q7 42 7 89q0 7 -0.5 20.5t-0.5 21.5q0 67 13 150q15 96 96.5 158t198.5 62q94 0 156 -43q71 61 140 67l3 -93q-52 -1 -96 -24q25 -41 25 -93q0 -16 -3 -34l-63 -399h-107zM453 515 q-34 25 -97 25q-73 0 -121 -35.5t-59 -105.5q-12 -72 -19 -158q42 104 100 149q27 22 63 27q70 54 133 98z" />
<glyph unicode="&#xe29;" horiz-adv-x="710" d="M146 464q20 0 35 13t18 33q0 2 0.5 4t0.5 4q0 17 -10.5 27.5t-28.5 10.5q-20 0 -34.5 -13t-17.5 -33q0 -2 -0.5 -5t-0.5 -4q0 -17 10 -27t28 -10zM375 380q-16 0 -27 -10t-13 -25v-6q0 -29 29 -29q16 0 27.5 10t13.5 25v6q0 29 -30 29zM382 422q33 0 53 -17t20 -47 q0 -9 -1 -13q-4 -28 -26 -50q6 1 15 1q30 0 53 4l47 300h107l-43 -271q36 13 74 31l10 -56q-43 -19 -93 -32l-13 -84q-14 -91 -92.5 -149t-190.5 -58q-102 0 -161 48t-59 126q0 17 3 33l27 172q4 24 21 51q-39 2 -63 24t-24 58q0 11 1 17q7 45 41.5 72t80.5 27q42 0 68 -22 t26 -59q0 -6 -2 -18q-4 -23 -19 -60.5t-18 -59.5l-32 -202q-2 -9 -2 -27q0 -50 33 -75.5t92 -25.5q66 0 109.5 32.5t53.5 95.5l10 64q-35 -4 -83 -4q-57 0 -88.5 21t-31.5 60q0 10 1 16q5 35 32 56t64 21z" />
<glyph unicode="&#xe2a;" horiz-adv-x="650" d="M27 107l15 95q10 64 53 109t128 45h3q89 77 202 156q-34 28 -97 28t-107 -33t-61 -92l-106 8q25 82 100 139t186 57q101 0 160 -45q73 63 141 69l3 -93q-52 -1 -100 -26q21 -39 21 -82q0 -16 -3 -33l-65 -409h-107l17 105q-10 61 -62.5 120t-128.5 59q-31 0 -50 -17.5 t-24 -47.5q-2 -10 -12 -33q13 3 30 3q42 0 67.5 -22t25.5 -59q0 -6 -2 -18q-7 -45 -41.5 -72t-80.5 -27q-49 0 -77.5 27t-28.5 70q0 13 1 19zM155 136q-20 0 -35 -13t-18 -33q0 -2 -0.5 -4.5t-0.5 -3.5q0 -17 10.5 -27.5t28.5 -10.5q20 0 34.5 13t17.5 33q0 2 0.5 5t0.5 4 q0 17 -10 27t-28 10zM285 348q91 -25 144 -122l29 183q2 10 2 28q0 21 -4 34q-109 -72 -171 -123z" />
<glyph unicode="&#xe2b;" horiz-adv-x="660" d="M507 464q20 0 35 13t18 33q0 2 0.5 4t0.5 4q0 17 -10.5 27.5t-28.5 10.5q-20 0 -34.5 -13t-17.5 -33q0 -2 -0.5 -5t-0.5 -4q0 -17 10 -27t28 -10zM151 464q20 0 35 13t18 33q0 2 0.5 4t0.5 4q0 17 -10.5 27.5t-28.5 10.5q-20 0 -34.5 -13t-17.5 -33q0 -2 -0.5 -5t-0.5 -4 q0 -17 10 -27t28 -10zM473 381q-89 -22 -175 -109t-117 -185l-14 -87h-107l57 360q4 24 21 51q-39 2 -63 24t-24 58q0 11 1 17q7 45 41.5 72t80.5 27q42 0 68 -22t26 -59q0 -6 -2 -18q-4 -23 -19 -60.5t-18 -59.5l-21 -134q101 133 222 179q-23 21 -23 58q0 11 1 17 q7 45 41.5 72t80.5 27q42 0 68 -22t26 -59q0 -6 -2 -18q-11 -67 -77 -91q33 -24 33 -51q0 -2 -0.5 -4.5t-0.5 -3.5l-57 -360h-107l60 380v1z" />
<glyph unicode="&#xe2c;" horiz-adv-x="760" d="M524 232l28 180q3 16 11 31h-6q-42 0 -67.5 22t-25.5 59q0 6 2 18q7 44 42 71.5t81 27.5q42 0 67.5 -22t25.5 -59q0 -6 -2 -18v-1l1 1l-1 -2v-2q24 31 38 92l61 -7q-27 -101 -112 -148q-5 -19 -9 -43l-68 -430h-92l-116 358l-230 -358h-92l57 360q4 29 21 51 q-40 2 -64 24t-24 58q0 11 1 17q7 44 42 71.5t81 27.5q42 0 67.5 -22t25.5 -59q0 -6 -2 -18q-4 -25 -20 -62t-20 -61l-25 -157q-3 -20 -17 -67l190 302h26h26l94 -304q0 34 5 69zM566 496q20 0 34.5 13t17.5 33q0 2 0.5 4t0.5 4q0 17 -10.5 27.5t-28.5 10.5q-20 0 -34.5 -13 t-17.5 -33q0 -2 -0.5 -4t-0.5 -4q0 -17 10.5 -27.5t28.5 -10.5zM151 466q20 0 34.5 13t17.5 33q0 2 0.5 4t0.5 4q0 17 -10.5 27.5t-28.5 10.5q-20 0 -34.5 -13t-17.5 -33q0 -2 -0.5 -4t-0.5 -4q0 -17 10.5 -27.5t28.5 -10.5z" />
<glyph unicode="&#xe2d;" horiz-adv-x="635" d="M57 423q25 82 100 139t186 57q104 0 164.5 -48.5t60.5 -128.5q0 -16 -3 -33l-36 -225q-14 -88 -88.5 -145.5t-183.5 -57.5q-98 0 -154.5 47.5t-56.5 123.5q0 16 3 32l12 77q7 44 42 71.5t81 27.5q42 0 67.5 -22t25.5 -59q0 -6 -2 -18q-7 -45 -41.5 -72t-80.5 -27h-5v-2 q0 -50 33.5 -75t88.5 -25q60 0 101.5 31.5t50.5 92.5l36 225q2 10 2 28q0 103 -129 103q-63 0 -107 -33t-61 -92zM176 307q-20 0 -35 -13t-18 -33q0 -1 -0.5 -3.5t-0.5 -4.5q0 -17 10.5 -27.5t28.5 -10.5q20 0 34.5 13t17.5 33q0 1 0.5 4t0.5 5q0 17 -10 27t-28 10z" />
<glyph unicode="&#xe2e;" horiz-adv-x="640" d="M171 307q-20 0 -35 -13t-18 -33q0 -1 -0.5 -3.5t-0.5 -4.5q0 -17 10.5 -27.5t28.5 -10.5q20 0 34.5 13t17.5 33q0 1 0.5 4t0.5 5q0 17 -10 27t-28 10zM179 360q42 0 67.5 -22t25.5 -59q0 -6 -2 -18q-7 -45 -41.5 -72t-80.5 -27h-5v-2q0 -50 33.5 -75t88.5 -25 q60 0 101.5 31.5t50.5 92.5l19 116q6 35 15 69t11 48q0 1 0.5 3.5t0.5 3.5q-72 -36 -173 -36q-98 0 -158 26.5t-60 67.5q0 2 0.5 4t0.5 4q8 48 74.5 88.5t176.5 40.5q131 0 191 -78q28 41 38 98l92 -9q-7 -39 -31.5 -77.5t-59.5 -63.5q9 -25 9 -51q0 -7 -2 -21l-37 -233 q-14 -88 -88.5 -145.5t-183.5 -57.5q-98 0 -154.5 47.5t-56.5 123.5q0 16 3 32l12 77q7 44 42 71.5t81 27.5zM173 487q0 -36 127 -36q98 0 156 34q-28 67 -140 67q-65 0 -104 -19t-39 -46z" />
<glyph unicode="&#xe2f;" horiz-adv-x="495" d="M175 556q-20 0 -34.5 -13t-17.5 -33q0 -2 -0.5 -5t-0.5 -4q0 -17 10 -27t28 -10q20 0 35 13t18 33q0 2 0.5 4t0.5 4q0 17 -10.5 27.5t-28.5 10.5zM183 609q42 0 68 -22t26 -59q0 -6 -2 -18q-4 -26 -21 -50q89 32 128 135l50 5q12 -15 12 -46q0 -27 -8 -77l-52 -325 q-23 -142 -288 -171l-4 77q95 11 136.5 30.5t48.5 63.5l37 231q2 11 5.5 22t6.5 18t8.5 17.5t7.5 15.5q-71 -56 -168 -56q-55 0 -85 25t-30 66q0 5 2 19q7 45 41.5 72t80.5 27z" />
<glyph unicode="&#xe30;" horiz-adv-x="540" d="M187 506q-20 0 -34.5 -13t-17.5 -33q0 -2 -0.5 -4t-0.5 -4q0 -17 10.5 -27.5t28.5 -10.5q20 0 34.5 13t17.5 33q0 2 0.5 4.5t0.5 3.5q0 17 -10.5 27.5t-28.5 10.5zM196 559q42 0 67.5 -22t25.5 -59q0 -6 -2 -18q-6 -37 -30 -61h3h30q48 0 80.5 38t44.5 102l89 -11 q-15 -81 -72.5 -133t-147.5 -52h-75q-67 0 -102 27t-35 72q0 12 1 18q7 44 42 71.5t81 27.5zM140 206q-20 0 -35 -13t-18 -33q0 -2 -0.5 -4t-0.5 -4q0 -17 10.5 -27.5t28.5 -10.5q20 0 34.5 13t17.5 33q0 2 0.5 5t0.5 4q0 17 -10 27t-28 10zM148 259q42 0 67.5 -22t25.5 -59 q0 -6 -2 -18q-6 -38 -29 -61h3h30q48 0 80.5 38t44.5 102l88 -11q-15 -81 -72 -133t-147 -52h-75q-67 0 -102.5 27.5t-35.5 72.5q0 11 1 17q7 44 42 71.5t81 27.5z" />
<glyph unicode="&#xe31;" d="M-196 847q-16 0 -28 -10t-14 -27v-7q0 -30 30 -30q16 0 28 10t14 27v7q0 30 -30 30zM-188 894q35 0 56 -18.5t21 -50.5q0 -10 -1 -15q-6 -33 -30 -56h13h20q108 0 128 125l79 -9q-13 -78 -68.5 -123t-133.5 -45h-60q-60 0 -94.5 23.5t-34.5 66.5q0 12 1 18q6 38 35 61 t69 23z" />
<glyph unicode="&#xe32;" horiz-adv-x="485" d="M29 468q19 61 76 106t143 45q80 0 124.5 -41t44.5 -106q0 -19 -2 -29l-70 -443h-107l70 443q2 18 2 24q0 73 -74 73q-77 0 -101 -80z" />
<glyph unicode="&#xe33;" horiz-adv-x="485" d="M-101 879q42 0 68 -22t26 -59q0 -6 -2 -18q-7 -44 -42 -71.5t-81 -27.5q-42 0 -67.5 22t-25.5 59q0 6 2 18q7 45 41.5 72t80.5 27zM-109 826q-20 0 -34.5 -13t-17.5 -33q0 -2 -0.5 -5t-0.5 -4q0 -17 10 -27t28 -10q20 0 35 13t18 33q0 2 0.5 4t0.5 4q0 17 -10.5 27.5 t-28.5 10.5zM29 468q19 61 76 106t143 45q80 0 124.5 -41t44.5 -106q0 -19 -2 -29l-70 -443h-107l70 443q2 18 2 24q0 73 -74 73q-77 0 -101 -80z" />
<glyph unicode="&#xe34;" d="M-373 772l244 -42q-46 102 -149 102q-70 0 -95 -60zM-55 692l-12 -17l-401 64q10 61 61.5 106t134.5 45q168 0 216 -194q1 -3 1 -4z" />
<glyph unicode="&#xe35;" d="M-105 822l12 73l78 -14l-32 -198l-14 -13l-408 64q10 61 59.5 106.5t128.5 45.5q119 0 178 -119q-3 18 -3 37q0 12 1 18zM-374 767l259 -45q-53 106 -165 106q-68 0 -94 -61z" />
<glyph unicode="&#xe36;" d="M-110 831q-20 0 -35 -13t-18 -33q0 -1 -0.5 -4t-0.5 -4q0 -17 10.5 -27.5t28.5 -10.5q20 0 34.5 13t17.5 33q0 1 0.5 4t0.5 5q0 17 -10 27t-28 10zM-102 884q42 0 67.5 -22t25.5 -59q0 -6 -2 -18q-7 -45 -41.5 -72t-80.5 -27q-33 0 -55 13l-281 35q10 61 59.5 106.5 t128.5 45.5q55 0 92 -34q35 32 87 32zM-218 811q-25 17 -62 17q-68 0 -93 -60l149 -22q-2 7 -2 21q0 12 1 18q1 10 7 26z" />
<glyph unicode="&#xe37;" d="M-196 872l8 48l63 -14l-28 -178l56 -10q-4 16 -4 30q0 9 1 14l21 133l64 -14l-32 -198l-13 -13l-409 63q10 62 56.5 107t122.5 45q63 0 96 -40q-3 17 -2 27zM-177 732q-28 95 -112 95q-61 0 -85 -61z" />
<glyph unicode="&#xe38;" d="M-258 -113q-16 0 -28 -10t-14 -27v-7q0 -30 30 -30q16 0 28 10t14 27v7q0 30 -30 30zM-278 -305l8 50q2 12 8 22q-5 -1 -15 -1q-36 0 -57 18.5t-21 50.5q0 10 1 15q6 38 35 61t69 23q35 0 56 -18.5t21 -50.5q0 -10 -1 -15q-3 -21 -11 -47t-10 -42l-10 -66h-73z" />
<glyph unicode="&#xe39;" d="M-418 -113q-16 0 -28 -10t-14 -27v-7q0 -30 30 -30q16 0 28 10t14 27v7q0 30 -30 30zM-334 -150q-3 -20 -11.5 -40t-9.5 -29l-2 -16v-4q0 -22 43 -22q47 0 51 26l25 162h73l-26 -168q-5 -33 -41 -51t-90 -18q-108 0 -108 53q0 2 0.5 5t0.5 4l2 14h-10q-36 0 -57 18.5 t-21 50.5q0 10 1 15q6 38 35 61t69 23q35 0 56 -18.5t21 -50.5q0 -10 -1 -15z" />
<glyph unicode="&#xe3a;" d="M-222 -76q31 0 50 -16.5t19 -44.5q0 -9 -1 -13q-5 -34 -30.5 -54t-60.5 -20q-31 0 -50.5 16.5t-19.5 44.5q0 9 1 13q5 34 31 54t61 20z" />
<glyph unicode="&#xe3f;" horiz-adv-x="720" d="M341 450q55 6 97.5 40t51.5 93q2 16 2 21q0 100 -154 100q-24 0 -84 -3l-40 -254q52 3 127 3zM479 433q150 -44 150 -171q0 -18 -3 -36q-16 -100 -100.5 -161.5t-210.5 -71.5l-18 -113h-86l18 111q-65 1 -199 9l124 780q144 9 201 9l18 111h86l-19 -117 q78 -13 124.5 -54.5t46.5 -106.5q0 -19 -2 -29q-18 -108 -130 -160zM156 81q56 -4 112 -4q98 0 162.5 35.5t77.5 113.5q2 9 2 27q0 118 -195 118q-58 0 -114 -4z" />
<glyph unicode="&#xe40;" horiz-adv-x="330" d="M159 136q-20 0 -35 -13t-18 -33q0 -2 -0.5 -4.5t-0.5 -3.5q0 -17 10.5 -27.5t28.5 -10.5q20 0 34.5 13t17.5 33q0 2 0.5 5t0.5 4q0 17 -10 27t-28 10zM44 90q4 23 16 60.5t15 59.5l62 390h107l-57 -360q-4 -28 -19 -51q42 0 67 -22t25 -59q0 -6 -2 -18q-7 -45 -41.5 -72 t-80.5 -27q-42 0 -68 22t-26 59q0 6 2 18z" />
<glyph unicode="&#xe41;" horiz-adv-x="630" d="M459 136q-20 0 -35 -13t-18 -33q0 -2 -0.5 -4.5t-0.5 -3.5q0 -17 10.5 -27.5t28.5 -10.5q20 0 34.5 13t17.5 33q0 2 0.5 5t0.5 4q0 17 -10 27t-28 10zM344 90q4 23 16 60.5t15 59.5l62 390h107l-57 -360q-4 -28 -19 -51q42 0 67 -22t25 -59q0 -6 -2 -18q-7 -45 -41.5 -72 t-80.5 -27q-42 0 -68 22t-26 59q0 6 2 18zM159 136q-20 0 -35 -13t-18 -33q0 -2 -0.5 -4.5t-0.5 -3.5q0 -17 10.5 -27.5t28.5 -10.5q20 0 34.5 13t17.5 33q0 2 0.5 5t0.5 4q0 17 -10 27t-28 10zM44 90q4 23 16 60.5t15 59.5l62 390h107l-57 -360q-4 -28 -19 -51q42 0 67 -22 t25 -59q0 -6 -2 -18q-7 -45 -41.5 -72t-80.5 -27q-42 0 -68 22t-26 59q0 6 2 18z" />
<glyph unicode="&#xe42;" horiz-adv-x="380" d="M202 136q-20 0 -35 -13t-18 -33q0 -2 -0.5 -4.5t-0.5 -3.5q0 -17 10.5 -27.5t28.5 -10.5q20 0 34.5 13t17.5 33q0 2 0.5 5t0.5 4q0 17 -10 27t-28 10zM87 90q4 23 16 60.5t15 59.5l65 410q3 16 3 29q0 34 -28.5 48t-105.5 14l4 26q12 77 69.5 126.5t143.5 49.5 q80 0 126 -58q2 2 4.5 6t2.5 5l31 41l76 -15l-1 -5l-101 -108h-33q-37 62 -104 62q-40 0 -69.5 -21.5t-41.5 -64.5q70 -8 101.5 -32.5t31.5 -72.5q0 -19 -2 -30l-60 -380q-4 -28 -19 -51q42 0 67 -22t25 -59q0 -6 -2 -18q-7 -45 -41.5 -72t-80.5 -27q-42 0 -68 22t-26 59 q0 6 2 18z" />
<glyph unicode="&#xe43;" horiz-adv-x="380" d="M183 820q-20 0 -34.5 -13t-17.5 -33q0 -2 -0.5 -5t-0.5 -4q0 -17 10 -27t28 -10q20 0 35 13t18 33q0 2 0.5 4.5t0.5 3.5q0 17 -10.5 27.5t-28.5 10.5zM202 136q-20 0 -35 -13t-18 -33q0 -2 -0.5 -4.5t-0.5 -3.5q0 -17 10.5 -27.5t28.5 -10.5q20 0 34.5 13t17.5 33 q0 2 0.5 5t0.5 4q0 17 -10 27t-28 10zM87 90q4 23 16 60.5t15 59.5l48 300q7 45 35 81.5t57.5 58t56.5 53.5t33 68q1 6 1 16q0 71 -98 71h-2q35 -22 35 -67q0 -11 -1 -17q-7 -44 -42 -71.5t-81 -27.5q-42 0 -67.5 22t-25.5 59q0 6 2 18q10 58 64 98.5t137 40.5 q76 0 117.5 -33.5t41.5 -90.5q0 -7 -2 -25q-6 -41 -29.5 -75t-48 -54.5t-47.5 -53.5t-29 -71l-43 -270q-4 -28 -19 -51q42 0 67 -22t25 -59q0 -6 -2 -18q-7 -45 -41.5 -72t-80.5 -27q-42 0 -68 22t-26 59q0 6 2 18z" />
<glyph unicode="&#xe44;" horiz-adv-x="380" d="M202 136q-20 0 -35 -13t-18 -33q0 -2 -0.5 -4.5t-0.5 -3.5q0 -17 10.5 -27.5t28.5 -10.5q20 0 34.5 13t17.5 33q0 2 0.5 5t0.5 4q0 17 -10 27t-28 10zM79 884l1 5l74 20l37 -88q7 -18 13 -45q31 42 55 73q45 60 107 60q42 0 60.5 -20t18.5 -47q0 -8 -1 -12 q-5 -31 -30 -68.5t-52.5 -69t-54 -78.5t-33.5 -94l-44 -280q-4 -28 -19 -51q42 0 67 -22t25 -59q0 -6 -2 -18q-7 -45 -41.5 -72t-80.5 -27q-42 0 -68 22t-26 59q0 6 2 18q4 23 16 60.5t15 59.5l49 310q6 40 39.5 89.5t69.5 87t65 75t29 58.5q0 9 -6 16.5t-17 7.5 q-11 -5 -26 -19.5t-21 -23.5l-94 -111h-39z" />
<glyph unicode="&#xe45;" horiz-adv-x="485" d="M29 468q19 61 76 106t143 45q80 0 124.5 -41t44.5 -106q0 -19 -2 -29l-103 -653h-107l103 653q2 18 2 24q0 73 -74 73q-77 0 -101 -80z" />
<glyph unicode="&#xe46;" horiz-adv-x="590" d="M206 372q-20 0 -34.5 -13t-17.5 -33q0 -2 -0.5 -5t-0.5 -4q0 -17 10 -27t28 -10q20 0 35 13t18 33q0 2 0.5 4t0.5 4q0 17 -10.5 27.5t-28.5 10.5zM214 425q42 0 68 -22t26 -59q0 -6 -2 -18q-7 -44 -42 -71.5t-81 -27.5q-64 0 -97.5 40t-33.5 104q0 20 3 41 q14 91 66.5 144t103.5 57l79 -80l105 80q42 -3 76 -43.5t34 -111.5q0 -25 -4 -46l-98 -622h-107l98 622q3 19 3 35q0 47 -24 74l-86 -61h-8h-8l-76 70q-54 -37 -67 -118q0 -1 -0.5 -4t-0.5 -5q31 22 73 22z" />
<glyph unicode="&#xe47;" d="M-110 778q-16 0 -27 -10t-13 -25v-6q0 -29 29 -29q16 0 27.5 10t13.5 25v6q0 29 -30 29zM-103 820q33 0 53 -17t20 -47q0 -9 -1 -13q-5 -35 -32.5 -56t-64.5 -21q-33 0 -53 17t-20 46q0 1 0.5 4t0.5 5l-54 -67q-58 0 -91 24t-33 69q0 7 2 21q9 56 51.5 85t106.5 29h113 q66 0 95 23l18 -49q-38 -26 -118 -26h-116q-74 0 -84 -62q-1 -5 -1 -13q0 -41 45 -47l57 70h7l18 -14q28 39 81 39z" />
<glyph unicode="&#xe48;" d="M-94 955l28 175h80l-30 -189z" />
<glyph unicode="&#xe49;" d="M-165 1092q-23 0 -28 -26q0 -1 -0.5 -3t-0.5 -3q0 -20 21 -20q23 0 28 26q0 1 0.5 3t0.5 3q0 20 -21 20zM-153 962q7 27 8 34q0 4 0.5 10.5t1.5 10.5q-18 -8 -35 -8q-24 0 -38.5 12.5t-14.5 33.5q0 7 1 11q4 26 23.5 41.5t46.5 15.5q67 0 67 -71v-12q-3 -29 -6 -47 q81 17 101 128l74 -11q-13 -76 -68 -118t-141 -42h-22z" />
<glyph unicode="&#xe4a;" d="M-126 1025q-23 0 -28 -26q0 -1 -0.5 -3t-0.5 -3q0 -20 21 -20q23 0 28 26q0 1 0.5 3t0.5 3q0 20 -21 20zM-121 1056q24 0 38.5 -12.5t14.5 -33.5q0 -7 -1 -11q-4 -26 -23.5 -41.5t-46.5 -15.5q-37 0 -54 19t-17 49q0 6 2 20q7 46 37 70.5t56 26.5l45 -29l54 29 q21 -2 39.5 -20.5t18.5 -54.5q0 -6 -2 -22q-1 -10 -9 -26q32 35 48 99l54 -10q-17 -62 -65 -104t-117 -44l-3 29q38 19 43 56q1 6 1 15q0 27 -19 39l-46 -24h-3h-3l-40 25q-22 -11 -31 -34q13 5 29 5z" />
<glyph unicode="&#xe4b;" d="M-169 1015l7 45h89l11 70h73l-11 -70h88l-7 -45h-88l-12 -74l-71 14l10 60h-89z" />
<glyph unicode="&#xe4c;" d="M-71 1064q-16 0 -28 -10t-14 -27v-7q0 -30 30 -30q16 0 28 10t14 27v7q0 30 -30 30zM-167 1027q6 39 33.5 64t72.5 25h28q39 0 58 13.5t24 46.5l76 -9q-6 -39 -36.5 -64t-81.5 -30q7 -17 7 -32q0 -9 -1 -14q-6 -38 -35 -61t-69 -23q-35 0 -56 18.5t-21 50.5q0 10 1 15z " />
<glyph unicode="&#xe4d;" d="M-101 879q42 0 68 -22t26 -59q0 -6 -2 -18q-7 -44 -42 -71.5t-81 -27.5q-42 0 -67.5 22t-25.5 59q0 6 2 18q7 45 41.5 72t80.5 27zM-109 826q-20 0 -34.5 -13t-17.5 -33q0 -2 -0.5 -5t-0.5 -4q0 -17 10 -27t28 -10q20 0 35 13t18 33q0 2 0.5 4t0.5 4q0 17 -10.5 27.5 t-28.5 10.5z" />
<glyph unicode="&#xe4e;" d="M-300 759q5 31 32.5 55t68.5 24q7 0 10 -1v2q5 32 30.5 56.5t65.5 24.5t65 -30l33 -40l-45 -34l-39 47q-10 12 -21 12q-10 0 -22.5 -9.5t-15.5 -26.5q-1 -3 -1 -9q0 -13 7 -21l31 -39l-43 -34l-41 47q-10 12 -21 12q-10 0 -21 -9.5t-14 -26.5q0 -1 -0.5 -3t-0.5 -3 q0 -15 11 -28l34 -39l-46 -36l-39 48q-19 24 -19 50q0 2 0.5 5.5t0.5 5.5z" />
<glyph unicode="&#xe4f;" horiz-adv-x="660" d="M325 346q-20 0 -34.5 -13t-17.5 -33q0 -2 -0.5 -5t-0.5 -4q0 -17 10 -27t28 -10q20 0 35 13t18 33q0 2 0.5 4t0.5 4q0 17 -10.5 27.5t-28.5 10.5zM333 399q42 0 68 -22t26 -59q0 -6 -2 -18q-7 -44 -42 -71.5t-81 -27.5q-42 0 -67.5 22t-25.5 59q0 6 2 18q7 45 41.5 72 t80.5 27zM278 52q-105 0 -164.5 57t-59.5 147q0 14 4 44q17 107 99 177.5t200 70.5q105 0 165 -57t60 -147q0 -14 -4 -44q-17 -106 -99 -177t-201 -71zM288 111q84 0 143.5 51t73.5 138q3 19 3 38q0 70 -43.5 110.5t-117.5 40.5q-84 0 -143 -51t-73 -138q-3 -21 -3 -39 q0 -70 43 -110t117 -40z" />
<glyph unicode="&#xe50;" horiz-adv-x="720" d="M50 286l5 28q9 57 32.5 108.5t63 97t103.5 72.5t144 27q132 0 192 -68.5t60 -172.5q0 -29 -5 -64l-5 -28q-9 -57 -32.5 -108.5t-63 -97t-103.5 -72.5t-144 -27q-132 0 -192 68.5t-60 172.5q0 29 5 64zM310 60q93 0 149.5 60.5t73.5 165.5l5 28q5 35 5 61 q0 78 -39.5 121.5t-117.5 43.5q-93 0 -150 -60.5t-74 -165.5l-5 -28q-5 -35 -5 -60q0 -78 40 -122t118 -44z" />
<glyph unicode="&#xe51;" horiz-adv-x="720" d="M58 334q8 52 32.5 100.5t65 91t103.5 68t139 25.5q69 0 119.5 -20t78.5 -55t41 -76.5t13 -90.5q0 -29 -5 -62l-4 -22q-19 -121 -132 -221t-266 -111l1 79q105 7 191.5 82.5t101.5 170.5l4 22q5 33 5 58q0 79 -40 123.5t-120 44.5q-91 0 -152 -58t-76 -149q-2 -18 -2 -25 q0 -46 27.5 -72.5t70.5 -26.5q46 0 83 21q-42 0 -68 22t-26 59q0 6 2 18q7 44 42 71.5t81 27.5q42 0 67.5 -22t25.5 -59q0 -6 -2 -18q-12 -76 -73 -131t-157 -55q-85 0 -129 48.5t-44 114.5q0 9 2 27zM360 376q-20 0 -35 -13t-18 -33q0 -2 -0.5 -4t-0.5 -4q0 -17 10.5 -27.5 t28.5 -10.5q20 0 34.5 13t17.5 33q0 2 0.5 5t0.5 4q0 17 -10 27t-28 10z" />
<glyph unicode="&#xe52;" horiz-adv-x="810" d="M50 189l89 561h103l-89 -561q-2 -14 -2 -20q0 -41 26 -65.5t59 -24.5h257q38 0 73.5 30t43.5 80l35 223q3 18 3 34q0 49 -27 78l-90 -64h-8h-8l-76 70q-54 -37 -67 -118q0 -1 -0.5 -4t-0.5 -5q31 22 73 22t68 -22t26 -59q0 -6 -2 -18q-7 -44 -42 -71.5t-81 -27.5 q-64 0 -97.5 40t-33.5 104q0 20 3 41q14 91 66.5 144t103.5 57l79 -80l105 80q42 -3 76 -43.5t34 -111.5q0 -25 -4 -46l-35 -223q-11 -74 -74.5 -131.5t-158.5 -57.5h-254q-85 0 -130 47t-45 114q0 10 2 28zM436 372q-20 0 -34.5 -13t-17.5 -33q0 -2 -0.5 -5t-0.5 -4 q0 -17 10 -27t28 -10q20 0 35 13t18 33q0 2 0.5 4t0.5 4q0 17 -10.5 27.5t-28.5 10.5z" />
<glyph unicode="&#xe53;" horiz-adv-x="720" d="M189 136q-20 0 -35 -13t-18 -33q0 -2 -0.5 -4.5t-0.5 -3.5q0 -17 10.5 -27.5t28.5 -10.5q20 0 34.5 13t17.5 33q0 2 0.5 5t0.5 4q0 17 -10 27t-28 10zM197 189q42 0 67.5 -22t25.5 -59q0 -6 -2 -18q-7 -45 -41.5 -72t-80.5 -27q-52 0 -84 30t-37 77q-1 9 -1 33q0 55 5 82 l33 212q6 36 18.5 68t34 61.5t57 47t79.5 17.5q85 0 114 -84q57 84 140 84q70 0 100.5 -40.5t30.5 -103.5q0 -29 -4 -50l-38 -244q-11 -71 -34.5 -114.5t-71.5 -75.5l-70 54q29 19 46.5 48t26.5 88l38 244q4 24 4 46q0 69 -48 69q-31 0 -55.5 -32.5t-32.5 -82.5l-31 -200 h-100l31 200q3 18 3 33q0 37 -14 59.5t-39 22.5q-64 0 -82 -115l-35 -221q-1 -9 -5 -25q23 10 52 10z" />
<glyph unicode="&#xe54;" horiz-adv-x="720" d="M504 351q-20 0 -35 -13t-18 -33q0 -1 -0.5 -4t-0.5 -4q0 -17 10.5 -27.5t28.5 -10.5q20 0 34.5 13t17.5 33q0 1 0.5 4t0.5 5q0 17 -10 27t-28 10zM52 297l2 15q19 119 109 204.5t229 92.5q55 3 116 9q67 8 87 20q40 25 62 115l106 -11q-24 -103 -84.5 -145.5 t-164.5 -55.5q-52 -7 -127 -11q-87 -5 -149 -64t-77 -154l-2 -15q-4 -23 -4 -50q0 -76 41 -122t116 -46h69q-45 48 -45 119q0 17 3 35q12 75 57 123t116 48q42 0 67.5 -22t25.5 -59q0 -6 -2 -18q-7 -45 -41.5 -72t-80.5 -27q-39 0 -64 20q-2 -16 -2 -24q0 -56 38 -89.5 t93 -33.5h52l-13 -79h-286q-67 0 -117 20t-78.5 55t-42 76.5t-13.5 89.5q0 32 4 56z" />
<glyph unicode="&#xe55;" horiz-adv-x="720" d="M434 704q-20 0 -35 -13t-18 -33q0 -2 -0.5 -4t-0.5 -4q0 -17 10.5 -27.5t28.5 -10.5q20 0 34.5 13t17.5 33q0 2 0.5 5t0.5 4q0 17 -10 27t-28 10zM442 757q42 0 67.5 -22t25.5 -59q0 -6 -2 -18q-4 -28 -22 -52h9q59 4 89 34t48 113l106 -11q-41 -185 -236 -204 q-11 -1 -38 -1q-48 0 -75 5q-108 -11 -172.5 -70.5t-80.5 -159.5l-2 -15q-4 -23 -4 -50q0 -76 41 -122t116 -46h69q-45 48 -45 119q0 17 3 35q12 75 57 123t116 48q42 0 67.5 -22t25.5 -59q0 -6 -2 -18q-7 -45 -41.5 -72t-80.5 -27q-39 0 -64 20q-2 -16 -2 -24 q0 -56 38 -89.5t93 -33.5h52l-13 -79h-286q-67 0 -117 20t-78.5 55t-42 76.5t-13.5 89.5q0 32 4 56l2 15q17 105 88.5 181.5t189.5 100.5q-14 20 -14 48q0 11 1 16q7 44 42 71.5t81 27.5zM504 351q-20 0 -35 -13t-18 -33q0 -1 -0.5 -4t-0.5 -4q0 -17 10.5 -27.5t28.5 -10.5 q20 0 34.5 13t17.5 33q0 1 0.5 4t0.5 5q0 17 -10 27t-28 10z" />
<glyph unicode="&#xe56;" horiz-adv-x="720" d="M185 206q-20 0 -35 -13t-18 -33q0 -2 -0.5 -4t-0.5 -4q0 -17 10.5 -27.5t28.5 -10.5q20 0 34.5 13t17.5 33q0 2 0.5 5t0.5 4q0 17 -10 27t-28 10zM193 259q42 0 67.5 -22t25.5 -59q0 -6 -2 -18q-9 -62 -65 -87q40 -15 97 -15q91 0 145.5 61t71.5 167l5 28q5 28 5 61 q0 76 -37 118.5t-108 42.5q-72 0 -121.5 -39.5t-64.5 -83.5l-81 7l-8 322l108 11l-12 -217q76 83 196 83t177.5 -69.5t57.5 -173.5q0 -29 -5 -62l-5 -28q-9 -57 -32.5 -108.5t-62 -97t-99.5 -72.5t-136 -27q-124 0 -183 46.5t-59 111.5q0 7 2 21q7 44 42 71.5t81 27.5z" />
<glyph unicode="&#xe57;" horiz-adv-x="905" d="M189 136q-20 0 -35 -13t-18 -33q0 -2 -0.5 -4.5t-0.5 -3.5q0 -17 10.5 -27.5t28.5 -10.5q20 0 34.5 13t17.5 33q0 2 0.5 5t0.5 4q0 17 -10 27t-28 10zM197 189q42 0 67.5 -22t25.5 -59q0 -6 -2 -18q-7 -45 -41.5 -72t-80.5 -27q-52 0 -84 30t-37 77q-1 9 -1 33q0 55 5 82 l33 212q6 36 18.5 68t34 61.5t57 47t79.5 17.5q85 0 114 -84q57 84 140 84q125 0 125 -137q0 -25 -5 -57l-38 -244q-12 -75 -42 -120q52 15 88.5 47.5t44.5 81.5l89 560h97l-89 -560q-14 -89 -94.5 -144t-206.5 -55l-56 54q29 19 46.5 48t26.5 88l38 244q4 24 4 46 q0 69 -48 69q-31 0 -55.5 -32.5t-32.5 -82.5l-31 -200h-100l31 200q3 18 3 33q0 37 -14 59.5t-39 22.5q-64 0 -82 -115l-35 -221q-1 -9 -5 -25q23 10 52 10z" />
<glyph unicode="&#xe58;" horiz-adv-x="750" d="M544 351q-20 0 -35 -13t-18 -33q0 -1 -0.5 -4t-0.5 -4q0 -17 10.5 -27.5t28.5 -10.5q20 0 34.5 13t17.5 33q0 1 0.5 4t0.5 5q0 17 -10 27t-28 10zM52 296l2 16q18 116 108.5 200t229.5 91q70 4 123 9q67 8 94 31.5t48 110.5l106 -11q-25 -105 -84 -150.5t-158 -57.5 q-48 -7 -135 -11q-87 -5 -148.5 -62t-76.5 -150l-2 -16q-5 -29 -5 -62q0 -22 2.5 -43.5t7 -46.5t5.5 -35l129 151h81q-8 -53 -8 -86q0 -108 77 -108q47 0 78 39.5t43 109.5q-23 -9 -48 -9q-42 0 -68 22t-26 59q0 6 2 18q7 44 42 71.5t81 27.5q106 0 106 -125q0 -29 -4 -52 q-7 -44 -21.5 -82.5t-39 -74.5t-65 -57.5t-91.5 -21.5q-76 0 -109.5 46.5t-34.5 120.5l-134 -158h-89l5 29q2 14 2 22q0 24 -14.5 87t-14.5 106q0 28 4 52z" />
<glyph unicode="&#xe59;" horiz-adv-x="720" d="M516 196q-20 0 -34.5 -13t-17.5 -33q0 -2 -0.5 -5t-0.5 -4q0 -17 10 -27t28 -10q20 0 35 13t18 33q0 2 0.5 4t0.5 4q0 17 -10.5 27.5t-28.5 10.5zM183 445q10 62 62.5 102.5t130.5 48.5q28 3 72 6t51 4q31 4 44 6.5t32.5 11t29.5 23t21.5 41t20.5 65.5l106 -11 q-25 -108 -86 -153t-162 -58q-16 -2 -64.5 -5.5t-71.5 -5.5q-78 -8 -89 -78q-1 -6 -1 -16q0 -25 15 -36q28 3 62 3h206l-12 -79h-206q-192 0 -213 -129q-2 -16 -2 -22q0 -106 174 -106q80 0 125 14q-27 22 -27 62q0 11 1 17q7 45 41.5 72t80.5 27q42 0 68 -22t26 -59 q0 -6 -2 -18q-12 -71 -94 -120t-231 -49q-137 0 -203 48.5t-66 125.5q0 20 2 30q10 62 54.5 112t123.5 75q-20 25 -20 56q0 11 1 17z" />
<glyph unicode="&#xe5a;" horiz-adv-x="675" d="M530 0h-93l95 600h93zM175 556q-20 0 -34.5 -13t-17.5 -33q0 -2 -0.5 -5t-0.5 -4q0 -17 10 -27t28 -10q20 0 35 13t18 33q0 2 0.5 4t0.5 4q0 17 -10.5 27.5t-28.5 10.5zM183 609q42 0 68 -22t26 -59q0 -6 -2 -18q-4 -26 -21 -50q89 32 128 135l36 5q12 -15 12 -46 q0 -27 -8 -77l-52 -325q-7 -43 -32 -75t-64.5 -50.5t-82 -29t-95.5 -16.5l-4 77q95 11 136.5 30.5t48.5 63.5l37 231q2 11 5.5 22t6.5 18t8.5 17.5t7.5 15.5q-71 -56 -168 -56q-55 0 -85 25t-30 66q0 5 2 19q7 45 41.5 72t80.5 27z" />
<glyph unicode="&#xe5b;" horiz-adv-x="900" d="M58 300q17 107 99 177.5t200 70.5l-10 -59q-84 0 -143 -51t-73 -138q-3 -21 -3 -39q0 -70 43 -110t117 -40q84 0 143.5 51t73.5 138q3 19 3 38q0 64 -28 101l56 36q26 -36 36 -79l48 -174l70 207l41 5l43 -115h87l-6 -38h-110l-32 78l-73 -214l-49 -5l-32 111 q-29 -89 -103.5 -144t-177.5 -55q-105 0 -164.5 57t-59.5 147q0 14 4 44zM325 346q-20 0 -34.5 -13t-17.5 -33q0 -2 -0.5 -5t-0.5 -4q0 -17 10 -27t28 -10q20 0 35 13t18 33q0 2 0.5 4t0.5 4q0 17 -10.5 27.5t-28.5 10.5zM333 399q42 0 68 -22t26 -59q0 -6 -2 -18 q-7 -44 -42 -71.5t-81 -27.5q-42 0 -67.5 22t-25.5 59q0 6 2 18q7 45 41.5 72t80.5 27z" />
<glyph unicode="&#xe81;" horiz-adv-x="690" d="M117 136q-20 0 -35 -13t-18 -33q0 -2 -0.5 -4.5t-0.5 -3.5q0 -17 10.5 -27.5t28.5 -10.5q20 0 34.5 13t17.5 33q0 2 0.5 5t0.5 4q0 17 -10 27t-28 10zM168 464q20 0 35 13t18 33q0 2 0.5 4t0.5 4q0 17 -10.5 27.5t-28.5 10.5q-20 0 -34.5 -13t-17.5 -33q0 -2 -0.5 -5 t-0.5 -4q0 -17 10 -27t28 -10zM117 189q-7 18 -7 36q0 10 1 15l10 60l9 60q4 26 22 51q-38 2 -61 24.5t-23 57.5q0 11 1 17q7 45 41.5 72t80.5 27q42 0 67.5 -22.5t25.5 -60.5q0 -10 -1 -15q34 30 58 48t65.5 36.5t80.5 18.5q71 0 106.5 -43t35.5 -111q0 -22 -3 -44 l-66 -416h-107l66 416q3 21 3 37q0 82 -71 82q-31 0 -64 -16t-75.5 -46.5t-56.5 -39.5q-10 -25 -13 -43l-14 -90l-15 -90q-2 -16 -2 -23q0 -13 3.5 -37t3.5 -37q0 -7 -2 -23q-7 -45 -41.5 -72t-80.5 -27q-42 0 -68 22t-26 59q0 6 2 18q7 42 39.5 69.5t75.5 29.5z" />
<glyph unicode="&#xe82;" horiz-adv-x="625" d="M171 404q20 0 34.5 13t17.5 33q0 2 0.5 5t0.5 4q0 17 -10 27t-28 10q-20 0 -35 -13t-18 -33q0 -2 -0.5 -4t-0.5 -4q0 -17 10.5 -27.5t28.5 -10.5zM449 108q-138 -127 -270 -127q-75 0 -117.5 33.5t-42.5 90.5q0 7 2 25q14 90 154 143q2 1 4 1.5t3 1.5q16 6 166 64 q23 9 33.5 14t30 17.5t30 28.5t14.5 38q1 6 1 17q0 44 -34.5 68t-90.5 24q-45 0 -85 -11q39 -23 39 -70q0 -10 -1 -16q-7 -45 -41.5 -72t-80.5 -27q-42 0 -68 22t-26 59q0 6 2 18q12 71 88 120t184 49q99 0 158.5 -44t59.5 -113q0 -8 -2 -24q-6 -38 -24 -68t-47.5 -50.5 t-48.5 -30t-51 -22.5q-25 -10 -86.5 -33t-80.5 -31q-31 -12 -46.5 -19t-32 -22.5t-19.5 -34.5q-1 -5 -1 -13q0 -27 19 -42t53 -15q116 0 258 133h54l45 -183l-1 -4l-85 -16l-14 78q-1 6 -1.5 21t-0.5 22z" />
<glyph unicode="&#xe84;" horiz-adv-x="670" d="M73 432q13 78 94 132.5t201 54.5q111 0 173 -48.5t62 -127.5q0 -15 -3 -32l-65 -411h-105l65 411q2 18 2 26q0 103 -141 103q-76 0 -124 -29.5t-56 -82.5q-1 -5 -1 -13q0 -38 38 -58.5t105 -20.5l-10 -63q-169 0 -198 -115q34 31 85 31q42 0 67.5 -22t25.5 -59 q0 -6 -2 -18q-7 -45 -41.5 -72t-80.5 -27q-65 0 -101.5 35t-36.5 91q0 18 2 28q9 57 46.5 99t89.5 63q-93 29 -93 105q0 6 2 20zM187 136q-20 0 -35 -13t-18 -33q0 -2 -0.5 -4.5t-0.5 -3.5q0 -17 10.5 -27.5t28.5 -10.5q20 0 34.5 13t17.5 33q0 2 0.5 5t0.5 4q0 17 -10 27 t-28 10z" />
<glyph unicode="&#xe87;" horiz-adv-x="520" d="M166 496q-20 0 -35 -13t-18 -33q0 -2 -0.5 -4t-0.5 -4q0 -17 10.5 -27.5t28.5 -10.5q20 0 34.5 13t17.5 33q0 2 0.5 5t0.5 4q0 17 -10 27t-28 10zM51 450q12 71 75 120t152 49q83 0 128.5 -41t45.5 -106q0 -19 -2 -29l-78 -496q-11 -72 -59.5 -124t-132.5 -52 q-86 0 -129 62.5t-52 158.5l100 19q7 -82 34 -121.5t59 -39.5q62 0 77 97l79 499q2 18 2 26q0 41 -23 61.5t-62 20.5q-29 0 -57 -10q59 -16 59 -76q0 -6 -2 -18q-7 -45 -41.5 -72t-80.5 -27q-42 0 -68 22t-26 59q0 6 2 18z" />
<glyph unicode="&#xe88;" horiz-adv-x="590" d="M38 431q23 78 95.5 133t179.5 55q99 0 157.5 -46.5t58.5 -123.5q0 -15 -3 -32q-12 -75 -62 -181t-57 -153l-7 -44q-7 -43 -75 -43l-49 4q5 45 5 79q0 79 -18 130q-36 -47 -100 -47q-42 0 -68 22t-26 59q0 6 2 18q7 44 42 71.5t81 27.5q39 0 67 -19t43 -52t22 -69.5 t8 -80.5q6 24 42 118t46 160q2 18 2 25q0 49 -32.5 73.5t-90.5 24.5q-59 0 -99.5 -30t-57.5 -86zM171 215q20 0 34.5 13t17.5 33q0 1 0.5 4t0.5 5q0 17 -10 27t-28 10q-20 0 -35 -13t-18 -33q0 -1 -0.5 -3.5t-0.5 -4.5q0 -17 10.5 -27.5t28.5 -10.5z" />
<glyph unicode="&#xe8a;" horiz-adv-x="625" d="M549 -194l-90 -30q-49 89 -49 184q0 32 6 68q6 34 14 63q-125 -110 -251 -110q-75 0 -117.5 33.5t-42.5 90.5q0 7 2 25q14 90 154 143q2 1 4 1.5t3 1.5q16 6 166 64q23 9 33.5 14t30 17.5t30 28.5t14.5 38q1 6 1 17q0 44 -34.5 68t-90.5 24q-45 0 -85 -11q39 -23 39 -70 q0 -10 -1 -16q-7 -45 -41.5 -72t-80.5 -27q-42 0 -68 22t-26 59q0 6 2 18q12 71 88 120t184 49q99 0 158.5 -44t59.5 -113q0 -8 -2 -24q-6 -38 -24 -68t-47.5 -50.5t-48.5 -30t-51 -22.5q-25 -10 -86.5 -33t-80.5 -31q-31 -12 -46.5 -19t-32 -22.5t-19.5 -34.5q-1 -5 -1 -13 q0 -27 19 -42t53 -15q116 0 258 133l74 -11l-17 -112q-7 -43 -7 -82q0 -41 9 -78t16.5 -52.5t22.5 -43.5zM171 404q20 0 34.5 13t17.5 33q0 2 0.5 5t0.5 4q0 17 -10 27t-28 10q-20 0 -35 -13t-18 -33q0 -2 -0.5 -4t-0.5 -4q0 -17 10.5 -27.5t28.5 -10.5z" />
<glyph unicode="&#xe8d;" horiz-adv-x="670" d="M32 168q15 93 129 125q-86 40 -86 133q0 19 2 29q11 66 61 110t123 44q42 0 68 -22t26 -59q0 -6 -2 -18q-7 -44 -42 -71.5t-81 -27.5q-50 0 -75 31v-11q0 -104 162 -104l-10 -63q-72 0 -118.5 -23.5t-53.5 -68.5q-1 -6 -1 -17q0 -45 38.5 -70t107.5 -25q159 0 180 129 l65 411h105l-65 -411q-15 -92 -95.5 -150t-202.5 -58q-111 0 -174 47t-63 117q0 7 2 23zM238 464q20 0 35 13t18 33q0 2 0.5 4t0.5 4q0 17 -10.5 27.5t-28.5 10.5q-20 0 -34.5 -13t-17.5 -33q0 -2 -0.5 -5t-0.5 -4q0 -17 10 -27t28 -10z" />
<glyph unicode="&#xe94;" horiz-adv-x="665" d="M192 136q-20 0 -35 -13t-18 -33q0 -2 -0.5 -4.5t-0.5 -3.5q0 -17 10.5 -27.5t28.5 -10.5q20 0 34.5 13t17.5 33q0 2 0.5 5t0.5 4q0 17 -10 27t-28 10zM200 189q42 0 67.5 -22t25.5 -59q0 -6 -2 -18q-7 -45 -41.5 -72t-80.5 -27q-65 0 -101.5 35t-36.5 91q0 18 2 28 l40 254q15 96 96.5 158t198.5 62q106 0 167 -51t61 -134q0 -17 -3 -35l-63 -399h-105l63 399q3 17 3 31q0 55 -35.5 82.5t-99.5 27.5q-73 0 -120 -35.5t-58 -105.5l-30 -193q-1 -8 -9 -31q28 14 61 14z" />
<glyph unicode="&#xe95;" horiz-adv-x="685" d="M192 136q-20 0 -35 -13t-18 -33q0 -2 -0.5 -4.5t-0.5 -3.5q0 -17 10.5 -27.5t28.5 -10.5q20 0 34.5 13t17.5 33q0 2 0.5 5t0.5 4q0 17 -10 27t-28 10zM200 189q42 0 67.5 -22t25.5 -59q0 -6 -2 -18q-7 -45 -41.5 -72t-80.5 -27q-65 0 -101.5 35t-36.5 91q0 18 2 28 l52 331q10 61 55 102t116 41q76 0 112 -61q55 61 132 61q62 0 94.5 -32.5t32.5 -83.5q0 -9 -2 -27l-75 -476h-105l75 476q1 6 1 16q0 48 -50 48q-24 0 -43.5 -15t-27.5 -40l-18 -115h-86l18 115q-1 26 -15 40.5t-38 14.5q-61 0 -71 -64l-42 -270q-1 -8 -9 -31q28 14 61 14z " />
<glyph unicode="&#xe96;" horiz-adv-x="695" d="M174 136q-20 0 -35 -13t-18 -33q0 -2 -0.5 -4.5t-0.5 -3.5q0 -17 10.5 -27.5t28.5 -10.5q20 0 34.5 13t17.5 33q0 2 0.5 5t0.5 4q0 17 -10 27t-28 10zM168 464q20 0 35 13t18 33q0 2 0.5 4t0.5 4q0 17 -10.5 27.5t-28.5 10.5q-20 0 -34.5 -13t-17.5 -33q0 -2 -0.5 -5 t-0.5 -4q0 -17 10 -27t28 -10zM240 426q-11 -20 -14 -39l-13 -87l-10 -60q-4 -26 -20 -51q41 0 66.5 -22t25.5 -59q0 -6 -2 -18q-7 -45 -41.5 -72t-80.5 -27q-42 0 -68 22t-26 59q0 6 2 18q4 23 17.5 60.5t16.5 59.5l15 90l9 63q4 24 25 49q-34 5 -54.5 26t-20.5 54 q0 6 2 18q7 45 41.5 72t80.5 27q42 0 67.5 -22.5t25.5 -59.5q0 -9 -1 -14q33 29 57.5 47.5t66 36t80.5 17.5q71 0 106.5 -43t35.5 -111q0 -22 -3 -44l-99 -626h-107l99 626q3 21 3 37q0 82 -71 82q-33 0 -70.5 -19t-79.5 -49.5t-61 -40.5z" />
<glyph unicode="&#xe97;" horiz-adv-x="760" d="M167 464q20 0 35 13t18 33q0 2 0.5 4t0.5 4q0 17 -10.5 27.5t-28.5 10.5q-20 0 -34.5 -13t-17.5 -33q0 -2 -0.5 -5t-0.5 -4q0 -17 10 -27t28 -10zM159 411q-42 0 -67.5 22t-25.5 59q0 6 2 18q7 45 41.5 72t80.5 27q42 0 68 -22t26 -59q0 -6 -2 -18q-8 -46 -47.5 -110.5 t-46.5 -109.5l-24 -154q-2 -14 -2 -21q0 -57 62 -57q79 0 91 78l51 325q10 65 60.5 109t126.5 44q71 0 109 -35.5t38 -91.5q0 -8 -2 -26l-73 -461h-103l73 464q2 16 2 22q0 56 -55 56q-72 0 -84 -78l-51 -325q-10 -65 -62 -109t-132 -44q-74 0 -114 36t-40 92q0 9 2 25 l24 151q9 56 80 121h-6z" />
<glyph unicode="&#xe99;" horiz-adv-x="680" d="M168 464q20 0 35 13t18 33q0 2 0.5 4t0.5 4q0 17 -10.5 27.5t-28.5 10.5q-20 0 -34.5 -13t-17.5 -33q0 -2 -0.5 -5t-0.5 -4q0 -17 10 -27t28 -10zM202 103q-22 -58 -73 -86t-99 -31l-11 69q75 8 86 82l35 223q4 28 19 51q-42 0 -67 22t-25 59q0 6 2 18q7 45 41.5 72 t80.5 27q42 0 68 -22t26 -59q0 -6 -2 -18q-4 -23 -16 -60.5t-15 -59.5l-29 -180q16 -64 53.5 -104.5t88.5 -40.5q38 0 67.5 26.5t38.5 85.5l67 423h107l-66 -416q-13 -84 -65 -141t-134 -57q-120 0 -178 117z" />
<glyph unicode="&#xe9a;" horiz-adv-x="690" d="M65 189l16 101q9 55 81 121h-4q-42 0 -67.5 22t-25.5 59q0 6 2 18q7 45 41.5 72t80.5 27q42 0 68 -22t26 -59q0 -6 -2 -18q-8 -46 -47 -110.5t-46 -109.5l-16 -101q-2 -18 -2 -25q0 -51 36 -77.5t99 -26.5q70 0 117 33t57 96l65 411h106l-65 -411q-14 -91 -95.5 -149.5 t-197.5 -58.5q-105 0 -167.5 49t-62.5 128q0 14 3 31zM166 464q20 0 35 13t18 33q0 2 0.5 4t0.5 4q0 17 -10.5 27.5t-28.5 10.5q-20 0 -34.5 -13t-17.5 -33q0 -2 -0.5 -5t-0.5 -4q0 -17 10 -27t28 -10z" />
<glyph unicode="&#xe9b;" horiz-adv-x="695" d="M65 189l16 101q9 55 81 121h-4q-42 0 -67.5 22t-25.5 59q0 6 2 18q7 45 41.5 72t80.5 27q42 0 68 -22t26 -59q0 -6 -2 -18q-8 -46 -47 -110.5t-46 -109.5l-16 -101q-2 -18 -2 -25q0 -51 36 -77.5t99 -26.5q70 0 117 33t57 96l98 621h106l-98 -621q-14 -91 -95.5 -149.5 t-197.5 -58.5q-105 0 -167.5 49t-62.5 128q0 14 3 31zM166 464q20 0 35 13t18 33q0 2 0.5 4t0.5 4q0 17 -10.5 27.5t-28.5 10.5q-20 0 -34.5 -13t-17.5 -33q0 -2 -0.5 -5t-0.5 -4q0 -17 10 -27t28 -10z" />
<glyph unicode="&#xe9c;" horiz-adv-x="790" d="M271 609q42 0 68 -22t26 -59q0 -6 -2 -18q-7 -44 -42 -71.5t-81 -27.5q-32 0 -57 14q2 -15 -1 -31l-42 -265q-1 -5 -1 -13q0 -28 19.5 -42t48.5 -14q34 0 58 21t30 57l31 192h92l-29 -192q-1 -6 -1 -16q0 -29 17.5 -45.5t47.5 -16.5q32 0 56.5 17.5t30.5 51.5l45 281 q3 16 11 31h-6q-42 0 -67.5 22t-25.5 59q0 6 2 18q7 45 41.5 72t80.5 27q42 0 68 -22t26 -59q0 -6 -2 -18q0 -1 -0.5 -3t-0.5 -3q23 29 38 94l61 -7q-27 -101 -110 -147q-1 -7 -4 -21t-4 -23l-48 -301q-10 -63 -59.5 -105.5t-128.5 -42.5q-88 0 -129 69q-63 -69 -151 -69 q-70 0 -107 34.5t-37 87.5q0 8 2 26l52 326q11 66 61 110t123 44zM248 464q20 0 35 13t18 33q0 2 0.5 4t0.5 4q0 17 -10.5 27.5t-28.5 10.5q-20 0 -34.5 -13t-17.5 -33q0 -2 -0.5 -5t-0.5 -4q0 -17 10 -27t28 -10zM598 494q20 0 35 13t18 33q0 2 0.5 4t0.5 4 q0 17 -10.5 27.5t-28.5 10.5q-20 0 -34.5 -13t-17.5 -33q0 -2 -0.5 -5t-0.5 -4q0 -17 10 -27t28 -10z" />
<glyph unicode="&#xe9d;" horiz-adv-x="765" d="M248 464q20 0 35 13t18 33q0 2 0.5 4t0.5 4q0 17 -10.5 27.5t-28.5 10.5q-20 0 -34.5 -13t-17.5 -33q0 -2 -0.5 -5t-0.5 -4q0 -17 10 -27t28 -10zM271 609q42 0 68 -22t26 -59q0 -6 -2 -18q-7 -44 -42 -71.5t-81 -27.5q-32 0 -57 14q2 -15 -1 -31l-42 -265q-1 -5 -1 -13 q0 -28 19.5 -42t48.5 -14q34 0 58 21t30 57l31 192h92l-29 -192q-1 -6 -1 -16q0 -29 17.5 -45.5t47.5 -16.5q32 0 56.5 17.5t30.5 51.5l108 681h105l-108 -681q-10 -63 -59.5 -105.5t-128.5 -42.5q-88 0 -129 69q-63 -69 -151 -69q-70 0 -107 34.5t-37 87.5q0 8 2 26l52 326 q11 66 61 110t123 44z" />
<glyph unicode="&#xe9e;" horiz-adv-x="760" d="M165 464q20 0 35 13t18 33q0 2 0.5 4t0.5 4q0 17 -10.5 27.5t-28.5 10.5q-20 0 -34.5 -13t-17.5 -33q0 -2 -0.5 -5t-0.5 -4q0 -17 10 -27t28 -10zM157 411q-42 0 -67.5 22t-25.5 59q0 6 2 18q7 45 41.5 72t80.5 27q42 0 68 -22t26 -59q0 -6 -2 -18q-8 -46 -48 -110.5 t-47 -109.5l-26 -161q-1 -5 -1 -14q0 -27 18.5 -41t44.5 -14q31 0 54.5 21t29.5 56l30 193h93l-30 -193q-1 -6 -1 -16q0 -28 17 -44.5t44 -16.5q30 0 53 17.5t29 51.5l75 471h105l-75 -471q-10 -63 -58.5 -105.5t-124.5 -42.5q-86 0 -125 70q-61 -70 -146 -70 q-67 0 -103 34.5t-36 87.5q0 8 2 26l26 161q9 55 81 121h-4z" />
<glyph unicode="&#xe9f;" horiz-adv-x="765" d="M165 464q20 0 35 13t18 33q0 2 0.5 4t0.5 4q0 17 -10.5 27.5t-28.5 10.5q-20 0 -34.5 -13t-17.5 -33q0 -2 -0.5 -5t-0.5 -4q0 -17 10 -27t28 -10zM157 411q-42 0 -67.5 22t-25.5 59q0 6 2 18q7 45 41.5 72t80.5 27q42 0 68 -22t26 -59q0 -6 -2 -18q-8 -46 -48 -110.5 t-47 -109.5l-26 -161q-1 -5 -1 -14q0 -27 18.5 -41t44.5 -14q31 0 54.5 21t29.5 56l30 193h93l-30 -193q-1 -6 -1 -16q0 -28 17 -44.5t44 -16.5q30 0 53 17.5t29 51.5l108 681h105l-108 -681q-10 -63 -58.5 -105.5t-124.5 -42.5q-86 0 -125 70q-61 -70 -146 -70 q-67 0 -103 34.5t-36 87.5q0 8 2 26l26 161q9 55 81 121h-4z" />
<glyph unicode="&#xea1;" horiz-adv-x="670" d="M107 136q-20 0 -35 -13t-18 -33q0 -2 -0.5 -4.5t-0.5 -3.5q0 -17 10.5 -27.5t28.5 -10.5q20 0 34.5 13t17.5 33q0 2 0.5 5t0.5 4q0 17 -10 27t-28 10zM204 159q9 -7 32 -28.5t37 -33t37 -22t46 -10.5q88 0 106 119l66 416h107l-66 -416q-13 -84 -65.5 -141t-135.5 -57 q-53 0 -91 25.5t-73 67.5q-10 -40 -43.5 -64t-76.5 -24q-42 0 -68 22t-26 59q0 6 2 18q7 42 39.5 69.5t75.5 29.5q-7 18 -7 36q0 10 1 15l57 360h107l-62 -390q-2 -14 -2 -20q0 -1 3 -31z" />
<glyph unicode="&#xea2;" horiz-adv-x="675" d="M32 168q15 93 129 125q-86 40 -86 133q0 19 2 29q11 66 61 110t123 44q42 0 68 -22t26 -59q0 -6 -2 -18q-7 -44 -42 -71.5t-81 -27.5q-50 0 -75 31v-11q0 -104 162 -104l-10 -63q-72 0 -118.5 -23.5t-53.5 -68.5q-1 -6 -1 -17q0 -45 38.5 -70t107.5 -25q159 0 180 129 l98 621h105l-98 -621q-15 -92 -95.5 -150t-202.5 -58q-111 0 -174 47t-63 117q0 7 2 23zM238 464q20 0 35 13t18 33q0 2 0.5 4t0.5 4q0 17 -10.5 27.5t-28.5 10.5q-20 0 -34.5 -13t-17.5 -33q0 -2 -0.5 -5t-0.5 -4q0 -17 10 -27t28 -10z" />
<glyph unicode="&#xea3;" horiz-adv-x="610" d="M138 196q-20 0 -34.5 -13t-17.5 -33q0 -2 -0.5 -5t-0.5 -4q0 -17 10 -27t28 -10q20 0 35 13t18 33q0 2 0.5 4t0.5 4q0 17 -10.5 27.5t-28.5 10.5zM146 249q42 0 68 -22t26 -59q0 -6 -2 -18q-9 -59 -66 -86q37 -11 81 -11q61 0 106.5 29t53.5 80q1 5 1 14q0 7 -1.5 14 t-3.5 12.5t-6.5 11t-7 9t-9.5 8.5t-9.5 7t-11 6.5t-10.5 5.5t-10.5 5.5t-9.5 4.5q-31 14 -146 64q-65 28 -90 56q-27 31 -27 71q0 5 2 19q10 62 84.5 105.5t186.5 43.5q103 0 164 -46t66 -97l-101 -13q-3 29 -38 54.5t-103 25.5q-73 0 -112 -21.5t-43 -48.5q0 -1 -0.5 -3.5 t-0.5 -4.5q0 -16 12.5 -30t24.5 -20t38 -18q18 -8 72 -31t75 -33t31 -15t30 -19t30 -27t19 -35t9 -47q0 -18 -2 -28q-12 -79 -88.5 -130t-185.5 -51q-100 0 -160 42t-60 106q0 7 2 21q7 45 41.5 72t80.5 27z" />
<glyph unicode="&#xea5;" horiz-adv-x="655" d="M155 136q-20 0 -35 -13t-18 -33q0 -2 -0.5 -4.5t-0.5 -3.5q0 -17 10.5 -27.5t28.5 -10.5q20 0 34.5 13t17.5 33q0 2 0.5 5t0.5 4q0 17 -10 27t-28 10zM163 189q42 0 67.5 -22t25.5 -59q0 -6 -2 -18q-7 -45 -41.5 -72t-80.5 -27q-49 0 -77.5 27t-28.5 70q0 13 1 19l6 40 q10 62 55.5 108.5t127.5 46.5q88 0 143.5 -51.5t83.5 -128.5v15q0 22 3 43l35 225q2 10 2 28q0 54 -36.5 80.5t-100.5 26.5q-65 0 -110.5 -34t-63.5 -95l-106 8q24 83 101.5 141.5t190.5 58.5q105 0 167 -49.5t62 -130.5q0 -16 -3 -34l-56 -352q-3 -22 -25.5 -39.5 t-55.5 -17.5l-45 4q-4 37 -15 73t-32.5 74.5t-60 62t-89.5 23.5q-56 0 -74 -48q20 4 32 4z" />
<glyph unicode="&#xea7;" horiz-adv-x="600" d="M133 196q-20 0 -34.5 -13t-17.5 -33q0 -2 -0.5 -5t-0.5 -4q0 -17 10 -27t28 -10q20 0 35 13t18 33q0 2 0.5 4t0.5 4q0 17 -10.5 27.5t-28.5 10.5zM141 249q42 0 68 -22t26 -59q0 -6 -2 -18q-9 -54 -58 -82q29 -11 64 -11q59 0 98.5 30t48.5 89l38 241q2 18 2 26 q0 97 -120 97q-59 0 -99.5 -30.5t-57.5 -86.5l-106 8q23 78 95.5 133t179.5 55q99 0 157.5 -46.5t58.5 -123.5q0 -15 -3 -32l-38 -241q-14 -86 -87 -140.5t-179 -54.5q-97 0 -153.5 42.5t-56.5 105.5q0 7 2 21q7 45 41.5 72t80.5 27z" />
<glyph unicode="&#xeaa;" horiz-adv-x="665" d="M155 136q-20 0 -35 -13t-18 -33q0 -2 -0.5 -4.5t-0.5 -3.5q0 -17 10.5 -27.5t28.5 -10.5q20 0 34.5 13t17.5 33q0 2 0.5 5t0.5 4q0 17 -10 27t-28 10zM163 189q42 0 67.5 -22t25.5 -59q0 -6 -2 -18q-7 -45 -41.5 -72t-80.5 -27q-49 0 -77.5 27t-28.5 70q0 13 1 19l6 40 q10 62 55.5 108.5t127.5 46.5q88 0 143.5 -51.5t83.5 -128.5v15q0 22 3 43l21 134q4 26 11.5 59.5t9.5 46.5q-83 -50 -188 -50q-100 0 -162.5 29t-62.5 72q0 6 1 9q8 49 79.5 94t183.5 45q75 0 125.5 -23.5t75.5 -55.5q26 38 38 99l92 -9q-17 -88 -93 -142q10 -30 10 -54 q0 -11 -1 -17l-58 -364q-3 -22 -25.5 -39.5t-55.5 -17.5l-45 4q-4 37 -15 73t-32.5 74.5t-60 62t-89.5 23.5q-56 0 -74 -48q20 4 32 4zM175 477q0 -11 10 -21t42 -18.5t82 -8.5q104 0 171 52q-16 35 -56 55t-95 20q-66 0 -110 -25t-44 -54z" />
<glyph unicode="&#xeab;" horiz-adv-x="800" d="M424 464q20 0 35 13t18 33q0 2 0.5 4t0.5 4q0 17 -10.5 27.5t-28.5 10.5q-20 0 -34.5 -13t-17.5 -33q0 -2 -0.5 -5t-0.5 -4q0 -17 10 -27t28 -10zM167 464q20 0 35 13t18 33q0 2 0.5 4t0.5 4q0 17 -10.5 27.5t-28.5 10.5q-20 0 -34.5 -13t-17.5 -33q0 -2 -0.5 -5t-0.5 -4 q0 -17 10 -27t28 -10zM159 411q-42 0 -67.5 22t-25.5 59q0 6 2 18q7 45 41.5 72t80.5 27q42 0 68 -22t26 -59q0 -6 -2 -18q-8 -46 -47.5 -110.5t-46.5 -109.5l-24 -152q-2 -14 -2 -19q0 -61 72 -61q89 0 101 80l29 182q7 46 52 91q-42 0 -67.5 22t-25.5 59q0 6 2 18 q7 45 41.5 72t80.5 27q36 0 60.5 -16.5t31.5 -45.5q60 62 114 62q87 0 87 -109q0 -24 -5 -59l-70 -441h-103l68 427q5 35 5 52q0 47 -32 47q-35 0 -72 -48q-8 -21 -37.5 -63.5t-34.5 -74.5l-32 -199q-10 -67 -63.5 -111t-140.5 -44q-80 0 -122 36t-42 94q0 9 2 25l24 149 q9 56 80 121h-6z" />
<glyph unicode="&#xead;" horiz-adv-x="640" d="M138 196q-20 0 -34.5 -13t-17.5 -33q0 -2 -0.5 -5t-0.5 -4q0 -17 10 -27t28 -10q20 0 35 13t18 33q0 2 0.5 4t0.5 4q0 17 -10.5 27.5t-28.5 10.5zM146 249q42 0 68 -22t26 -59q0 -6 -2 -18q-9 -61 -69 -88q45 -9 94 -9q63 0 113.5 37t60.5 99l17 110q5 32 12.5 64.5 t8.5 40.5q-77 -47 -184 -47q-102 0 -164.5 31t-62.5 75q0 6 1 9q8 50 80 98.5t187 48.5t180.5 -46.5t65.5 -125.5q0 -20 -2 -30l-36 -228q-15 -90 -93.5 -149t-194.5 -59q-105 0 -167.5 42.5t-62.5 106.5q0 6 2 20q7 45 41.5 72t80.5 27zM473 470q-13 40 -53 63t-98 23 q-66 0 -112 -29t-46 -59q0 -12 9.5 -23t42 -20.5t84.5 -9.5q110 0 173 55z" />
<glyph unicode="&#xeae;" horiz-adv-x="625" d="M138 196q-20 0 -34.5 -13t-17.5 -33q0 -2 -0.5 -5t-0.5 -4q0 -17 10 -27t28 -10q20 0 35 13t18 33q0 2 0.5 4t0.5 4q0 17 -10.5 27.5t-28.5 10.5zM510 492q8 23 16 43l38 78l81 -16l-1 -4l-103 -183h-54q-18 24 -33 40.5t-43 41t-64 38t-76 13.5q-39 0 -63.5 -18.5 t-29.5 -51.5q0 -1 -0.5 -3.5t-0.5 -4.5q0 -16 12.5 -30t24.5 -20t38 -18q18 -8 72 -31t75 -33t31 -15t30 -19t30 -27t19 -35t9 -47q0 -18 -2 -28q-12 -79 -88.5 -130t-185.5 -51q-100 0 -160 42t-60 106q0 7 2 21q7 45 41.5 72t80.5 27q42 0 68 -22t26 -59q0 -6 -2 -18 q-9 -59 -66 -86q37 -11 81 -11q61 0 106.5 29t53.5 80q1 5 1 14q0 7 -1.5 14t-3.5 12.5t-6.5 11t-7 9t-9.5 8.5t-9.5 7t-11 6.5t-10.5 5.5t-10.5 5.5t-9.5 4.5q-31 14 -146 64q-65 28 -90 56q-27 31 -27 71q0 5 2 19q11 68 66.5 108.5t139.5 40.5q132 0 230 -127z" />
<glyph unicode="&#xeaf;" horiz-adv-x="600" d="M134 56q66 5 118 19t93 45t48 75l36 225q1 4 2 10t2 11l2 10q-105 -153 -245 -153q-71 0 -103 35.5t-32 89.5q0 20 2 30l6 40q8 50 47.5 83t93.5 33q42 0 68 -22t26 -59q0 -6 -2 -18q-7 -44 -42 -71.5t-81 -27.5q-10 0 -30 4q2 -48 58 -48q48 0 90.5 23.5t73.5 62.5 t51 74t36 73q18 4 47 4q27 0 40.5 -14t13.5 -34q0 -2 -0.5 -5t-0.5 -4l-56 -352q-14 -92 -113.5 -149t-238.5 -65zM181 464q20 0 35 13t18 33q0 2 0.5 4t0.5 4q0 17 -10.5 27.5t-28.5 10.5q-20 0 -34.5 -13t-17.5 -33q0 -2 -0.5 -5t-0.5 -4q0 -17 10 -27t28 -10z" />
<glyph unicode="&#xeb0;" horiz-adv-x="540" d="M187 506q-20 0 -34.5 -13t-17.5 -33q0 -2 -0.5 -4t-0.5 -4q0 -17 10.5 -27.5t28.5 -10.5q20 0 34.5 13t17.5 33q0 2 0.5 4.5t0.5 3.5q0 17 -10.5 27.5t-28.5 10.5zM196 559q42 0 67.5 -22t25.5 -59q0 -6 -2 -18q-6 -37 -30 -61h3h30q48 0 80.5 38t44.5 102l89 -11 q-15 -81 -72.5 -133t-147.5 -52h-75q-67 0 -102 27t-35 72q0 12 1 18q7 44 42 71.5t81 27.5zM140 206q-20 0 -35 -13t-18 -33q0 -2 -0.5 -4t-0.5 -4q0 -17 10.5 -27.5t28.5 -10.5q20 0 34.5 13t17.5 33q0 2 0.5 5t0.5 4q0 17 -10 27t-28 10zM148 259q42 0 67.5 -22t25.5 -59 q0 -6 -2 -18q-6 -38 -29 -61h3h30q48 0 80.5 38t44.5 102l88 -11q-15 -81 -72 -133t-147 -52h-75q-67 0 -102.5 27.5t-35.5 72.5q0 11 1 17q7 44 42 71.5t81 27.5z" />
<glyph unicode="&#xeb1;" d="M-346 847q-16 0 -28 -10t-14 -27v-7q0 -30 30 -30q16 0 28 10t14 27v7q0 30 -30 30zM-338 894q35 0 56 -18.5t21 -50.5q0 -10 -1 -15q-6 -33 -30 -56h13h60q108 0 128 125l79 -9q-13 -78 -68.5 -123t-133.5 -45h-100q-60 0 -94.5 23.5t-34.5 66.5q0 12 1 18q6 38 35 61 t69 23z" />
<glyph unicode="&#xeb2;" horiz-adv-x="510" d="M161 496q-20 0 -35 -13t-18 -33q0 -2 -0.5 -4t-0.5 -4q0 -17 10.5 -27.5t28.5 -10.5q20 0 34.5 13t17.5 33q0 2 0.5 5t0.5 4q0 17 -10 27t-28 10zM272 0l71 446q2 18 2 26q0 41 -23 61.5t-62 20.5q-29 0 -57 -10q59 -16 59 -76q0 -6 -2 -18q-7 -45 -41.5 -72t-80.5 -27 q-42 0 -68 22t-26 59q0 6 2 18q12 71 75 120t152 49q83 0 128.5 -41t45.5 -106q0 -19 -2 -29l-70 -443h-103z" />
<glyph unicode="&#xeb3;" horiz-adv-x="510" d="M-236 879q42 0 68 -22t26 -59q0 -6 -2 -18q-7 -44 -42 -71.5t-81 -27.5q-42 0 -67.5 22t-25.5 59q0 6 2 18q7 45 41.5 72t80.5 27zM-244 826q-20 0 -34.5 -13t-17.5 -33q0 -2 -0.5 -5t-0.5 -4q0 -17 10 -27t28 -10q20 0 35 13t18 33q0 2 0.5 4t0.5 4q0 17 -10.5 27.5 t-28.5 10.5zM161 496q-20 0 -35 -13t-18 -33q0 -2 -0.5 -4t-0.5 -4q0 -17 10.5 -27.5t28.5 -10.5q20 0 34.5 13t17.5 33q0 2 0.5 5t0.5 4q0 17 -10 27t-28 10zM272 0l71 446q2 18 2 26q0 41 -23 61.5t-62 20.5q-29 0 -57 -10q59 -16 59 -76q0 -6 -2 -18q-7 -45 -41.5 -72 t-80.5 -27q-42 0 -68 22t-26 59q0 6 2 18q12 71 75 120t152 49q83 0 128.5 -41t45.5 -106q0 -19 -2 -29l-70 -443h-103z" />
<glyph unicode="&#xeb4;" d="M-45 760q-8 -53 -45 -85l-56 22q23 28 27 53q1 3 1 9q0 58 -128 58q-136 0 -147 -67q-1 -5 -1 -14q0 -19 10 -39l-62 -22q-21 25 -21 63q0 6 2 22q11 66 74.5 98t156.5 32q86 0 138.5 -27t52.5 -83q0 -6 -2 -20z" />
<glyph unicode="&#xeb5;" d="M-470 760q11 67 70 98.5t149 31.5q76 0 124.5 -26.5t48.5 -82.5q0 -7 -2 -21q-3 -15 -10 -32q19 6 43 6h113l-9 -59h-193l-38 22q22 26 26 53q1 4 1 12q0 55 -116 55q-124 0 -135 -67q-1 -5 -1 -14q0 -19 10 -39l-62 -22q-21 25 -21 63q0 6 2 22z" />
<glyph unicode="&#xeb6;" d="M-45 760q-8 -53 -45 -85l-56 22q23 28 27 53q1 3 1 10q0 28 -29.5 47.5t-96.5 19.5q-74 0 -109 -22.5t-40 -54.5q-1 -5 -1 -14q0 -19 10 -39l-62 -22q-21 25 -21 63q0 6 2 22q11 66 74.5 98t156.5 32q86 0 138.5 -27t52.5 -83q0 -6 -2 -20zM-321 730q4 24 23.5 38.5 t46.5 14.5q24 0 39.5 -12.5t15.5 -32.5q0 -2 -0.5 -4t-0.5 -4q-4 -24 -24 -38.5t-47 -14.5q-24 0 -39 12t-15 32q0 1 0.5 4t0.5 5z" />
<glyph unicode="&#xeb7;" d="M-470 760q11 67 72.5 98.5t151.5 31.5q77 0 127.5 -27t50.5 -83q0 -6 -2 -20q-3 -15 -10 -32q19 6 43 6h103l-9 -59h-183l-38 22q22 26 26 53q1 4 1 11q0 28 -27.5 47t-91.5 19q-71 0 -104 -22.5t-38 -54.5q-1 -5 -1 -14q0 -19 10 -39l-62 -22q-21 25 -21 63q0 6 2 22z M-333 730q4 24 23.5 38.5t46.5 14.5q24 0 39.5 -12.5t15.5 -32.5q0 -2 -0.5 -4t-0.5 -4q-4 -24 -24 -38.5t-47 -14.5q-24 0 -39 12t-15 32q0 1 0.5 4t0.5 5z" />
<glyph unicode="&#xeb8;" d="M-378 -113q-16 0 -28 -10t-14 -27v-7q0 -30 30 -30q16 0 28 10t14 27v7q0 30 -30 30zM-398 -305l8 50q2 12 8 22q-5 -1 -15 -1q-36 0 -57 18.5t-21 50.5q0 10 1 15q6 38 35 61t69 23q35 0 56 -18.5t21 -50.5q0 -10 -1 -15q-3 -21 -11 -47t-10 -42l-10 -66h-73z" />
<glyph unicode="&#xeb9;" d="M-478 -113q-16 0 -28 -10t-14 -27v-7q0 -30 30 -30q16 0 28 10t14 27v7q0 30 -30 30zM-394 -150q-3 -20 -11.5 -40t-9.5 -29l-2 -16v-4q0 -22 43 -22q47 0 51 26l25 162h73l-26 -168q-5 -33 -41 -51t-90 -18q-108 0 -108 53q0 2 0.5 5t0.5 4l2 14h-10q-36 0 -57 18.5 t-21 50.5q0 10 1 15q6 38 35 61t69 23q35 0 56 -18.5t21 -50.5q0 -10 -1 -15z" />
<glyph unicode="&#xebb;" d="M-379 733q16 0 28 10t14 27v7q0 30 -30 30q-16 0 -28 -10t-14 -27v-7q0 -30 30 -30zM-386 686q-36 0 -57 18.5t-21 50.5q0 10 1 15q8 51 51.5 79.5t110.5 28.5h100q70 0 110.5 -36t40.5 -99q0 -15 -3 -33l-81 -9q3 19 3 36q0 89 -91 89h-60h-13q13 -18 13 -41 q0 -10 -1 -15q-6 -38 -35 -61t-68 -23z" />
<glyph unicode="&#xebc;" d="M-518 -113q-16 0 -28 -10t-14 -27v-7q0 -30 30 -30q16 0 28 10t14 27v7q0 30 -30 30zM-439 -169q-10 -30 -37 -47.5t-61 -17.5q-36 0 -57 18.5t-21 50.5q0 10 1 15q6 38 35 61t69 23q24 0 43 -6.5t34 -20t20 -19t15 -19.5q32 -42 69 -42q48 0 82 105l63 -19 q-59 -141 -154 -141q-57 0 -98 56z" />
<glyph unicode="&#xebd;" horiz-adv-x="575" d="M54 470q10 68 64 108.5t132 40.5q131 0 203 -119q9 27 13 35l38 78l81 -16l-1 -4l-103 -183h-54q-76 133 -183 133q-37 0 -59 -19t-27 -51q0 -1 -0.5 -3.5t-0.5 -4.5q0 -7 1.5 -13.5t6.5 -12t8.5 -9.5t12.5 -9.5t12.5 -7.5t15.5 -8t15 -8q13 -7 58 -30t65 -34 q2 -1 17 -9.5t20 -11.5t18.5 -12t19.5 -15.5t15.5 -17.5t14 -21.5t8 -25t3.5 -30.5q0 -18 -2 -28l-33 -208q-12 -76 -78 -129.5t-166 -53.5q-90 0 -140.5 42.5t-50.5 103.5q0 7 2 23q7 44 42 71.5t81 27.5q42 0 67.5 -22t25.5 -59q0 -6 -2 -18q-6 -36 -29 -60.5t-57 -33.5 q28 -10 68 -10q53 0 88.5 30t44.5 85l34 211q1 5 1 15q0 17 -6 30.5t-20.5 24.5t-20.5 14.5t-25 13.5q-18 10 -66 33t-63 31q-1 1 -20.5 10.5t-30.5 17.5t-27.5 22.5t-24.5 33.5t-8 42q0 6 2 20zM115 -14q-20 0 -35 -13t-18 -33q0 -2 -0.5 -4t-0.5 -4q0 -17 10.5 -27.5 t28.5 -10.5q20 0 34.5 13t17.5 33q0 2 0.5 5t0.5 4q0 17 -10 27t-28 10z" />
<glyph unicode="&#xec0;" horiz-adv-x="350" d="M159 136q-20 0 -35 -13t-18 -33q0 -2 -0.5 -4.5t-0.5 -3.5q0 -17 10.5 -27.5t28.5 -10.5q20 0 34.5 13t17.5 33q0 2 0.5 5t0.5 4q0 17 -10 27t-28 10zM44 90q4 23 16 60.5t15 59.5l40 253q6 40 27.5 70.5t50.5 47t55 24.5t49 9l11 -69q-75 -8 -86 -82l-35 -223 q-4 -28 -19 -51q42 0 67 -22t25 -59q0 -6 -2 -18q-7 -45 -41.5 -72t-80.5 -27q-42 0 -68 22t-26 59q0 6 2 18z" />
</font>
</defs>
</svg>
